 0
SECTION
 2
HEADER
 9
$ACADVER
 1
AC1009
 0
ENDSEC
 0
SECTION
 2
TABLES
 0
TABLE
 2
LTYPE
 70
1
 0
LTYPE
 2
CONTINUOUS
 70
64
 3
solid line
 72
65
 73
0
 40
0.0
 0
ENDTAB
 0
TABLE
 2
LAYER
 70
6
 0
LAYER
 2
0
 70
0
 62
7
 6
CONTINUOUS
 0
LAYER
 2
GRASS_20
 70
64
 62
74
 6
CONTINUOUS
 0
ENDTAB
 0
ENDSEC
 0
SECTION
 2
BLOCKS
 0
ENDSEC
 0
SECTION
 2
ENTITIES
 0
POLYLINE
 8
GRASS_20
 66
1
 10
0.0
 20
0.0
 30
0.0
 70
64
 71
1000
 72
596
 0
VERTEX
 8
GRASS_20
 10
0.0241
 20
-0.0125
 30
0.0429
 70
192
 0
VERTEX
 8
GRASS_20
 10
0.0317
 20
-0.0217
 30
0.0429
 70
192
 0
VERTEX
 8
GRASS_20
 10
0.0313
 20
-0.0211
 30
-0.0018
 70
192
 0
VERTEX
 8
GRASS_20
 10
0.0246
 20
-0.0131
 30
-0.0018
 70
192
 0
VERTEX
 8
GRASS_20
 10
0.0239
 20
-0.0122
 30
0.0734
 70
192
 0
VERTEX
 8
GRASS_20
 10
0.032
 20
-0.022
 30
0.0734
 70
192
 0
VERTEX
 8
GRASS_20
 10
0.0259
 20
-0.008
 30
0.1042
 70
192
 0
VERTEX
 8
GRASS_20
 10
0.0344
 20
-0.0183
 30
0.1042
 70
192
 0
VERTEX
 8
GRASS_20
 10
0.0331
 20
0.0049
 30
0.1454
 70
192
 0
VERTEX
 8
GRASS_20
 10
0.0416
 20
-0.0054
 30
0.1454
 70
192
 0
VERTEX
 8
GRASS_20
 10
0.0434
 20
0.0217
 30
0.1681
 70
192
 0
VERTEX
 8
GRASS_20
 10
0.0509
 20
0.0127
 30
0.1681
 70
192
 0
VERTEX
 8
GRASS_20
 10
0.0511
 20
0.0318
 30
0.1745
 70
192
 0
VERTEX
 8
GRASS_20
 10
0.0562
 20
0.0257
 30
0.1745
 70
192
 0
VERTEX
 8
GRASS_20
 10
0.0668
 20
0.0534
 30
0.1681
 70
192
 0
VERTEX
 8
GRASS_20
 10
0.0676
 20
0.0524
 30
0.1681
 70
192
 0
VERTEX
 8
GRASS_20
 10
0.0703
 20
0.0585
 30
0.1612
 70
192
 0
VERTEX
 8
GRASS_20
 10
0.0285
 20
-0.0161
 30
0.0429
 70
192
 0
VERTEX
 8
GRASS_20
 10
0.0279
 20
-0.0171
 30
-0.0018
 70
192
 0
VERTEX
 8
GRASS_20
 10
0.0289
 20
-0.0154
 30
0.0734
 70
192
 0
VERTEX
 8
GRASS_20
 10
0.0314
 20
-0.0109
 30
0.1015
 70
192
 0
VERTEX
 8
GRASS_20
 10
0.0384
 20
0.0016
 30
0.1415
 70
192
 0
VERTEX
 8
GRASS_20
 10
0.0474
 20
0.0176
 30
0.1646
 70
192
 0
VERTEX
 8
GRASS_20
 10
0.0535
 20
0.0286
 30
0.1724
 70
192
 0
VERTEX
 8
GRASS_20
 10
0.0671
 20
0.0529
 30
0.1681
 70
192
 0
VERTEX
 8
GRASS_20
 10
0.0241
 20
-0.0125
 30
0.0429
 70
192
 0
VERTEX
 8
GRASS_20
 10
0.0317
 20
-0.0217
 30
0.0429
 70
192
 0
VERTEX
 8
GRASS_20
 10
0.0313
 20
-0.0211
 30
-0.0018
 70
192
 0
VERTEX
 8
GRASS_20
 10
0.0246
 20
-0.0131
 30
-0.0018
 70
192
 0
VERTEX
 8
GRASS_20
 10
0.0239
 20
-0.0122
 30
0.0734
 70
192
 0
VERTEX
 8
GRASS_20
 10
0.032
 20
-0.022
 30
0.0734
 70
192
 0
VERTEX
 8
GRASS_20
 10
0.0259
 20
-0.008
 30
0.1042
 70
192
 0
VERTEX
 8
GRASS_20
 10
0.0344
 20
-0.0183
 30
0.1042
 70
192
 0
VERTEX
 8
GRASS_20
 10
0.0331
 20
0.0049
 30
0.1454
 70
192
 0
VERTEX
 8
GRASS_20
 10
0.0416
 20
-0.0054
 30
0.1454
 70
192
 0
VERTEX
 8
GRASS_20
 10
0.0434
 20
0.0217
 30
0.1681
 70
192
 0
VERTEX
 8
GRASS_20
 10
0.0509
 20
0.0127
 30
0.1681
 70
192
 0
VERTEX
 8
GRASS_20
 10
0.0511
 20
0.0318
 30
0.1745
 70
192
 0
VERTEX
 8
GRASS_20
 10
0.0562
 20
0.0257
 30
0.1745
 70
192
 0
VERTEX
 8
GRASS_20
 10
0.0668
 20
0.0534
 30
0.1681
 70
192
 0
VERTEX
 8
GRASS_20
 10
0.0676
 20
0.0524
 30
0.1681
 70
192
 0
VERTEX
 8
GRASS_20
 10
0.0703
 20
0.0585
 30
0.1612
 70
192
 0
VERTEX
 8
GRASS_20
 10
0.0285
 20
-0.0161
 30
0.0429
 70
192
 0
VERTEX
 8
GRASS_20
 10
0.0279
 20
-0.0171
 30
-0.0018
 70
192
 0
VERTEX
 8
GRASS_20
 10
0.0289
 20
-0.0154
 30
0.0734
 70
192
 0
VERTEX
 8
GRASS_20
 10
0.0314
 20
-0.0109
 30
0.1015
 70
192
 0
VERTEX
 8
GRASS_20
 10
0.0384
 20
0.0016
 30
0.1415
 70
192
 0
VERTEX
 8
GRASS_20
 10
0.0474
 20
0.0176
 30
0.1646
 70
192
 0
VERTEX
 8
GRASS_20
 10
0.0535
 20
0.0286
 30
0.1724
 70
192
 0
VERTEX
 8
GRASS_20
 10
0.0671
 20
0.0529
 30
0.1681
 70
192
 0
VERTEX
 8
GRASS_20
 10
0.004
 20
-0.021
 30
0.0396
 70
192
 0
VERTEX
 8
GRASS_20
 10
0.0109
 20
-0.0176
 30
0.0409
 70
192
 0
VERTEX
 8
GRASS_20
 10
0.016
 20
-0.0189
 30
-0.0018
 70
192
 0
VERTEX
 8
GRASS_20
 10
0.0099
 20
-0.0219
 30
-0.0018
 70
192
 0
VERTEX
 8
GRASS_20
 10
-0.0033
 20
-0.0176
 30
0.0635
 70
192
 0
VERTEX
 8
GRASS_20
 10
0.0041
 20
-0.0139
 30
0.0649
 70
192
 0
VERTEX
 8
GRASS_20
 10
-0.0212
 20
-0.0054
 30
0.1058
 70
192
 0
VERTEX
 8
GRASS_20
 10
-0.0138
 20
-0.0012
 30
0.1076
 70
192
 0
VERTEX
 8
GRASS_20
 10
-0.0422
 20
0.0096
 30
0.1337
 70
192
 0
VERTEX
 8
GRASS_20
 10
-0.0348
 20
0.0137
 30
0.1354
 70
192
 0
VERTEX
 8
GRASS_20
 10
-0.0617
 20
0.0243
 30
0.1592
 70
192
 0
VERTEX
 8
GRASS_20
 10
-0.0552
 20
0.0279
 30
0.1608
 70
192
 0
VERTEX
 8
GRASS_20
 10
-0.0742
 20
0.0356
 30
0.1712
 70
192
 0
VERTEX
 8
GRASS_20
 10
-0.0698
 20
0.0381
 30
0.1722
 70
192
 0
VERTEX
 8
GRASS_20
 10
-0.0944
 20
0.0566
 30
0.1767
 70
192
 0
VERTEX
 8
GRASS_20
 10
-0.0937
 20
0.057
 30
0.1769
 70
192
 0
VERTEX
 8
GRASS_20
 10
-0.1013
 20
0.0633
 30
0.1752
 70
192
 0
VERTEX
 8
GRASS_20
 10
0.0068
 20
-0.0186
 30
0.0397
 70
192
 0
VERTEX
 8
GRASS_20
 10
0.013
 20
-0.0204
 30
-0.0018
 70
192
 0
VERTEX
 8
GRASS_20
 10
-0.0007
 20
-0.0145
 30
0.0632
 70
192
 0
VERTEX
 8
GRASS_20
 10
-0.0188
 20
-0.0018
 30
0.1046
 70
192
 0
VERTEX
 8
GRASS_20
 10
-0.0393
 20
0.0128
 30
0.1318
 70
192
 0
VERTEX
 8
GRASS_20
 10
-0.059
 20
0.0269
 30
0.1582
 70
192
 0
VERTEX
 8
GRASS_20
 10
-0.0717
 20
0.0368
 30
0.1701
 70
192
 0
VERTEX
 8
GRASS_20
 10
-0.094
 20
0.0568
 30
0.1768
 70
192
 0
VERTEX
 8
GRASS_20
 10
0.004
 20
-0.021
 30
0.0396
 70
192
 0
VERTEX
 8
GRASS_20
 10
0.0109
 20
-0.0176
 30
0.0409
 70
192
 0
VERTEX
 8
GRASS_20
 10
0.016
 20
-0.0189
 30
-0.0018
 70
192
 0
VERTEX
 8
GRASS_20
 10
0.0099
 20
-0.0219
 30
-0.0018
 70
192
 0
VERTEX
 8
GRASS_20
 10
-0.0033
 20
-0.0176
 30
0.0635
 70
192
 0
VERTEX
 8
GRASS_20
 10
0.0041
 20
-0.0139
 30
0.0649
 70
192
 0
VERTEX
 8
GRASS_20
 10
-0.0212
 20
-0.0054
 30
0.1058
 70
192
 0
VERTEX
 8
GRASS_20
 10
-0.0138
 20
-0.0012
 30
0.1076
 70
192
 0
VERTEX
 8
GRASS_20
 10
-0.0422
 20
0.0096
 30
0.1337
 70
192
 0
VERTEX
 8
GRASS_20
 10
-0.0348
 20
0.0137
 30
0.1354
 70
192
 0
VERTEX
 8
GRASS_20
 10
-0.0617
 20
0.0243
 30
0.1592
 70
192
 0
VERTEX
 8
GRASS_20
 10
-0.0552
 20
0.0279
 30
0.1608
 70
192
 0
VERTEX
 8
GRASS_20
 10
-0.0742
 20
0.0356
 30
0.1712
 70
192
 0
VERTEX
 8
GRASS_20
 10
-0.0698
 20
0.0381
 30
0.1722
 70
192
 0
VERTEX
 8
GRASS_20
 10
-0.0944
 20
0.0566
 30
0.1767
 70
192
 0
VERTEX
 8
GRASS_20
 10
-0.0937
 20
0.057
 30
0.1769
 70
192
 0
VERTEX
 8
GRASS_20
 10
-0.1013
 20
0.0633
 30
0.1752
 70
192
 0
VERTEX
 8
GRASS_20
 10
0.0068
 20
-0.0186
 30
0.0397
 70
192
 0
VERTEX
 8
GRASS_20
 10
0.013
 20
-0.0204
 30
-0.0018
 70
192
 0
VERTEX
 8
GRASS_20
 10
-0.0007
 20
-0.0145
 30
0.0632
 70
192
 0
VERTEX
 8
GRASS_20
 10
-0.0188
 20
-0.0018
 30
0.1046
 70
192
 0
VERTEX
 8
GRASS_20
 10
-0.0393
 20
0.0128
 30
0.1318
 70
192
 0
VERTEX
 8
GRASS_20
 10
-0.059
 20
0.0269
 30
0.1582
 70
192
 0
VERTEX
 8
GRASS_20
 10
-0.0717
 20
0.0368
 30
0.1701
 70
192
 0
VERTEX
 8
GRASS_20
 10
-0.094
 20
0.0568
 30
0.1768
 70
192
 0
VERTEX
 8
GRASS_20
 10
0.0223
 20
0.0252
 30
-0.0382
 70
192
 0
VERTEX
 8
GRASS_20
 10
0.0113
 20
0.0159
 30
-0.0382
 70
192
 0
VERTEX
 8
GRASS_20
 10
-0.0141
 20
0.0268
 30
-0.062
 70
192
 0
VERTEX
 8
GRASS_20
 10
-0.009
 20
0.0152
 30
-0.062
 70
192
 0
VERTEX
 8
GRASS_20
 10
0.0148
 20
-0.0103
 30
-0.0018
 70
192
 0
VERTEX
 8
GRASS_20
 10
0.0286
 20
-0.0174
 30
-0.0018
 70
192
 0
VERTEX
 8
GRASS_20
 10
0.017
 20
-0.0051
 30
0.0323
 70
192
 0
VERTEX
 8
GRASS_20
 10
0.0315
 20
-0.0125
 30
0.0323
 70
192
 0
VERTEX
 8
GRASS_20
 10
0.0255
 20
0.0115
 30
0.0797
 70
192
 0
VERTEX
 8
GRASS_20
 10
0.04
 20
0.0041
 30
0.0797
 70
192
 0
VERTEX
 8
GRASS_20
 10
0.0379
 20
0.0334
 30
0.1058
 70
192
 0
VERTEX
 8
GRASS_20
 10
0.0505
 20
0.0269
 30
0.1058
 70
192
 0
VERTEX
 8
GRASS_20
 10
0.0474
 20
0.0472
 30
0.1131
 70
192
 0
VERTEX
 8
GRASS_20
 10
0.0561
 20
0.0427
 30
0.1131
 70
192
 0
VERTEX
 8
GRASS_20
 10
0.067
 20
0.0763
 30
0.1058
 70
192
 0
VERTEX
 8
GRASS_20
 10
0.0683
 20
0.0756
 30
0.1058
 70
192
 0
VERTEX
 8
GRASS_20
 10
0.0713
 20
0.0832
 30
0.0978
 70
192
 0
VERTEX
 8
GRASS_20
 10
0.0178
 20
0.0195
 30
-0.0382
 70
192
 0
VERTEX
 8
GRASS_20
 10
-0.0115
 20
0.021
 30
-0.062
 70
192
 0
VERTEX
 8
GRASS_20
 10
0.0228
 20
-0.0116
 30
-0.0018
 70
192
 0
VERTEX
 8
GRASS_20
 10
0.0257
 20
-0.0059
 30
0.0292
 70
192
 0
VERTEX
 8
GRASS_20
 10
0.0339
 20
0.0101
 30
0.0752
 70
192
 0
VERTEX
 8
GRASS_20
 10
0.0444
 20
0.0307
 30
0.1018
 70
192
 0
VERTEX
 8
GRASS_20
 10
0.0517
 20
0.0448
 30
0.1107
 70
192
 0
VERTEX
 8
GRASS_20
 10
0.0676
 20
0.076
 30
0.1058
 70
192
 0
VERTEX
 8
GRASS_20
 10
0.0223
 20
0.0252
 30
-0.0382
 70
192
 0
VERTEX
 8
GRASS_20
 10
0.0113
 20
0.0159
 30
-0.0382
 70
192
 0
VERTEX
 8
GRASS_20
 10
-0.0141
 20
0.0268
 30
-0.062
 70
192
 0
VERTEX
 8
GRASS_20
 10
-0.009
 20
0.0152
 30
-0.062
 70
192
 0
VERTEX
 8
GRASS_20
 10
0.0148
 20
-0.0103
 30
-0.0018
 70
192
 0
VERTEX
 8
GRASS_20
 10
0.0286
 20
-0.0174
 30
-0.0018
 70
192
 0
VERTEX
 8
GRASS_20
 10
0.017
 20
-0.0051
 30
0.0323
 70
192
 0
VERTEX
 8
GRASS_20
 10
0.0315
 20
-0.0125
 30
0.0323
 70
192
 0
VERTEX
 8
GRASS_20
 10
0.0255
 20
0.0115
 30
0.0797
 70
192
 0
VERTEX
 8
GRASS_20
 10
0.04
 20
0.0041
 30
0.0797
 70
192
 0
VERTEX
 8
GRASS_20
 10
0.0379
 20
0.0334
 30
0.1058
 70
192
 0
VERTEX
 8
GRASS_20
 10
0.0505
 20
0.0269
 30
0.1058
 70
192
 0
VERTEX
 8
GRASS_20
 10
0.0474
 20
0.0472
 30
0.1131
 70
192
 0
VERTEX
 8
GRASS_20
 10
0.0561
 20
0.0427
 30
0.1131
 70
192
 0
VERTEX
 8
GRASS_20
 10
0.067
 20
0.0763
 30
0.1058
 70
192
 0
VERTEX
 8
GRASS_20
 10
0.0683
 20
0.0756
 30
0.1058
 70
192
 0
VERTEX
 8
GRASS_20
 10
0.0713
 20
0.0832
 30
0.0978
 70
192
 0
VERTEX
 8
GRASS_20
 10
0.0178
 20
0.0195
 30
-0.0382
 70
192
 0
VERTEX
 8
GRASS_20
 10
-0.0115
 20
0.021
 30
-0.062
 70
192
 0
VERTEX
 8
GRASS_20
 10
0.0228
 20
-0.0116
 30
-0.0018
 70
192
 0
VERTEX
 8
GRASS_20
 10
0.0257
 20
-0.0059
 30
0.0292
 70
192
 0
VERTEX
 8
GRASS_20
 10
0.0339
 20
0.0101
 30
0.0752
 70
192
 0
VERTEX
 8
GRASS_20
 10
0.0444
 20
0.0307
 30
0.1018
 70
192
 0
VERTEX
 8
GRASS_20
 10
0.0517
 20
0.0448
 30
0.1107
 70
192
 0
VERTEX
 8
GRASS_20
 10
0.0676
 20
0.076
 30
0.1058
 70
192
 0
VERTEX
 8
GRASS_20
 10
0.0386
 20
-0.0439
 30
0.0327
 70
192
 0
VERTEX
 8
GRASS_20
 10
0.0388
 20
-0.052
 30
0.0327
 70
192
 0
VERTEX
 8
GRASS_20
 10
0.0382
 20
-0.0514
 30
-0.0018
 70
192
 0
VERTEX
 8
GRASS_20
 10
0.038
 20
-0.0442
 30
-0.0018
 70
192
 0
VERTEX
 8
GRASS_20
 10
0.0397
 20
-0.0438
 30
0.0541
 70
192
 0
VERTEX
 8
GRASS_20
 10
0.0399
 20
-0.0526
 30
0.0541
 70
192
 0
VERTEX
 8
GRASS_20
 10
0.0453
 20
-0.045
 30
0.0834
 70
192
 0
VERTEX
 8
GRASS_20
 10
0.0455
 20
-0.0541
 30
0.0834
 70
192
 0
VERTEX
 8
GRASS_20
 10
0.0529
 20
-0.0468
 30
0.1146
 70
192
 0
VERTEX
 8
GRASS_20
 10
0.0531
 20
-0.056
 30
0.1146
 70
192
 0
VERTEX
 8
GRASS_20
 10
0.0609
 20
-0.0493
 30
0.1436
 70
192
 0
VERTEX
 8
GRASS_20
 10
0.0611
 20
-0.0573
 30
0.1436
 70
192
 0
VERTEX
 8
GRASS_20
 10
0.0694
 20
-0.0526
 30
0.1593
 70
192
 0
VERTEX
 8
GRASS_20
 10
0.0695
 20
-0.0581
 30
0.1593
 70
192
 0
VERTEX
 8
GRASS_20
 10
0.0911
 20
-0.0601
 30
0.1752
 70
192
 0
VERTEX
 8
GRASS_20
 10
0.0911
 20
-0.061
 30
0.1752
 70
192
 0
VERTEX
 8
GRASS_20
 10
0.0956
 20
-0.0616
 30
0.1743
 70
192
 0
VERTEX
 8
GRASS_20
 10
0.0397
 20
-0.0482
 30
0.0324
 70
192
 0
VERTEX
 8
GRASS_20
 10
0.0381
 20
-0.0478
 30
-0.0018
 70
192
 0
VERTEX
 8
GRASS_20
 10
0.0415
 20
-0.0486
 30
0.0536
 70
192
 0
VERTEX
 8
GRASS_20
 10
0.0479
 20
-0.0502
 30
0.0826
 70
192
 0
VERTEX
 8
GRASS_20
 10
0.0554
 20
-0.0519
 30
0.1131
 70
192
 0
VERTEX
 8
GRASS_20
 10
0.0626
 20
-0.0537
 30
0.1426
 70
192
 0
VERTEX
 8
GRASS_20
 10
0.07
 20
-0.0554
 30
0.158
 70
192
 0
VERTEX
 8
GRASS_20
 10
0.0911
 20
-0.0605
 30
0.1752
 70
192
 0
VERTEX
 8
GRASS_20
 10
0.0386
 20
-0.0439
 30
0.0327
 70
192
 0
VERTEX
 8
GRASS_20
 10
0.0388
 20
-0.052
 30
0.0327
 70
192
 0
VERTEX
 8
GRASS_20
 10
0.0382
 20
-0.0514
 30
-0.0018
 70
192
 0
VERTEX
 8
GRASS_20
 10
0.038
 20
-0.0442
 30
-0.0018
 70
192
 0
VERTEX
 8
GRASS_20
 10
0.0397
 20
-0.0438
 30
0.0541
 70
192
 0
VERTEX
 8
GRASS_20
 10
0.0399
 20
-0.0526
 30
0.0541
 70
192
 0
VERTEX
 8
GRASS_20
 10
0.0453
 20
-0.045
 30
0.0834
 70
192
 0
VERTEX
 8
GRASS_20
 10
0.0455
 20
-0.0541
 30
0.0834
 70
192
 0
VERTEX
 8
GRASS_20
 10
0.0529
 20
-0.0468
 30
0.1146
 70
192
 0
VERTEX
 8
GRASS_20
 10
0.0531
 20
-0.056
 30
0.1146
 70
192
 0
VERTEX
 8
GRASS_20
 10
0.0609
 20
-0.0493
 30
0.1436
 70
192
 0
VERTEX
 8
GRASS_20
 10
0.0611
 20
-0.0573
 30
0.1436
 70
192
 0
VERTEX
 8
GRASS_20
 10
0.0694
 20
-0.0526
 30
0.1593
 70
192
 0
VERTEX
 8
GRASS_20
 10
0.0695
 20
-0.0581
 30
0.1593
 70
192
 0
VERTEX
 8
GRASS_20
 10
0.0911
 20
-0.0601
 30
0.1752
 70
192
 0
VERTEX
 8
GRASS_20
 10
0.0911
 20
-0.061
 30
0.1752
 70
192
 0
VERTEX
 8
GRASS_20
 10
0.0956
 20
-0.0616
 30
0.1743
 70
192
 0
VERTEX
 8
GRASS_20
 10
0.0397
 20
-0.0482
 30
0.0324
 70
192
 0
VERTEX
 8
GRASS_20
 10
0.0381
 20
-0.0478
 30
-0.0018
 70
192
 0
VERTEX
 8
GRASS_20
 10
0.0415
 20
-0.0486
 30
0.0536
 70
192
 0
VERTEX
 8
GRASS_20
 10
0.0479
 20
-0.0502
 30
0.0826
 70
192
 0
VERTEX
 8
GRASS_20
 10
0.0554
 20
-0.0519
 30
0.1131
 70
192
 0
VERTEX
 8
GRASS_20
 10
0.0626
 20
-0.0537
 30
0.1426
 70
192
 0
VERTEX
 8
GRASS_20
 10
0.07
 20
-0.0554
 30
0.158
 70
192
 0
VERTEX
 8
GRASS_20
 10
0.0911
 20
-0.0605
 30
0.1752
 70
192
 0
VERTEX
 8
GRASS_20
 10
0.0028
 20
-0.009
 30
0.0497
 70
192
 0
VERTEX
 8
GRASS_20
 10
0.0118
 20
-0.0168
 30
0.0497
 70
192
 0
VERTEX
 8
GRASS_20
 10
0.0112
 20
-0.0163
 30
-0.0018
 70
192
 0
VERTEX
 8
GRASS_20
 10
0.0033
 20
-0.0095
 30
-0.0018
 70
192
 0
VERTEX
 8
GRASS_20
 10
0.0025
 20
-0.0087
 30
0.0846
 70
192
 0
VERTEX
 8
GRASS_20
 10
0.0121
 20
-0.017
 30
0.0846
 70
192
 0
VERTEX
 8
GRASS_20
 10
0.0038
 20
-0.0043
 30
0.1201
 70
192
 0
VERTEX
 8
GRASS_20
 10
0.0139
 20
-0.013
 30
0.1201
 70
192
 0
VERTEX
 8
GRASS_20
 10
0.0087
 20
0.0096
 30
0.1675
 70
192
 0
VERTEX
 8
GRASS_20
 10
0.0188
 20
0.001
 30
0.1675
 70
192
 0
VERTEX
 8
GRASS_20
 10
0.0161
 20
0.0279
 30
0.1936
 70
192
 0
VERTEX
 8
GRASS_20
 10
0.0249
 20
0.0203
 30
0.1936
 70
192
 0
VERTEX
 8
GRASS_20
 10
0.0219
 20
0.0392
 30
0.201
 70
192
 0
VERTEX
 8
GRASS_20
 10
0.028
 20
0.034
 30
0.201
 70
192
 0
VERTEX
 8
GRASS_20
 10
0.0338
 20
0.0631
 30
0.1936
 70
192
 0
VERTEX
 8
GRASS_20
 10
0.0348
 20
0.0623
 30
0.1936
 70
192
 0
VERTEX
 8
GRASS_20
 10
0.0364
 20
0.0688
 30
0.1856
 70
192
 0
VERTEX
 8
GRASS_20
 10
0.0077
 20
-0.0118
 30
0.0497
 70
192
 0
VERTEX
 8
GRASS_20
 10
0.0073
 20
-0.0129
 30
-0.0018
 70
192
 0
VERTEX
 8
GRASS_20
 10
0.0079
 20
-0.011
 30
0.0846
 70
192
 0
VERTEX
 8
GRASS_20
 10
0.0096
 20
-0.0062
 30
0.117
 70
192
 0
VERTEX
 8
GRASS_20
 10
0.0145
 20
0.0073
 30
0.1631
 70
192
 0
VERTEX
 8
GRASS_20
 10
0.0207
 20
0.0246
 30
0.1896
 70
192
 0
VERTEX
 8
GRASS_20
 10
0.0249
 20
0.0365
 30
0.1986
 70
192
 0
VERTEX
 8
GRASS_20
 10
0.0343
 20
0.0627
 30
0.1936
 70
192
 0
VERTEX
 8
GRASS_20
 10
0.0028
 20
-0.009
 30
0.0497
 70
192
 0
VERTEX
 8
GRASS_20
 10
0.0118
 20
-0.0168
 30
0.0497
 70
192
 0
VERTEX
 8
GRASS_20
 10
0.0112
 20
-0.0163
 30
-0.0018
 70
192
 0
VERTEX
 8
GRASS_20
 10
0.0033
 20
-0.0095
 30
-0.0018
 70
192
 0
VERTEX
 8
GRASS_20
 10
0.0025
 20
-0.0087
 30
0.0846
 70
192
 0
VERTEX
 8
GRASS_20
 10
0.0121
 20
-0.017
 30
0.0846
 70
192
 0
VERTEX
 8
GRASS_20
 10
0.0038
 20
-0.0043
 30
0.1201
 70
192
 0
VERTEX
 8
GRASS_20
 10
0.0139
 20
-0.013
 30
0.1201
 70
192
 0
VERTEX
 8
GRASS_20
 10
0.0087
 20
0.0096
 30
0.1675
 70
192
 0
VERTEX
 8
GRASS_20
 10
0.0188
 20
0.001
 30
0.1675
 70
192
 0
VERTEX
 8
GRASS_20
 10
0.0161
 20
0.0279
 30
0.1936
 70
192
 0
VERTEX
 8
GRASS_20
 10
0.0249
 20
0.0203
 30
0.1936
 70
192
 0
VERTEX
 8
GRASS_20
 10
0.0219
 20
0.0392
 30
0.201
 70
192
 0
VERTEX
 8
GRASS_20
 10
0.028
 20
0.034
 30
0.201
 70
192
 0
VERTEX
 8
GRASS_20
 10
0.0338
 20
0.0631
 30
0.1936
 70
192
 0
VERTEX
 8
GRASS_20
 10
0.0348
 20
0.0623
 30
0.1936
 70
192
 0
VERTEX
 8
GRASS_20
 10
0.0364
 20
0.0688
 30
0.1856
 70
192
 0
VERTEX
 8
GRASS_20
 10
0.0077
 20
-0.0118
 30
0.0497
 70
192
 0
VERTEX
 8
GRASS_20
 10
0.0073
 20
-0.0129
 30
-0.0018
 70
192
 0
VERTEX
 8
GRASS_20
 10
0.0079
 20
-0.011
 30
0.0846
 70
192
 0
VERTEX
 8
GRASS_20
 10
0.0096
 20
-0.0062
 30
0.117
 70
192
 0
VERTEX
 8
GRASS_20
 10
0.0145
 20
0.0073
 30
0.1631
 70
192
 0
VERTEX
 8
GRASS_20
 10
0.0207
 20
0.0246
 30
0.1896
 70
192
 0
VERTEX
 8
GRASS_20
 10
0.0249
 20
0.0365
 30
0.1986
 70
192
 0
VERTEX
 8
GRASS_20
 10
0.0343
 20
0.0627
 30
0.1936
 70
192
 0
VERTEX
 8
GRASS_20
 10
0.0287
 20
-0.0296
 30
0.0442
 70
192
 0
VERTEX
 8
GRASS_20
 10
0.0309
 20
-0.037
 30
0.0457
 70
192
 0
VERTEX
 8
GRASS_20
 10
0.0287
 20
-0.0418
 30
-0.0018
 70
192
 0
VERTEX
 8
GRASS_20
 10
0.0268
 20
-0.0353
 30
-0.0018
 70
192
 0
VERTEX
 8
GRASS_20
 10
0.0332
 20
-0.0229
 30
0.0708
 70
192
 0
VERTEX
 8
GRASS_20
 10
0.0356
 20
-0.0309
 30
0.0723
 70
192
 0
VERTEX
 8
GRASS_20
 10
0.0482
 20
-0.0073
 30
0.1179
 70
192
 0
VERTEX
 8
GRASS_20
 10
0.0511
 20
-0.0153
 30
0.1198
 70
192
 0
VERTEX
 8
GRASS_20
 10
0.0665
 20
0.0108
 30
0.1488
 70
192
 0
VERTEX
 8
GRASS_20
 10
0.0693
 20
0.0028
 30
0.1508
 70
192
 0
VERTEX
 8
GRASS_20
 10
0.0843
 20
0.0277
 30
0.1772
 70
192
 0
VERTEX
 8
GRASS_20
 10
0.0868
 20
0.0206
 30
0.1789
 70
192
 0
VERTEX
 8
GRASS_20
 10
0.0975
 20
0.0381
 30
0.1905
 70
192
 0
VERTEX
 8
GRASS_20
 10
0.0992
 20
0.0333
 30
0.1917
 70
192
 0
VERTEX
 8
GRASS_20
 10
0.1215
 20
0.0545
 30
0.1967
 70
192
 0
VERTEX
 8
GRASS_20
 10
0.1218
 20
0.0537
 30
0.1969
 70
192
 0
VERTEX
 8
GRASS_20
 10
0.1293
 20
0.0602
 30
0.195
 70
192
 0
VERTEX
 8
GRASS_20
 10
0.0306
 20
-0.0327
 30
0.0443
 70
192
 0
VERTEX
 8
GRASS_20
 10
0.0278
 20
-0.0385
 30
-0.0018
 70
192
 0
VERTEX
 8
GRASS_20
 10
0.0358
 20
-0.0261
 30
0.0705
 70
192
 0
VERTEX
 8
GRASS_20
 10
0.0514
 20
-0.0103
 30
0.1165
 70
192
 0
VERTEX
 8
GRASS_20
 10
0.0692
 20
0.0074
 30
0.1468
 70
192
 0
VERTEX
 8
GRASS_20
 10
0.0864
 20
0.0246
 30
0.1761
 70
192
 0
VERTEX
 8
GRASS_20
 10
0.0982
 20
0.0354
 30
0.1894
 70
192
 0
VERTEX
 8
GRASS_20
 10
0.1216
 20
0.0541
 30
0.1968
 70
192
 0
VERTEX
 8
GRASS_20
 10
0.0287
 20
-0.0296
 30
0.0442
 70
192
 0
VERTEX
 8
GRASS_20
 10
0.0309
 20
-0.037
 30
0.0457
 70
192
 0
VERTEX
 8
GRASS_20
 10
0.0287
 20
-0.0418
 30
-0.0018
 70
192
 0
VERTEX
 8
GRASS_20
 10
0.0268
 20
-0.0353
 30
-0.0018
 70
192
 0
VERTEX
 8
GRASS_20
 10
0.0332
 20
-0.0229
 30
0.0708
 70
192
 0
VERTEX
 8
GRASS_20
 10
0.0356
 20
-0.0309
 30
0.0723
 70
192
 0
VERTEX
 8
GRASS_20
 10
0.0482
 20
-0.0073
 30
0.1179
 70
192
 0
VERTEX
 8
GRASS_20
 10
0.0511
 20
-0.0153
 30
0.1198
 70
192
 0
VERTEX
 8
GRASS_20
 10
0.0665
 20
0.0108
 30
0.1488
 70
192
 0
VERTEX
 8
GRASS_20
 10
0.0693
 20
0.0028
 30
0.1508
 70
192
 0
VERTEX
 8
GRASS_20
 10
0.0843
 20
0.0277
 30
0.1772
 70
192
 0
VERTEX
 8
GRASS_20
 10
0.0868
 20
0.0206
 30
0.1789
 70
192
 0
VERTEX
 8
GRASS_20
 10
0.0975
 20
0.0381
 30
0.1905
 70
192
 0
VERTEX
 8
GRASS_20
 10
0.0992
 20
0.0333
 30
0.1917
 70
192
 0
VERTEX
 8
GRASS_20
 10
0.1215
 20
0.0545
 30
0.1967
 70
192
 0
VERTEX
 8
GRASS_20
 10
0.1218
 20
0.0537
 30
0.1969
 70
192
 0
VERTEX
 8
GRASS_20
 10
0.1293
 20
0.0602
 30
0.195
 70
192
 0
VERTEX
 8
GRASS_20
 10
0.0306
 20
-0.0327
 30
0.0443
 70
192
 0
VERTEX
 8
GRASS_20
 10
0.0278
 20
-0.0385
 30
-0.0018
 70
192
 0
VERTEX
 8
GRASS_20
 10
0.0358
 20
-0.0261
 30
0.0705
 70
192
 0
VERTEX
 8
GRASS_20
 10
0.0514
 20
-0.0103
 30
0.1165
 70
192
 0
VERTEX
 8
GRASS_20
 10
0.0692
 20
0.0074
 30
0.1468
 70
192
 0
VERTEX
 8
GRASS_20
 10
0.0864
 20
0.0246
 30
0.1761
 70
192
 0
VERTEX
 8
GRASS_20
 10
0.0982
 20
0.0354
 30
0.1894
 70
192
 0
VERTEX
 8
GRASS_20
 10
0.1216
 20
0.0541
 30
0.1968
 70
192
 0
VERTEX
 8
GRASS_20
 10
0.0223
 20
0.0252
 30
-0.0382
 70
192
 0
VERTEX
 8
GRASS_20
 10
0.0113
 20
0.0159
 30
-0.0382
 70
192
 0
VERTEX
 8
GRASS_20
 10
-0.0141
 20
0.0268
 30
-0.062
 70
192
 0
VERTEX
 8
GRASS_20
 10
-0.009
 20
0.0152
 30
-0.062
 70
192
 0
VERTEX
 8
GRASS_20
 10
0.0466
 20
-0.0346
 30
-0.0018
 70
192
 0
VERTEX
 8
GRASS_20
 10
0.0347
 20
-0.0446
 30
-0.0018
 70
192
 0
VERTEX
 8
GRASS_20
 10
0.0505
 20
-0.0387
 30
0.0323
 70
192
 0
VERTEX
 8
GRASS_20
 10
0.0381
 20
-0.0492
 30
0.0323
 70
192
 0
VERTEX
 8
GRASS_20
 10
0.0625
 20
-0.053
 30
0.0797
 70
192
 0
VERTEX
 8
GRASS_20
 10
0.0501
 20
-0.0634
 30
0.0797
 70
192
 0
VERTEX
 8
GRASS_20
 10
0.0779
 20
-0.0729
 30
0.1058
 70
192
 0
VERTEX
 8
GRASS_20
 10
0.067
 20
-0.082
 30
0.1058
 70
192
 0
VERTEX
 8
GRASS_20
 10
0.0869
 20
-0.0871
 30
0.1131
 70
192
 0
VERTEX
 8
GRASS_20
 10
0.0794
 20
-0.0933
 30
0.1131
 70
192
 0
VERTEX
 8
GRASS_20
 10
0.1062
 20
-0.1164
 30
0.1058
 70
192
 0
VERTEX
 8
GRASS_20
 10
0.105
 20
-0.1174
 30
0.1058
 70
192
 0
VERTEX
 8
GRASS_20
 10
0.1108
 20
-0.123
 30
0.0978
 70
192
 0
VERTEX
 8
GRASS_20
 10
0.0178
 20
0.0195
 30
-0.0382
 70
192
 0
VERTEX
 8
GRASS_20
 10
-0.0115
 20
0.021
 30
-0.062
 70
192
 0
VERTEX
 8
GRASS_20
 10
0.0422
 20
-0.0415
 30
-0.0018
 70
192
 0
VERTEX
 8
GRASS_20
 10
0.0464
 20
-0.0464
 30
0.0292
 70
192
 0
VERTEX
 8
GRASS_20
 10
0.058
 20
-0.0602
 30
0.0752
 70
192
 0
VERTEX
 8
GRASS_20
 10
0.0728
 20
-0.0779
 30
0.1018
 70
192
 0
VERTEX
 8
GRASS_20
 10
0.0831
 20
-0.09
 30
0.1107
 70
192
 0
VERTEX
 8
GRASS_20
 10
0.1056
 20
-0.1168
 30
0.1058
 70
192
 0
VERTEX
 8
GRASS_20
 10
0.0223
 20
0.0252
 30
-0.0382
 70
192
 0
VERTEX
 8
GRASS_20
 10
0.0113
 20
0.0159
 30
-0.0382
 70
192
 0
VERTEX
 8
GRASS_20
 10
-0.0141
 20
0.0268
 30
-0.062
 70
192
 0
VERTEX
 8
GRASS_20
 10
-0.009
 20
0.0152
 30
-0.062
 70
192
 0
VERTEX
 8
GRASS_20
 10
0.0466
 20
-0.0346
 30
-0.0018
 70
192
 0
VERTEX
 8
GRASS_20
 10
0.0347
 20
-0.0446
 30
-0.0018
 70
192
 0
VERTEX
 8
GRASS_20
 10
0.0505
 20
-0.0387
 30
0.0323
 70
192
 0
VERTEX
 8
GRASS_20
 10
0.0381
 20
-0.0492
 30
0.0323
 70
192
 0
VERTEX
 8
GRASS_20
 10
0.0625
 20
-0.053
 30
0.0797
 70
192
 0
VERTEX
 8
GRASS_20
 10
0.0501
 20
-0.0634
 30
0.0797
 70
192
 0
VERTEX
 8
GRASS_20
 10
0.0779
 20
-0.0729
 30
0.1058
 70
192
 0
VERTEX
 8
GRASS_20
 10
0.067
 20
-0.082
 30
0.1058
 70
192
 0
VERTEX
 8
GRASS_20
 10
0.0869
 20
-0.0871
 30
0.1131
 70
192
 0
VERTEX
 8
GRASS_20
 10
0.0794
 20
-0.0933
 30
0.1131
 70
192
 0
VERTEX
 8
GRASS_20
 10
0.1062
 20
-0.1164
 30
0.1058
 70
192
 0
VERTEX
 8
GRASS_20
 10
0.105
 20
-0.1174
 30
0.1058
 70
192
 0
VERTEX
 8
GRASS_20
 10
0.1108
 20
-0.123
 30
0.0978
 70
192
 0
VERTEX
 8
GRASS_20
 10
0.0178
 20
0.0195
 30
-0.0382
 70
192
 0
VERTEX
 8
GRASS_20
 10
-0.0115
 20
0.021
 30
-0.062
 70
192
 0
VERTEX
 8
GRASS_20
 10
0.0422
 20
-0.0415
 30
-0.0018
 70
192
 0
VERTEX
 8
GRASS_20
 10
0.0464
 20
-0.0464
 30
0.0292
 70
192
 0
VERTEX
 8
GRASS_20
 10
0.058
 20
-0.0602
 30
0.0752
 70
192
 0
VERTEX
 8
GRASS_20
 10
0.0728
 20
-0.0779
 30
0.1018
 70
192
 0
VERTEX
 8
GRASS_20
 10
0.0831
 20
-0.09
 30
0.1107
 70
192
 0
VERTEX
 8
GRASS_20
 10
0.1056
 20
-0.1168
 30
0.1058
 70
192
 0
VERTEX
 8
GRASS_20
 10
0.0003
 20
-0.0599
 30
0.0327
 70
192
 0
VERTEX
 8
GRASS_20
 10
-0.0078
 20
-0.0587
 30
0.0327
 70
192
 0
VERTEX
 8
GRASS_20
 10
-0.007
 20
-0.0582
 30
-0.0018
 70
192
 0
VERTEX
 8
GRASS_20
 10
0.0001
 20
-0.0592
 30
-0.0018
 70
192
 0
VERTEX
 8
GRASS_20
 10
0.0002
 20
-0.061
 30
0.0541
 70
192
 0
VERTEX
 8
GRASS_20
 10
-0.0085
 20
-0.0597
 30
0.0541
 70
192
 0
VERTEX
 8
GRASS_20
 10
-0.0019
 20
-0.0663
 30
0.0834
 70
192
 0
VERTEX
 8
GRASS_20
 10
-0.011
 20
-0.065
 30
0.0834
 70
192
 0
VERTEX
 8
GRASS_20
 10
-0.005
 20
-0.0735
 30
0.1146
 70
192
 0
VERTEX
 8
GRASS_20
 10
-0.0141
 20
-0.0722
 30
0.1146
 70
192
 0
VERTEX
 8
GRASS_20
 10
-0.0087
 20
-0.0809
 30
0.1436
 70
192
 0
VERTEX
 8
GRASS_20
 10
-0.0167
 20
-0.0798
 30
0.1436
 70
192
 0
VERTEX
 8
GRASS_20
 10
-0.0134
 20
-0.0888
 30
0.1593
 70
192
 0
VERTEX
 8
GRASS_20
 10
-0.0189
 20
-0.088
 30
0.1593
 70
192
 0
VERTEX
 8
GRASS_20
 10
-0.0244
 20
-0.1089
 30
0.1752
 70
192
 0
VERTEX
 8
GRASS_20
 10
-0.0253
 20
-0.1088
 30
0.1752
 70
192
 0
VERTEX
 8
GRASS_20
 10
-0.0267
 20
-0.1132
 30
0.1743
 70
192
 0
VERTEX
 8
GRASS_20
 10
-0.0041
 20
-0.0602
 30
0.0324
 70
192
 0
VERTEX
 8
GRASS_20
 10
-0.0035
 20
-0.0587
 30
-0.0018
 70
192
 0
VERTEX
 8
GRASS_20
 10
-0.0048
 20
-0.062
 30
0.0536
 70
192
 0
VERTEX
 8
GRASS_20
 10
-0.0074
 20
-0.0681
 30
0.0826
 70
192
 0
VERTEX
 8
GRASS_20
 10
-0.0105
 20
-0.0751
 30
0.1131
 70
192
 0
VERTEX
 8
GRASS_20
 10
-0.0134
 20
-0.0819
 30
0.1426
 70
192
 0
VERTEX
 8
GRASS_20
 10
-0.0163
 20
-0.0889
 30
0.158
 70
192
 0
VERTEX
 8
GRASS_20
 10
-0.0249
 20
-0.1089
 30
0.1752
 70
192
 0
VERTEX
 8
GRASS_20
 10
0.0003
 20
-0.0599
 30
0.0327
 70
192
 0
VERTEX
 8
GRASS_20
 10
-0.0078
 20
-0.0587
 30
0.0327
 70
192
 0
VERTEX
 8
GRASS_20
 10
-0.007
 20
-0.0582
 30
-0.0018
 70
192
 0
VERTEX
 8
GRASS_20
 10
0.0001
 20
-0.0592
 30
-0.0018
 70
192
 0
VERTEX
 8
GRASS_20
 10
0.0002
 20
-0.061
 30
0.0541
 70
192
 0
VERTEX
 8
GRASS_20
 10
-0.0085
 20
-0.0597
 30
0.0541
 70
192
 0
VERTEX
 8
GRASS_20
 10
-0.0019
 20
-0.0663
 30
0.0834
 70
192
 0
VERTEX
 8
GRASS_20
 10
-0.011
 20
-0.065
 30
0.0834
 70
192
 0
VERTEX
 8
GRASS_20
 10
-0.005
 20
-0.0735
 30
0.1146
 70
192
 0
VERTEX
 8
GRASS_20
 10
-0.0141
 20
-0.0722
 30
0.1146
 70
192
 0
VERTEX
 8
GRASS_20
 10
-0.0087
 20
-0.0809
 30
0.1436
 70
192
 0
VERTEX
 8
GRASS_20
 10
-0.0167
 20
-0.0798
 30
0.1436
 70
192
 0
VERTEX
 8
GRASS_20
 10
-0.0134
 20
-0.0888
 30
0.1593
 70
192
 0
VERTEX
 8
GRASS_20
 10
-0.0189
 20
-0.088
 30
0.1593
 70
192
 0
VERTEX
 8
GRASS_20
 10
-0.0244
 20
-0.1089
 30
0.1752
 70
192
 0
VERTEX
 8
GRASS_20
 10
-0.0253
 20
-0.1088
 30
0.1752
 70
192
 0
VERTEX
 8
GRASS_20
 10
-0.0267
 20
-0.1132
 30
0.1743
 70
192
 0
VERTEX
 8
GRASS_20
 10
-0.0041
 20
-0.0602
 30
0.0324
 70
192
 0
VERTEX
 8
GRASS_20
 10
-0.0035
 20
-0.0587
 30
-0.0018
 70
192
 0
VERTEX
 8
GRASS_20
 10
-0.0048
 20
-0.062
 30
0.0536
 70
192
 0
VERTEX
 8
GRASS_20
 10
-0.0074
 20
-0.0681
 30
0.0826
 70
192
 0
VERTEX
 8
GRASS_20
 10
-0.0105
 20
-0.0751
 30
0.1131
 70
192
 0
VERTEX
 8
GRASS_20
 10
-0.0134
 20
-0.0819
 30
0.1426
 70
192
 0
VERTEX
 8
GRASS_20
 10
-0.0163
 20
-0.0889
 30
0.158
 70
192
 0
VERTEX
 8
GRASS_20
 10
-0.0249
 20
-0.1089
 30
0.1752
 70
192
 0
VERTEX
 8
GRASS_20
 10
0.0406
 20
-0.0304
 30
0.0497
 70
192
 0
VERTEX
 8
GRASS_20
 10
0.0315
 20
-0.038
 30
0.0497
 70
192
 0
VERTEX
 8
GRASS_20
 10
0.0321
 20
-0.0375
 30
-0.0018
 70
192
 0
VERTEX
 8
GRASS_20
 10
0.0401
 20
-0.0309
 30
-0.0018
 70
192
 0
VERTEX
 8
GRASS_20
 10
0.041
 20
-0.0301
 30
0.0846
 70
192
 0
VERTEX
 8
GRASS_20
 10
0.0312
 20
-0.0383
 30
0.0846
 70
192
 0
VERTEX
 8
GRASS_20
 10
0.0451
 20
-0.0321
 30
0.1201
 70
192
 0
VERTEX
 8
GRASS_20
 10
0.0349
 20
-0.0406
 30
0.1201
 70
192
 0
VERTEX
 8
GRASS_20
 10
0.0581
 20
-0.0394
 30
0.1675
 70
192
 0
VERTEX
 8
GRASS_20
 10
0.0478
 20
-0.0479
 30
0.1675
 70
192
 0
VERTEX
 8
GRASS_20
 10
0.0748
 20
-0.0497
 30
0.1936
 70
192
 0
VERTEX
 8
GRASS_20
 10
0.0658
 20
-0.0571
 30
0.1936
 70
192
 0
VERTEX
 8
GRASS_20
 10
0.085
 20
-0.0573
 30
0.201
 70
192
 0
VERTEX
 8
GRASS_20
 10
0.0788
 20
-0.0624
 30
0.201
 70
192
 0
VERTEX
 8
GRASS_20
 10
0.1066
 20
-0.073
 30
0.1936
 70
192
 0
VERTEX
 8
GRASS_20
 10
0.1056
 20
-0.0738
 30
0.1936
 70
192
 0
VERTEX
 8
GRASS_20
 10
0.1117
 20
-0.0766
 30
0.1856
 70
192
 0
VERTEX
 8
GRASS_20
 10
0.0371
 20
-0.0347
 30
0.0497
 70
192
 0
VERTEX
 8
GRASS_20
 10
0.0361
 20
-0.0342
 30
-0.0018
 70
192
 0
VERTEX
 8
GRASS_20
 10
0.0378
 20
-0.0351
 30
0.0846
 70
192
 0
VERTEX
 8
GRASS_20
 10
0.0423
 20
-0.0376
 30
0.117
 70
192
 0
VERTEX
 8
GRASS_20
 10
0.0547
 20
-0.0446
 30
0.1631
 70
192
 0
VERTEX
 8
GRASS_20
 10
0.0708
 20
-0.0536
 30
0.1896
 70
192
 0
VERTEX
 8
GRASS_20
 10
0.0818
 20
-0.0598
 30
0.1986
 70
192
 0
VERTEX
 8
GRASS_20
 10
0.1061
 20
-0.0734
 30
0.1936
 70
192
 0
VERTEX
 8
GRASS_20
 10
0.0406
 20
-0.0304
 30
0.0497
 70
192
 0
VERTEX
 8
GRASS_20
 10
0.0315
 20
-0.038
 30
0.0497
 70
192
 0
VERTEX
 8
GRASS_20
 10
0.0321
 20
-0.0375
 30
-0.0018
 70
192
 0
VERTEX
 8
GRASS_20
 10
0.0401
 20
-0.0309
 30
-0.0018
 70
192
 0
VERTEX
 8
GRASS_20
 10
0.041
 20
-0.0301
 30
0.0846
 70
192
 0
VERTEX
 8
GRASS_20
 10
0.0312
 20
-0.0383
 30
0.0846
 70
192
 0
VERTEX
 8
GRASS_20
 10
0.0451
 20
-0.0321
 30
0.1201
 70
192
 0
VERTEX
 8
GRASS_20
 10
0.0349
 20
-0.0406
 30
0.1201
 70
192
 0
VERTEX
 8
GRASS_20
 10
0.0581
 20
-0.0394
 30
0.1675
 70
192
 0
VERTEX
 8
GRASS_20
 10
0.0478
 20
-0.0479
 30
0.1675
 70
192
 0
VERTEX
 8
GRASS_20
 10
0.0748
 20
-0.0497
 30
0.1936
 70
192
 0
VERTEX
 8
GRASS_20
 10
0.0658
 20
-0.0571
 30
0.1936
 70
192
 0
VERTEX
 8
GRASS_20
 10
0.085
 20
-0.0573
 30
0.201
 70
192
 0
VERTEX
 8
GRASS_20
 10
0.0788
 20
-0.0624
 30
0.201
 70
192
 0
VERTEX
 8
GRASS_20
 10
0.1066
 20
-0.073
 30
0.1936
 70
192
 0
VERTEX
 8
GRASS_20
 10
0.1056
 20
-0.0738
 30
0.1936
 70
192
 0
VERTEX
 8
GRASS_20
 10
0.1117
 20
-0.0766
 30
0.1856
 70
192
 0
VERTEX
 8
GRASS_20
 10
0.0371
 20
-0.0347
 30
0.0497
 70
192
 0
VERTEX
 8
GRASS_20
 10
0.0361
 20
-0.0342
 30
-0.0018
 70
192
 0
VERTEX
 8
GRASS_20
 10
0.0378
 20
-0.0351
 30
0.0846
 70
192
 0
VERTEX
 8
GRASS_20
 10
0.0423
 20
-0.0376
 30
0.117
 70
192
 0
VERTEX
 8
GRASS_20
 10
0.0547
 20
-0.0446
 30
0.1631
 70
192
 0
VERTEX
 8
GRASS_20
 10
0.0708
 20
-0.0536
 30
0.1896
 70
192
 0
VERTEX
 8
GRASS_20
 10
0.0818
 20
-0.0598
 30
0.1986
 70
192
 0
VERTEX
 8
GRASS_20
 10
0.1061
 20
-0.0734
 30
0.1936
 70
192
 0
VERTEX
 8
GRASS_20
 10
0.0478
 20
-0.0141
 30
0.0442
 70
192
 0
VERTEX
 8
GRASS_20
 10
0.0385
 20
-0.019
 30
0.0457
 70
192
 0
VERTEX
 8
GRASS_20
 10
0.033
 20
-0.0172
 30
-0.0018
 70
192
 0
VERTEX
 8
GRASS_20
 10
0.0413
 20
-0.0129
 30
-0.0018
 70
192
 0
VERTEX
 8
GRASS_20
 10
0.0549
 20
-0.0189
 30
0.0708
 70
192
 0
VERTEX
 8
GRASS_20
 10
0.0448
 20
-0.0242
 30
0.0723
 70
192
 0
VERTEX
 8
GRASS_20
 10
0.0707
 20
-0.0361
 30
0.1179
 70
192
 0
VERTEX
 8
GRASS_20
 10
0.0605
 20
-0.042
 30
0.1198
 70
192
 0
VERTEX
 8
GRASS_20
 10
0.089
 20
-0.0572
 30
0.1488
 70
192
 0
VERTEX
 8
GRASS_20
 10
0.0788
 20
-0.0632
 30
0.1508
 70
192
 0
VERTEX
 8
GRASS_20
 10
0.1057
 20
-0.078
 30
0.1772
 70
192
 0
VERTEX
 8
GRASS_20
 10
0.0968
 20
-0.0832
 30
0.1789
 70
192
 0
VERTEX
 8
GRASS_20
 10
0.1157
 20
-0.094
 30
0.1905
 70
192
 0
VERTEX
 8
GRASS_20
 10
0.1095
 20
-0.0976
 30
0.1917
 70
192
 0
VERTEX
 8
GRASS_20
 10
0.1306
 20
-0.1237
 30
0.1967
 70
192
 0
VERTEX
 8
GRASS_20
 10
0.1296
 20
-0.1243
 30
0.1969
 70
192
 0
VERTEX
 8
GRASS_20
 10
0.136
 20
-0.1332
 30
0.195
 70
192
 0
VERTEX
 8
GRASS_20
 10
0.0436
 20
-0.0175
 30
0.0443
 70
192
 0
VERTEX
 8
GRASS_20
 10
0.0372
 20
-0.015
 30
-0.0018
 70
192
 0
VERTEX
 8
GRASS_20
 10
0.0506
 20
-0.0233
 30
0.0705
 70
192
 0
VERTEX
 8
GRASS_20
 10
0.0665
 20
-0.0412
 30
0.1165
 70
192
 0
VERTEX
 8
GRASS_20
 10
0.0843
 20
-0.0619
 30
0.1468
 70
192
 0
VERTEX
 8
GRASS_20
 10
0.1016
 20
-0.0818
 30
0.1761
 70
192
 0
VERTEX
 8
GRASS_20
 10
0.1123
 20
-0.0957
 30
0.1894
 70
192
 0
VERTEX
 8
GRASS_20
 10
0.1301
 20
-0.124
 30
0.1968
 70
192
 0
VERTEX
 8
GRASS_20
 10
0.0478
 20
-0.0141
 30
0.0442
 70
192
 0
VERTEX
 8
GRASS_20
 10
0.0385
 20
-0.019
 30
0.0457
 70
192
 0
VERTEX
 8
GRASS_20
 10
0.033
 20
-0.0172
 30
-0.0018
 70
192
 0
VERTEX
 8
GRASS_20
 10
0.0413
 20
-0.0129
 30
-0.0018
 70
192
 0
VERTEX
 8
GRASS_20
 10
0.0549
 20
-0.0189
 30
0.0708
 70
192
 0
VERTEX
 8
GRASS_20
 10
0.0448
 20
-0.0242
 30
0.0723
 70
192
 0
VERTEX
 8
GRASS_20
 10
0.0707
 20
-0.0361
 30
0.1179
 70
192
 0
VERTEX
 8
GRASS_20
 10
0.0605
 20
-0.042
 30
0.1198
 70
192
 0
VERTEX
 8
GRASS_20
 10
0.089
 20
-0.0572
 30
0.1488
 70
192
 0
VERTEX
 8
GRASS_20
 10
0.0788
 20
-0.0632
 30
0.1508
 70
192
 0
VERTEX
 8
GRASS_20
 10
0.1057
 20
-0.078
 30
0.1772
 70
192
 0
VERTEX
 8
GRASS_20
 10
0.0968
 20
-0.0832
 30
0.1789
 70
192
 0
VERTEX
 8
GRASS_20
 10
0.1157
 20
-0.094
 30
0.1905
 70
192
 0
VERTEX
 8
GRASS_20
 10
0.1095
 20
-0.0976
 30
0.1917
 70
192
 0
VERTEX
 8
GRASS_20
 10
0.1306
 20
-0.1237
 30
0.1967
 70
192
 0
VERTEX
 8
GRASS_20
 10
0.1296
 20
-0.1243
 30
0.1969
 70
192
 0
VERTEX
 8
GRASS_20
 10
0.136
 20
-0.1332
 30
0.195
 70
192
 0
VERTEX
 8
GRASS_20
 10
0.0436
 20
-0.0175
 30
0.0443
 70
192
 0
VERTEX
 8
GRASS_20
 10
0.0372
 20
-0.015
 30
-0.0018
 70
192
 0
VERTEX
 8
GRASS_20
 10
0.0506
 20
-0.0233
 30
0.0705
 70
192
 0
VERTEX
 8
GRASS_20
 10
0.0665
 20
-0.0412
 30
0.1165
 70
192
 0
VERTEX
 8
GRASS_20
 10
0.0843
 20
-0.0619
 30
0.1468
 70
192
 0
VERTEX
 8
GRASS_20
 10
0.1016
 20
-0.0818
 30
0.1761
 70
192
 0
VERTEX
 8
GRASS_20
 10
0.1123
 20
-0.0957
 30
0.1894
 70
192
 0
VERTEX
 8
GRASS_20
 10
0.1301
 20
-0.124
 30
0.1968
 70
192
 0
VERTEX
 8
GRASS_20
 10
0.0152
 20
-0.0458
 30
-0.0018
 70
192
 0
VERTEX
 8
GRASS_20
 10
0.0094
 20
-0.0326
 30
-0.0018
 70
192
 0
VERTEX
 8
GRASS_20
 10
-0.0141
 20
0.0268
 30
-0.0741
 70
192
 0
VERTEX
 8
GRASS_20
 10
-0.009
 20
0.0152
 30
-0.0741
 70
192
 0
VERTEX
 8
GRASS_20
 10
0.0154
 20
-0.0463
 30
0.0327
 70
192
 0
VERTEX
 8
GRASS_20
 10
0.0092
 20
-0.0321
 30
0.0327
 70
192
 0
VERTEX
 8
GRASS_20
 10
0.0104
 20
-0.0489
 30
0.0752
 70
192
 0
VERTEX
 8
GRASS_20
 10
0.0039
 20
-0.034
 30
0.0752
 70
192
 0
VERTEX
 8
GRASS_20
 10
-0.0067
 20
-0.0564
 30
0.1321
 70
192
 0
VERTEX
 8
GRASS_20
 10
-0.0132
 20
-0.0415
 30
0.1321
 70
192
 0
VERTEX
 8
GRASS_20
 10
-0.0301
 20
-0.0655
 30
0.1635
 70
192
 0
VERTEX
 8
GRASS_20
 10
-0.0358
 20
-0.0525
 30
0.1635
 70
192
 0
VERTEX
 8
GRASS_20
 10
-0.0463
 20
-0.0702
 30
0.1723
 70
192
 0
VERTEX
 8
GRASS_20
 10
-0.0502
 20
-0.0613
 30
0.1723
 70
192
 0
VERTEX
 8
GRASS_20
 10
-0.0798
 20
-0.0804
 30
0.1635
 70
192
 0
VERTEX
 8
GRASS_20
 10
-0.0804
 20
-0.079
 30
0.1635
 70
192
 0
VERTEX
 8
GRASS_20
 10
-0.0875
 20
-0.083
 30
0.1539
 70
192
 0
VERTEX
 8
GRASS_20
 10
0.011
 20
-0.0398
 30
-0.0018
 70
192
 0
VERTEX
 8
GRASS_20
 10
-0.0115
 20
0.021
 30
-0.0741
 70
192
 0
VERTEX
 8
GRASS_20
 10
0.0101
 20
-0.0402
 30
0.0327
 70
192
 0
VERTEX
 8
GRASS_20
 10
0.0042
 20
-0.0428
 30
0.0715
 70
192
 0
VERTEX
 8
GRASS_20
 10
-0.0123
 20
-0.05
 30
0.1268
 70
192
 0
VERTEX
 8
GRASS_20
 10
-0.0335
 20
-0.0593
 30
0.1587
 70
192
 0
VERTEX
 8
GRASS_20
 10
-0.048
 20
-0.0657
 30
0.1695
 70
192
 0
VERTEX
 8
GRASS_20
 10
-0.0801
 20
-0.0797
 30
0.1635
 70
192
 0
VERTEX
 8
GRASS_20
 10
0.0152
 20
-0.0458
 30
-0.0018
 70
192
 0
VERTEX
 8
GRASS_20
 10
0.0094
 20
-0.0326
 30
-0.0018
 70
192
 0
VERTEX
 8
GRASS_20
 10
-0.0141
 20
0.0268
 30
-0.0741
 70
192
 0
VERTEX
 8
GRASS_20
 10
-0.009
 20
0.0152
 30
-0.0741
 70
192
 0
VERTEX
 8
GRASS_20
 10
0.0154
 20
-0.0463
 30
0.0327
 70
192
 0
VERTEX
 8
GRASS_20
 10
0.0092
 20
-0.0321
 30
0.0327
 70
192
 0
VERTEX
 8
GRASS_20
 10
0.0104
 20
-0.0489
 30
0.0752
 70
192
 0
VERTEX
 8
GRASS_20
 10
0.0039
 20
-0.034
 30
0.0752
 70
192
 0
VERTEX
 8
GRASS_20
 10
-0.0067
 20
-0.0564
 30
0.1321
 70
192
 0
VERTEX
 8
GRASS_20
 10
-0.0132
 20
-0.0415
 30
0.1321
 70
192
 0
VERTEX
 8
GRASS_20
 10
-0.0301
 20
-0.0655
 30
0.1635
 70
192
 0
VERTEX
 8
GRASS_20
 10
-0.0358
 20
-0.0525
 30
0.1635
 70
192
 0
VERTEX
 8
GRASS_20
 10
-0.0463
 20
-0.0702
 30
0.1723
 70
192
 0
VERTEX
 8
GRASS_20
 10
-0.0502
 20
-0.0613
 30
0.1723
 70
192
 0
VERTEX
 8
GRASS_20
 10
-0.0798
 20
-0.0804
 30
0.1635
 70
192
 0
VERTEX
 8
GRASS_20
 10
-0.0804
 20
-0.079
 30
0.1635
 70
192
 0
VERTEX
 8
GRASS_20
 10
-0.0875
 20
-0.083
 30
0.1539
 70
192
 0
VERTEX
 8
GRASS_20
 10
0.011
 20
-0.0398
 30
-0.0018
 70
192
 0
VERTEX
 8
GRASS_20
 10
-0.0115
 20
0.021
 30
-0.0741
 70
192
 0
VERTEX
 8
GRASS_20
 10
0.0101
 20
-0.0402
 30
0.0327
 70
192
 0
VERTEX
 8
GRASS_20
 10
0.0042
 20
-0.0428
 30
0.0715
 70
192
 0
VERTEX
 8
GRASS_20
 10
-0.0123
 20
-0.05
 30
0.1268
 70
192
 0
VERTEX
 8
GRASS_20
 10
-0.0335
 20
-0.0593
 30
0.1587
 70
192
 0
VERTEX
 8
GRASS_20
 10
-0.048
 20
-0.0657
 30
0.1695
 70
192
 0
VERTEX
 8
GRASS_20
 10
-0.0801
 20
-0.0797
 30
0.1635
 70
192
 0
VERTEX
 8
GRASS_20
 10
0.1266
 20
-0.2515
 30
0.028
 70
192
 0
VERTEX
 8
GRASS_20
 10
0.1277
 20
-0.2412
 30
0.0298
 70
192
 0
VERTEX
 8
GRASS_20
 10
0.13
 20
-0.2382
 30
-0.0275
 70
192
 0
VERTEX
 8
GRASS_20
 10
0.1291
 20
-0.2472
 30
-0.0275
 70
192
 0
VERTEX
 8
GRASS_20
 10
0.0181
 20
0.0269
 30
-0.0428
 70
192
 0
VERTEX
 8
GRASS_20
 10
0.0219
 20
0.0166
 30
-0.0408
 70
192
 0
VERTEX
 8
GRASS_20
 10
0.0189
 20
-0.0426
 30
-0.0018
 70
192
 0
VERTEX
 8
GRASS_20
 10
0.0302
 20
-0.0448
 30
-0.0018
 70
192
 0
VERTEX
 8
GRASS_20
 10
0.0147
 20
-0.0554
 30
0.0308
 70
192
 0
VERTEX
 8
GRASS_20
 10
0.026
 20
-0.0577
 30
0.0333
 70
192
 0
VERTEX
 8
GRASS_20
 10
0.0115
 20
-0.0679
 30
0.0664
 70
192
 0
VERTEX
 8
GRASS_20
 10
0.0215
 20
-0.0699
 30
0.0686
 70
192
 0
VERTEX
 8
GRASS_20
 10
0.0115
 20
-0.0773
 30
0.0831
 70
192
 0
VERTEX
 8
GRASS_20
 10
0.0183
 20
-0.0787
 30
0.0846
 70
192
 0
VERTEX
 8
GRASS_20
 10
0.0147
 20
-0.0877
 30
0.1056
 70
192
 0
VERTEX
 8
GRASS_20
 10
0.0158
 20
-0.0879
 30
0.1055
 70
192
 0
VERTEX
 8
GRASS_20
 10
0.0157
 20
-0.0915
 30
0.116
 70
192
 0
VERTEX
 8
GRASS_20
 10
0.1266
 20
-0.246
 30
0.0281
 70
192
 0
VERTEX
 8
GRASS_20
 10
0.1295
 20
-0.2427
 30
-0.0275
 70
192
 0
VERTEX
 8
GRASS_20
 10
0.0193
 20
0.021
 30
-0.0432
 70
192
 0
VERTEX
 8
GRASS_20
 10
0.025
 20
-0.0449
 30
-0.0018
 70
192
 0
VERTEX
 8
GRASS_20
 10
0.0208
 20
-0.0575
 30
0.0283
 70
192
 0
VERTEX
 8
GRASS_20
 10
0.0168
 20
-0.0696
 30
0.065
 70
192
 0
VERTEX
 8
GRASS_20
 10
0.0151
 20
-0.0779
 30
0.0816
 70
192
 0
VERTEX
 8
GRASS_20
 10
0.0152
 20
-0.0878
 30
0.1055
 70
192
 0
VERTEX
 8
GRASS_20
 10
0.1266
 20
-0.2515
 30
0.028
 70
192
 0
VERTEX
 8
GRASS_20
 10
0.1277
 20
-0.2412
 30
0.0298
 70
192
 0
VERTEX
 8
GRASS_20
 10
0.13
 20
-0.2382
 30
-0.0275
 70
192
 0
VERTEX
 8
GRASS_20
 10
0.1291
 20
-0.2472
 30
-0.0275
 70
192
 0
VERTEX
 8
GRASS_20
 10
0.0181
 20
0.0269
 30
-0.0428
 70
192
 0
VERTEX
 8
GRASS_20
 10
0.0219
 20
0.0166
 30
-0.0408
 70
192
 0
VERTEX
 8
GRASS_20
 10
0.0189
 20
-0.0426
 30
-0.0018
 70
192
 0
VERTEX
 8
GRASS_20
 10
0.0302
 20
-0.0448
 30
-0.0018
 70
192
 0
VERTEX
 8
GRASS_20
 10
0.0147
 20
-0.0554
 30
0.0308
 70
192
 0
VERTEX
 8
GRASS_20
 10
0.026
 20
-0.0577
 30
0.0333
 70
192
 0
VERTEX
 8
GRASS_20
 10
0.0115
 20
-0.0679
 30
0.0664
 70
192
 0
VERTEX
 8
GRASS_20
 10
0.0215
 20
-0.0699
 30
0.0686
 70
192
 0
VERTEX
 8
GRASS_20
 10
0.0115
 20
-0.0773
 30
0.0831
 70
192
 0
VERTEX
 8
GRASS_20
 10
0.0183
 20
-0.0787
 30
0.0846
 70
192
 0
VERTEX
 8
GRASS_20
 10
0.0147
 20
-0.0877
 30
0.1056
 70
192
 0
VERTEX
 8
GRASS_20
 10
0.0158
 20
-0.0879
 30
0.1055
 70
192
 0
VERTEX
 8
GRASS_20
 10
0.0157
 20
-0.0915
 30
0.116
 70
192
 0
VERTEX
 8
GRASS_20
 10
0.1266
 20
-0.246
 30
0.0281
 70
192
 0
VERTEX
 8
GRASS_20
 10
0.1295
 20
-0.2427
 30
-0.0275
 70
192
 0
VERTEX
 8
GRASS_20
 10
0.0193
 20
0.021
 30
-0.0432
 70
192
 0
VERTEX
 8
GRASS_20
 10
0.025
 20
-0.0449
 30
-0.0018
 70
192
 0
VERTEX
 8
GRASS_20
 10
0.0208
 20
-0.0575
 30
0.0283
 70
192
 0
VERTEX
 8
GRASS_20
 10
0.0168
 20
-0.0696
 30
0.065
 70
192
 0
VERTEX
 8
GRASS_20
 10
0.0151
 20
-0.0779
 30
0.0816
 70
192
 0
VERTEX
 8
GRASS_20
 10
0.0152
 20
-0.0878
 30
0.1055
 70
192
 0
VERTEX
 8
GRASS_20
 10
0.1266
 20
-0.2515
 30
0.028
 70
192
 0
VERTEX
 8
GRASS_20
 10
0.1277
 20
-0.2412
 30
0.0298
 70
192
 0
VERTEX
 8
GRASS_20
 10
0.13
 20
-0.2382
 30
-0.0275
 70
192
 0
VERTEX
 8
GRASS_20
 10
0.1291
 20
-0.2472
 30
-0.0275
 70
192
 0
VERTEX
 8
GRASS_20
 10
0.0178
 20
-0.0571
 30
-0.0018
 70
192
 0
VERTEX
 8
GRASS_20
 10
0.0217
 20
-0.0466
 30
-0.0018
 70
192
 0
VERTEX
 8
GRASS_20
 10
0.0066
 20
-0.0554
 30
0.0369
 70
192
 0
VERTEX
 8
GRASS_20
 10
0.0104
 20
-0.0444
 30
0.0393
 70
192
 0
VERTEX
 8
GRASS_20
 10
-0.0066
 20
-0.0525
 30
0.0757
 70
192
 0
VERTEX
 8
GRASS_20
 10
-0.0028
 20
-0.0415
 30
0.0781
 70
192
 0
VERTEX
 8
GRASS_20
 10
-0.019
 20
-0.0488
 30
0.1113
 70
192
 0
VERTEX
 8
GRASS_20
 10
-0.0157
 20
-0.0391
 30
0.1134
 70
192
 0
VERTEX
 8
GRASS_20
 10
-0.0271
 20
-0.044
 30
0.128
 70
192
 0
VERTEX
 8
GRASS_20
 10
-0.0249
 20
-0.0374
 30
0.1294
 70
192
 0
VERTEX
 8
GRASS_20
 10
-0.0344
 20
-0.0359
 30
0.1504
 70
192
 0
VERTEX
 8
GRASS_20
 10
-0.034
 20
-0.0348
 30
0.1503
 70
192
 0
VERTEX
 8
GRASS_20
 10
-0.0372
 20
-0.0331
 30
0.1609
 70
192
 0
VERTEX
 8
GRASS_20
 10
0.1266
 20
-0.246
 30
0.0281
 70
192
 0
VERTEX
 8
GRASS_20
 10
0.1295
 20
-0.2427
 30
-0.0275
 70
192
 0
VERTEX
 8
GRASS_20
 10
0.019
 20
-0.0512
 30
-0.0018
 70
192
 0
VERTEX
 8
GRASS_20
 10
0.0076
 20
-0.0489
 30
0.0352
 70
192
 0
VERTEX
 8
GRASS_20
 10
-0.0053
 20
-0.0461
 30
0.0731
 70
192
 0
VERTEX
 8
GRASS_20
 10
-0.0177
 20
-0.0434
 30
0.1098
 70
192
 0
VERTEX
 8
GRASS_20
 10
-0.0258
 20
-0.0405
 30
0.1265
 70
192
 0
VERTEX
 8
GRASS_20
 10
-0.0342
 20
-0.0354
 30
0.1504
 70
192
 0
VERTEX
 8
GRASS_20
 10
0.1266
 20
-0.2515
 30
0.028
 70
192
 0
VERTEX
 8
GRASS_20
 10
0.1277
 20
-0.2412
 30
0.0298
 70
192
 0
VERTEX
 8
GRASS_20
 10
0.13
 20
-0.2382
 30
-0.0275
 70
192
 0
VERTEX
 8
GRASS_20
 10
0.1291
 20
-0.2472
 30
-0.0275
 70
192
 0
VERTEX
 8
GRASS_20
 10
0.0178
 20
-0.0571
 30
-0.0018
 70
192
 0
VERTEX
 8
GRASS_20
 10
0.0217
 20
-0.0466
 30
-0.0018
 70
192
 0
VERTEX
 8
GRASS_20
 10
0.0066
 20
-0.0554
 30
0.0369
 70
192
 0
VERTEX
 8
GRASS_20
 10
0.0104
 20
-0.0444
 30
0.0393
 70
192
 0
VERTEX
 8
GRASS_20
 10
-0.0066
 20
-0.0525
 30
0.0757
 70
192
 0
VERTEX
 8
GRASS_20
 10
-0.0028
 20
-0.0415
 30
0.0781
 70
192
 0
VERTEX
 8
GRASS_20
 10
-0.019
 20
-0.0488
 30
0.1113
 70
192
 0
VERTEX
 8
GRASS_20
 10
-0.0157
 20
-0.0391
 30
0.1134
 70
192
 0
VERTEX
 8
GRASS_20
 10
-0.0271
 20
-0.044
 30
0.128
 70
192
 0
VERTEX
 8
GRASS_20
 10
-0.0249
 20
-0.0374
 30
0.1294
 70
192
 0
VERTEX
 8
GRASS_20
 10
-0.0344
 20
-0.0359
 30
0.1504
 70
192
 0
VERTEX
 8
GRASS_20
 10
-0.034
 20
-0.0348
 30
0.1503
 70
192
 0
VERTEX
 8
GRASS_20
 10
-0.0372
 20
-0.0331
 30
0.1609
 70
192
 0
VERTEX
 8
GRASS_20
 10
0.1266
 20
-0.246
 30
0.0281
 70
192
 0
VERTEX
 8
GRASS_20
 10
0.1295
 20
-0.2427
 30
-0.0275
 70
192
 0
VERTEX
 8
GRASS_20
 10
0.019
 20
-0.0512
 30
-0.0018
 70
192
 0
VERTEX
 8
GRASS_20
 10
0.0076
 20
-0.0489
 30
0.0352
 70
192
 0
VERTEX
 8
GRASS_20
 10
-0.0053
 20
-0.0461
 30
0.0731
 70
192
 0
VERTEX
 8
GRASS_20
 10
-0.0177
 20
-0.0434
 30
0.1098
 70
192
 0
VERTEX
 8
GRASS_20
 10
-0.0258
 20
-0.0405
 30
0.1265
 70
192
 0
VERTEX
 8
GRASS_20
 10
-0.0342
 20
-0.0354
 30
0.1504
 70
192
 0
VERTEX
 8
GRASS_20
 10
-0.0079
 20
-0.0489
 30
-0.0018
 70
192
 0
VERTEX
 8
GRASS_20
 10
-0.0067
 20
-0.0384
 30
-0.0018
 70
192
 0
VERTEX
 8
GRASS_20
 10
-0.0317
 20
0.0261
 30
-0.0402
 70
192
 0
VERTEX
 8
GRASS_20
 10
-0.0326
 20
0.0169
 30
-0.0402
 70
192
 0
VERTEX
 8
GRASS_20
 10
-0.0124
 20
-0.0526
 30
0.0314
 70
192
 0
VERTEX
 8
GRASS_20
 10
-0.0111
 20
-0.0414
 30
0.033
 70
192
 0
VERTEX
 8
GRASS_20
 10
-0.0295
 20
-0.0573
 30
0.0809
 70
192
 0
VERTEX
 8
GRASS_20
 10
-0.0286
 20
-0.0455
 30
0.083
 70
192
 0
VERTEX
 8
GRASS_20
 10
-0.0531
 20
-0.0616
 30
0.115
 70
192
 0
VERTEX
 8
GRASS_20
 10
-0.0522
 20
-0.0498
 30
0.1171
 70
192
 0
VERTEX
 8
GRASS_20
 10
-0.0759
 20
-0.0646
 30
0.1464
 70
192
 0
VERTEX
 8
GRASS_20
 10
-0.0752
 20
-0.0543
 30
0.1482
 70
192
 0
VERTEX
 8
GRASS_20
 10
-0.093
 20
-0.0644
 30
0.162
 70
192
 0
VERTEX
 8
GRASS_20
 10
-0.0924
 20
-0.0574
 30
0.1632
 70
192
 0
VERTEX
 8
GRASS_20
 10
-0.1249
 20
-0.0608
 30
0.1722
 70
192
 0
VERTEX
 8
GRASS_20
 10
-0.1249
 20
-0.0597
 30
0.1724
 70
192
 0
VERTEX
 8
GRASS_20
 10
-0.136
 20
-0.0601
 30
0.172
 70
192
 0
VERTEX
 8
GRASS_20
 10
-0.0084
 20
-0.0435
 30
-0.0018
 70
192
 0
VERTEX
 8
GRASS_20
 10
-0.0322
 20
0.0215
 30
-0.0402
 70
192
 0
VERTEX
 8
GRASS_20
 10
-0.0138
 20
-0.0467
 30
0.0314
 70
192
 0
VERTEX
 8
GRASS_20
 10
-0.0316
 20
-0.0509
 30
0.0799
 70
192
 0
VERTEX
 8
GRASS_20
 10
-0.0547
 20
-0.0551
 30
0.1132
 70
192
 0
VERTEX
 8
GRASS_20
 10
-0.0769
 20
-0.0591
 30
0.1455
 70
192
 0
VERTEX
 8
GRASS_20
 10
-0.0927
 20
-0.0606
 30
0.1608
 70
192
 0
VERTEX
 8
GRASS_20
 10
-0.1249
 20
-0.0603
 30
0.1723
 70
192
 0
VERTEX
 8
GRASS_20
 10
-0.0079
 20
-0.0489
 30
-0.0018
 70
192
 0
VERTEX
 8
GRASS_20
 10
-0.0067
 20
-0.0384
 30
-0.0018
 70
192
 0
VERTEX
 8
GRASS_20
 10
-0.0317
 20
0.0261
 30
-0.0402
 70
192
 0
VERTEX
 8
GRASS_20
 10
-0.0326
 20
0.0169
 30
-0.0402
 70
192
 0
VERTEX
 8
GRASS_20
 10
-0.0124
 20
-0.0526
 30
0.0314
 70
192
 0
VERTEX
 8
GRASS_20
 10
-0.0111
 20
-0.0414
 30
0.033
 70
192
 0
VERTEX
 8
GRASS_20
 10
-0.0295
 20
-0.0573
 30
0.0809
 70
192
 0
VERTEX
 8
GRASS_20
 10
-0.0286
 20
-0.0455
 30
0.083
 70
192
 0
VERTEX
 8
GRASS_20
 10
-0.0531
 20
-0.0616
 30
0.115
 70
192
 0
VERTEX
 8
GRASS_20
 10
-0.0522
 20
-0.0498
 30
0.1171
 70
192
 0
VERTEX
 8
GRASS_20
 10
-0.0759
 20
-0.0646
 30
0.1464
 70
192
 0
VERTEX
 8
GRASS_20
 10
-0.0752
 20
-0.0543
 30
0.1482
 70
192
 0
VERTEX
 8
GRASS_20
 10
-0.093
 20
-0.0644
 30
0.162
 70
192
 0
VERTEX
 8
GRASS_20
 10
-0.0924
 20
-0.0574
 30
0.1632
 70
192
 0
VERTEX
 8
GRASS_20
 10
-0.1249
 20
-0.0608
 30
0.1722
 70
192
 0
VERTEX
 8
GRASS_20
 10
-0.1249
 20
-0.0597
 30
0.1724
 70
192
 0
VERTEX
 8
GRASS_20
 10
-0.136
 20
-0.0601
 30
0.172
 70
192
 0
VERTEX
 8
GRASS_20
 10
-0.0084
 20
-0.0435
 30
-0.0018
 70
192
 0
VERTEX
 8
GRASS_20
 10
-0.0322
 20
0.0215
 30
-0.0402
 70
192
 0
VERTEX
 8
GRASS_20
 10
-0.0138
 20
-0.0467
 30
0.0314
 70
192
 0
VERTEX
 8
GRASS_20
 10
-0.0316
 20
-0.0509
 30
0.0799
 70
192
 0
VERTEX
 8
GRASS_20
 10
-0.0547
 20
-0.0551
 30
0.1132
 70
192
 0
VERTEX
 8
GRASS_20
 10
-0.0769
 20
-0.0591
 30
0.1455
 70
192
 0
VERTEX
 8
GRASS_20
 10
-0.0927
 20
-0.0606
 30
0.1608
 70
192
 0
VERTEX
 8
GRASS_20
 10
-0.1249
 20
-0.0603
 30
0.1723
 70
192
 0
VERTEX
 8
GRASS_20
 10
0.0214
 20
-0.0255
 30
0.0442
 70
192
 0
VERTEX
 8
GRASS_20
 10
0.0143
 20
-0.0225
 30
0.0457
 70
192
 0
VERTEX
 8
GRASS_20
 10
0.0118
 20
-0.0178
 30
-0.0018
 70
192
 0
VERTEX
 8
GRASS_20
 10
0.0181
 20
-0.0204
 30
-0.0018
 70
192
 0
VERTEX
 8
GRASS_20
 10
0.0237
 20
-0.0332
 30
0.0708
 70
192
 0
VERTEX
 8
GRASS_20
 10
0.016
 20
-0.03
 30
0.0723
 70
192
 0
VERTEX
 8
GRASS_20
 10
0.0264
 20
-0.0547
 30
0.1179
 70
192
 0
VERTEX
 8
GRASS_20
 10
0.0184
 20
-0.0518
 30
0.1198
 70
192
 0
VERTEX
 8
GRASS_20
 10
0.0291
 20
-0.0802
 30
0.1488
 70
192
 0
VERTEX
 8
GRASS_20
 10
0.0211
 20
-0.0774
 30
0.1508
 70
192
 0
VERTEX
 8
GRASS_20
 10
0.031
 20
-0.1047
 30
0.1772
 70
192
 0
VERTEX
 8
GRASS_20
 10
0.024
 20
-0.1022
 30
0.1789
 70
192
 0
VERTEX
 8
GRASS_20
 10
0.0308
 20
-0.1215
 30
0.1905
 70
192
 0
VERTEX
 8
GRASS_20
 10
0.026
 20
-0.1198
 30
0.1917
 70
192
 0
VERTEX
 8
GRASS_20
 10
0.0284
 20
-0.1505
 30
0.1967
 70
192
 0
VERTEX
 8
GRASS_20
 10
0.0277
 20
-0.1502
 30
0.1969
 70
192
 0
VERTEX
 8
GRASS_20
 10
0.028
 20
-0.1601
 30
0.195
 70
192
 0
VERTEX
 8
GRASS_20
 10
0.0177
 20
-0.0249
 30
0.0443
 70
192
 0
VERTEX
 8
GRASS_20
 10
0.015
 20
-0.0191
 30
-0.0018
 70
192
 0
VERTEX
 8
GRASS_20
 10
0.0196
 20
-0.0332
 30
0.0705
 70
192
 0
VERTEX
 8
GRASS_20
 10
0.0221
 20
-0.0552
 30
0.1165
 70
192
 0
VERTEX
 8
GRASS_20
 10
0.0247
 20
-0.0802
 30
0.1468
 70
192
 0
VERTEX
 8
GRASS_20
 10
0.0272
 20
-0.1044
 30
0.1761
 70
192
 0
VERTEX
 8
GRASS_20
 10
0.0282
 20
-0.1204
 30
0.1894
 70
192
 0
VERTEX
 8
GRASS_20
 10
0.0281
 20
-0.1503
 30
0.1968
 70
192
 0
VERTEX
 8
GRASS_20
 10
0.0214
 20
-0.0255
 30
0.0442
 70
192
 0
VERTEX
 8
GRASS_20
 10
0.0143
 20
-0.0225
 30
0.0457
 70
192
 0
VERTEX
 8
GRASS_20
 10
0.0118
 20
-0.0178
 30
-0.0018
 70
192
 0
VERTEX
 8
GRASS_20
 10
0.0181
 20
-0.0204
 30
-0.0018
 70
192
 0
VERTEX
 8
GRASS_20
 10
0.0237
 20
-0.0332
 30
0.0708
 70
192
 0
VERTEX
 8
GRASS_20
 10
0.016
 20
-0.03
 30
0.0723
 70
192
 0
VERTEX
 8
GRASS_20
 10
0.0264
 20
-0.0547
 30
0.1179
 70
192
 0
VERTEX
 8
GRASS_20
 10
0.0184
 20
-0.0518
 30
0.1198
 70
192
 0
VERTEX
 8
GRASS_20
 10
0.0291
 20
-0.0802
 30
0.1488
 70
192
 0
VERTEX
 8
GRASS_20
 10
0.0211
 20
-0.0774
 30
0.1508
 70
192
 0
VERTEX
 8
GRASS_20
 10
0.031
 20
-0.1047
 30
0.1772
 70
192
 0
VERTEX
 8
GRASS_20
 10
0.024
 20
-0.1022
 30
0.1789
 70
192
 0
VERTEX
 8
GRASS_20
 10
0.0308
 20
-0.1215
 30
0.1905
 70
192
 0
VERTEX
 8
GRASS_20
 10
0.026
 20
-0.1198
 30
0.1917
 70
192
 0
VERTEX
 8
GRASS_20
 10
0.0284
 20
-0.1505
 30
0.1967
 70
192
 0
VERTEX
 8
GRASS_20
 10
0.0277
 20
-0.1502
 30
0.1969
 70
192
 0
VERTEX
 8
GRASS_20
 10
0.028
 20
-0.1601
 30
0.195
 70
192
 0
VERTEX
 8
GRASS_20
 10
0.0177
 20
-0.0249
 30
0.0443
 70
192
 0
VERTEX
 8
GRASS_20
 10
0.015
 20
-0.0191
 30
-0.0018
 70
192
 0
VERTEX
 8
GRASS_20
 10
0.0196
 20
-0.0332
 30
0.0705
 70
192
 0
VERTEX
 8
GRASS_20
 10
0.0221
 20
-0.0552
 30
0.1165
 70
192
 0
VERTEX
 8
GRASS_20
 10
0.0247
 20
-0.0802
 30
0.1468
 70
192
 0
VERTEX
 8
GRASS_20
 10
0.0272
 20
-0.1044
 30
0.1761
 70
192
 0
VERTEX
 8
GRASS_20
 10
0.0282
 20
-0.1204
 30
0.1894
 70
192
 0
VERTEX
 8
GRASS_20
 10
0.0281
 20
-0.1503
 30
0.1968
 70
192
 0
VERTEX
 8
GRASS_20
 10
-0.0103
 20
-0.0227
 30
0.0292
 70
192
 0
VERTEX
 8
GRASS_20
 10
-0.0106
 20
-0.0146
 30
0.0292
 70
192
 0
VERTEX
 8
GRASS_20
 10
-0.01
 20
-0.0152
 30
-0.0018
 70
192
 0
VERTEX
 8
GRASS_20
 10
-0.0097
 20
-0.0224
 30
-0.0018
 70
192
 0
VERTEX
 8
GRASS_20
 10
-0.0115
 20
-0.0228
 30
0.0485
 70
192
 0
VERTEX
 8
GRASS_20
 10
-0.0118
 20
-0.014
 30
0.0485
 70
192
 0
VERTEX
 8
GRASS_20
 10
-0.017
 20
-0.0217
 30
0.0748
 70
192
 0
VERTEX
 8
GRASS_20
 10
-0.0174
 20
-0.0125
 30
0.0748
 70
192
 0
VERTEX
 8
GRASS_20
 10
-0.0247
 20
-0.0199
 30
0.1029
 70
192
 0
VERTEX
 8
GRASS_20
 10
-0.025
 20
-0.0107
 30
0.1029
 70
192
 0
VERTEX
 8
GRASS_20
 10
-0.0327
 20
-0.0175
 30
0.1289
 70
192
 0
VERTEX
 8
GRASS_20
 10
-0.033
 20
-0.0094
 30
0.1289
 70
192
 0
VERTEX
 8
GRASS_20
 10
-0.0412
 20
-0.0142
 30
0.1431
 70
192
 0
VERTEX
 8
GRASS_20
 10
-0.0414
 20
-0.0087
 30
0.1431
 70
192
 0
VERTEX
 8
GRASS_20
 10
-0.063
 20
-0.0069
 30
0.1574
 70
192
 0
VERTEX
 8
GRASS_20
 10
-0.063
 20
-0.006
 30
0.1574
 70
192
 0
VERTEX
 8
GRASS_20
 10
-0.0675
 20
-0.0054
 30
0.1566
 70
192
 0
VERTEX
 8
GRASS_20
 10
-0.0115
 20
-0.0184
 30
0.029
 70
192
 0
VERTEX
 8
GRASS_20
 10
-0.0099
 20
-0.0188
 30
-0.0018
 70
192
 0
VERTEX
 8
GRASS_20
 10
-0.0133
 20
-0.018
 30
0.048
 70
192
 0
VERTEX
 8
GRASS_20
 10
-0.0198
 20
-0.0165
 30
0.0741
 70
192
 0
VERTEX
 8
GRASS_20
 10
-0.0273
 20
-0.0148
 30
0.1016
 70
192
 0
VERTEX
 8
GRASS_20
 10
-0.0344
 20
-0.0131
 30
0.1281
 70
192
 0
VERTEX
 8
GRASS_20
 10
-0.0418
 20
-0.0114
 30
0.142
 70
192
 0
VERTEX
 8
GRASS_20
 10
-0.063
 20
-0.0064
 30
0.1574
 70
192
 0
VERTEX
 8
GRASS_20
 10
-0.0103
 20
-0.0227
 30
0.0292
 70
192
 0
VERTEX
 8
GRASS_20
 10
-0.0106
 20
-0.0146
 30
0.0292
 70
192
 0
VERTEX
 8
GRASS_20
 10
-0.01
 20
-0.0152
 30
-0.0018
 70
192
 0
VERTEX
 8
GRASS_20
 10
-0.0097
 20
-0.0224
 30
-0.0018
 70
192
 0
VERTEX
 8
GRASS_20
 10
-0.0115
 20
-0.0228
 30
0.0485
 70
192
 0
VERTEX
 8
GRASS_20
 10
-0.0118
 20
-0.014
 30
0.0485
 70
192
 0
VERTEX
 8
GRASS_20
 10
-0.017
 20
-0.0217
 30
0.0748
 70
192
 0
VERTEX
 8
GRASS_20
 10
-0.0174
 20
-0.0125
 30
0.0748
 70
192
 0
VERTEX
 8
GRASS_20
 10
-0.0247
 20
-0.0199
 30
0.1029
 70
192
 0
VERTEX
 8
GRASS_20
 10
-0.025
 20
-0.0107
 30
0.1029
 70
192
 0
VERTEX
 8
GRASS_20
 10
-0.0327
 20
-0.0175
 30
0.1289
 70
192
 0
VERTEX
 8
GRASS_20
 10
-0.033
 20
-0.0094
 30
0.1289
 70
192
 0
VERTEX
 8
GRASS_20
 10
-0.0412
 20
-0.0142
 30
0.1431
 70
192
 0
VERTEX
 8
GRASS_20
 10
-0.0414
 20
-0.0087
 30
0.1431
 70
192
 0
VERTEX
 8
GRASS_20
 10
-0.063
 20
-0.0069
 30
0.1574
 70
192
 0
VERTEX
 8
GRASS_20
 10
-0.063
 20
-0.006
 30
0.1574
 70
192
 0
VERTEX
 8
GRASS_20
 10
-0.0675
 20
-0.0054
 30
0.1566
 70
192
 0
VERTEX
 8
GRASS_20
 10
-0.0115
 20
-0.0184
 30
0.029
 70
192
 0
VERTEX
 8
GRASS_20
 10
-0.0099
 20
-0.0188
 30
-0.0018
 70
192
 0
VERTEX
 8
GRASS_20
 10
-0.0133
 20
-0.018
 30
0.048
 70
192
 0
VERTEX
 8
GRASS_20
 10
-0.0198
 20
-0.0165
 30
0.0741
 70
192
 0
VERTEX
 8
GRASS_20
 10
-0.0273
 20
-0.0148
 30
0.1016
 70
192
 0
VERTEX
 8
GRASS_20
 10
-0.0344
 20
-0.0131
 30
0.1281
 70
192
 0
VERTEX
 8
GRASS_20
 10
-0.0418
 20
-0.0114
 30
0.142
 70
192
 0
VERTEX
 8
GRASS_20
 10
-0.063
 20
-0.0064
 30
0.1574
 70
192
 0
VERTEX
 8
GRASS_20
 10
0.0103
 20
-0.0774
 30
0.0467
 70
192
 0
VERTEX
 8
GRASS_20
 10
0.0012
 20
-0.0697
 30
0.0467
 70
192
 0
VERTEX
 8
GRASS_20
 10
0.0018
 20
-0.0702
 30
-0.0018
 70
192
 0
VERTEX
 8
GRASS_20
 10
0.0097
 20
-0.0769
 30
-0.0018
 70
192
 0
VERTEX
 8
GRASS_20
 10
0.0106
 20
-0.0777
 30
0.0796
 70
192
 0
VERTEX
 8
GRASS_20
 10
0.0009
 20
-0.0694
 30
0.0796
 70
192
 0
VERTEX
 8
GRASS_20
 10
0.0094
 20
-0.0821
 30
0.113
 70
192
 0
VERTEX
 8
GRASS_20
 10
-0.0008
 20
-0.0735
 30
0.113
 70
192
 0
VERTEX
 8
GRASS_20
 10
0.0045
 20
-0.0961
 30
0.1577
 70
192
 0
VERTEX
 8
GRASS_20
 10
-0.0057
 20
-0.0875
 30
0.1577
 70
192
 0
VERTEX
 8
GRASS_20
 10
-0.0027
 20
-0.1144
 30
0.1823
 70
192
 0
VERTEX
 8
GRASS_20
 10
-0.0117
 20
-0.1069
 30
0.1823
 70
192
 0
VERTEX
 8
GRASS_20
 10
-0.0085
 20
-0.1257
 30
0.1892
 70
192
 0
VERTEX
 8
GRASS_20
 10
-0.0146
 20
-0.1206
 30
0.1892
 70
192
 0
VERTEX
 8
GRASS_20
 10
-0.0202
 20
-0.1497
 30
0.1823
 70
192
 0
VERTEX
 8
GRASS_20
 10
-0.0212
 20
-0.1489
 30
0.1823
 70
192
 0
VERTEX
 8
GRASS_20
 10
-0.0228
 20
-0.1554
 30
0.1748
 70
192
 0
VERTEX
 8
GRASS_20
 10
0.0054
 20
-0.0747
 30
0.0467
 70
192
 0
VERTEX
 8
GRASS_20
 10
0.0058
 20
-0.0736
 30
-0.0018
 70
192
 0
VERTEX
 8
GRASS_20
 10
0.0051
 20
-0.0754
 30
0.0796
 70
192
 0
VERTEX
 8
GRASS_20
 10
0.0035
 20
-0.0802
 30
0.1101
 70
192
 0
VERTEX
 8
GRASS_20
 10
-0.0013
 20
-0.0938
 30
0.1535
 70
192
 0
VERTEX
 8
GRASS_20
 10
-0.0073
 20
-0.1111
 30
0.1785
 70
192
 0
VERTEX
 8
GRASS_20
 10
-0.0115
 20
-0.123
 30
0.187
 70
192
 0
VERTEX
 8
GRASS_20
 10
-0.0207
 20
-0.1493
 30
0.1823
 70
192
 0
VERTEX
 8
GRASS_20
 10
0.0103
 20
-0.0774
 30
0.0467
 70
192
 0
VERTEX
 8
GRASS_20
 10
0.0012
 20
-0.0697
 30
0.0467
 70
192
 0
VERTEX
 8
GRASS_20
 10
0.0018
 20
-0.0702
 30
-0.0018
 70
192
 0
VERTEX
 8
GRASS_20
 10
0.0097
 20
-0.0769
 30
-0.0018
 70
192
 0
VERTEX
 8
GRASS_20
 10
0.0106
 20
-0.0777
 30
0.0796
 70
192
 0
VERTEX
 8
GRASS_20
 10
0.0009
 20
-0.0694
 30
0.0796
 70
192
 0
VERTEX
 8
GRASS_20
 10
0.0094
 20
-0.0821
 30
0.113
 70
192
 0
VERTEX
 8
GRASS_20
 10
-0.0008
 20
-0.0735
 30
0.113
 70
192
 0
VERTEX
 8
GRASS_20
 10
0.0045
 20
-0.0961
 30
0.1577
 70
192
 0
VERTEX
 8
GRASS_20
 10
-0.0057
 20
-0.0875
 30
0.1577
 70
192
 0
VERTEX
 8
GRASS_20
 10
-0.0027
 20
-0.1144
 30
0.1823
 70
192
 0
VERTEX
 8
GRASS_20
 10
-0.0117
 20
-0.1069
 30
0.1823
 70
192
 0
VERTEX
 8
GRASS_20
 10
-0.0085
 20
-0.1257
 30
0.1892
 70
192
 0
VERTEX
 8
GRASS_20
 10
-0.0146
 20
-0.1206
 30
0.1892
 70
192
 0
VERTEX
 8
GRASS_20
 10
-0.0202
 20
-0.1497
 30
0.1823
 70
192
 0
VERTEX
 8
GRASS_20
 10
-0.0212
 20
-0.1489
 30
0.1823
 70
192
 0
VERTEX
 8
GRASS_20
 10
-0.0228
 20
-0.1554
 30
0.1748
 70
192
 0
VERTEX
 8
GRASS_20
 10
0.0054
 20
-0.0747
 30
0.0467
 70
192
 0
VERTEX
 8
GRASS_20
 10
0.0058
 20
-0.0736
 30
-0.0018
 70
192
 0
VERTEX
 8
GRASS_20
 10
0.0051
 20
-0.0754
 30
0.0796
 70
192
 0
VERTEX
 8
GRASS_20
 10
0.0035
 20
-0.0802
 30
0.1101
 70
192
 0
VERTEX
 8
GRASS_20
 10
-0.0013
 20
-0.0938
 30
0.1535
 70
192
 0
VERTEX
 8
GRASS_20
 10
-0.0073
 20
-0.1111
 30
0.1785
 70
192
 0
VERTEX
 8
GRASS_20
 10
-0.0115
 20
-0.123
 30
0.187
 70
192
 0
VERTEX
 8
GRASS_20
 10
-0.0207
 20
-0.1493
 30
0.1823
 70
192
 0
VERTEX
 8
GRASS_20
 10
0.043
 20
-0.0616
 30
0.0399
 70
192
 0
VERTEX
 8
GRASS_20
 10
0.0365
 20
-0.0532
 30
0.0412
 70
192
 0
VERTEX
 8
GRASS_20
 10
0.0374
 20
-0.0475
 30
-0.0018
 70
192
 0
VERTEX
 8
GRASS_20
 10
0.043
 20
-0.0549
 30
-0.0018
 70
192
 0
VERTEX
 8
GRASS_20
 10
0.0395
 20
-0.0693
 30
0.0639
 70
192
 0
VERTEX
 8
GRASS_20
 10
0.0325
 20
-0.0604
 30
0.0653
 70
192
 0
VERTEX
 8
GRASS_20
 10
0.0253
 20
-0.0879
 30
0.1065
 70
192
 0
VERTEX
 8
GRASS_20
 10
0.0177
 20
-0.0789
 30
0.1083
 70
192
 0
VERTEX
 8
GRASS_20
 10
0.0077
 20
-0.1096
 30
0.1346
 70
192
 0
VERTEX
 8
GRASS_20
 10
0
 20
-0.1006
 30
0.1364
 70
192
 0
VERTEX
 8
GRASS_20
 10
-0.0099
 20
-0.1297
 30
0.1603
 70
192
 0
VERTEX
 8
GRASS_20
 10
-0.0166
 20
-0.1218
 30
0.1619
 70
192
 0
VERTEX
 8
GRASS_20
 10
-0.024
 20
-0.1422
 30
0.1724
 70
192
 0
VERTEX
 8
GRASS_20
 10
-0.0285
 20
-0.1368
 30
0.1734
 70
192
 0
VERTEX
 8
GRASS_20
 10
-0.0506
 20
-0.1621
 30
0.1779
 70
192
 0
VERTEX
 8
GRASS_20
 10
-0.0513
 20
-0.1613
 30
0.1781
 70
192
 0
VERTEX
 8
GRASS_20
 10
-0.059
 20
-0.169
 30
0.1764
 70
192
 0
VERTEX
 8
GRASS_20
 10
0.0388
 20
-0.058
 30
0.0399
 70
192
 0
VERTEX
 8
GRASS_20
 10
0.0402
 20
-0.0512
 30
-0.0018
 70
192
 0
VERTEX
 8
GRASS_20
 10
0.0344
 20
-0.0659
 30
0.0636
 70
192
 0
VERTEX
 8
GRASS_20
 10
0.0195
 20
-0.0847
 30
0.1053
 70
192
 0
VERTEX
 8
GRASS_20
 10
0.0022
 20
-0.1058
 30
0.1327
 70
192
 0
VERTEX
 8
GRASS_20
 10
-0.0143
 20
-0.1262
 30
0.1593
 70
192
 0
VERTEX
 8
GRASS_20
 10
-0.0262
 20
-0.1392
 30
0.1713
 70
192
 0
VERTEX
 8
GRASS_20
 10
-0.0509
 20
-0.1617
 30
0.178
 70
192
 0
VERTEX
 8
GRASS_20
 10
0.043
 20
-0.0616
 30
0.0399
 70
192
 0
VERTEX
 8
GRASS_20
 10
0.0365
 20
-0.0532
 30
0.0412
 70
192
 0
VERTEX
 8
GRASS_20
 10
0.0374
 20
-0.0475
 30
-0.0018
 70
192
 0
VERTEX
 8
GRASS_20
 10
0.043
 20
-0.0549
 30
-0.0018
 70
192
 0
VERTEX
 8
GRASS_20
 10
0.0395
 20
-0.0693
 30
0.0639
 70
192
 0
VERTEX
 8
GRASS_20
 10
0.0325
 20
-0.0604
 30
0.0653
 70
192
 0
VERTEX
 8
GRASS_20
 10
0.0253
 20
-0.0879
 30
0.1065
 70
192
 0
VERTEX
 8
GRASS_20
 10
0.0177
 20
-0.0789
 30
0.1083
 70
192
 0
VERTEX
 8
GRASS_20
 10
0.0077
 20
-0.1096
 30
0.1346
 70
192
 0
VERTEX
 8
GRASS_20
 10
0
 20
-0.1006
 30
0.1364
 70
192
 0
VERTEX
 8
GRASS_20
 10
-0.0099
 20
-0.1297
 30
0.1603
 70
192
 0
VERTEX
 8
GRASS_20
 10
-0.0166
 20
-0.1218
 30
0.1619
 70
192
 0
VERTEX
 8
GRASS_20
 10
-0.024
 20
-0.1422
 30
0.1724
 70
192
 0
VERTEX
 8
GRASS_20
 10
-0.0285
 20
-0.1368
 30
0.1734
 70
192
 0
VERTEX
 8
GRASS_20
 10
-0.0506
 20
-0.1621
 30
0.1779
 70
192
 0
VERTEX
 8
GRASS_20
 10
-0.0513
 20
-0.1613
 30
0.1781
 70
192
 0
VERTEX
 8
GRASS_20
 10
-0.059
 20
-0.169
 30
0.1764
 70
192
 0
VERTEX
 8
GRASS_20
 10
0.0388
 20
-0.058
 30
0.0399
 70
192
 0
VERTEX
 8
GRASS_20
 10
0.0402
 20
-0.0512
 30
-0.0018
 70
192
 0
VERTEX
 8
GRASS_20
 10
0.0344
 20
-0.0659
 30
0.0636
 70
192
 0
VERTEX
 8
GRASS_20
 10
0.0195
 20
-0.0847
 30
0.1053
 70
192
 0
VERTEX
 8
GRASS_20
 10
0.0022
 20
-0.1058
 30
0.1327
 70
192
 0
VERTEX
 8
GRASS_20
 10
-0.0143
 20
-0.1262
 30
0.1593
 70
192
 0
VERTEX
 8
GRASS_20
 10
-0.0262
 20
-0.1392
 30
0.1713
 70
192
 0
VERTEX
 8
GRASS_20
 10
-0.0509
 20
-0.1617
 30
0.178
 70
192
 0
VERTEX
 8
GRASS_20
 10
0.0058
 20
-0.0322
 30
0.0327
 70
192
 0
VERTEX
 8
GRASS_20
 10
0.0121
 20
-0.0258
 30
0.0327
 70
192
 0
VERTEX
 8
GRASS_20
 10
0.0124
 20
-0.0268
 30
-0.0018
 70
192
 0
VERTEX
 8
GRASS_20
 10
0.0069
 20
-0.0325
 30
-0.0018
 70
192
 0
VERTEX
 8
GRASS_20
 10
0.0044
 20
-0.0313
 30
0.0541
 70
192
 0
VERTEX
 8
GRASS_20
 10
0.0112
 20
-0.0244
 30
0.0541
 70
192
 0
VERTEX
 8
GRASS_20
 10
-0.0016
 20
-0.0256
 30
0.0834
 70
192
 0
VERTEX
 8
GRASS_20
 10
0.0055
 20
-0.0184
 30
0.0834
 70
192
 0
VERTEX
 8
GRASS_20
 10
-0.0097
 20
-0.0177
 30
0.1146
 70
192
 0
VERTEX
 8
GRASS_20
 10
-0.0026
 20
-0.0105
 30
0.1146
 70
192
 0
VERTEX
 8
GRASS_20
 10
-0.0176
 20
-0.009
 30
0.1436
 70
192
 0
VERTEX
 8
GRASS_20
 10
-0.0114
 20
-0.0027
 30
0.1436
 70
192
 0
VERTEX
 8
GRASS_20
 10
-0.0255
 20
0.0007
 30
0.1593
 70
192
 0
VERTEX
 8
GRASS_20
 10
-0.0212
 20
0.0051
 30
0.1593
 70
192
 0
VERTEX
 8
GRASS_20
 10
-0.0465
 20
0.025
 30
0.1752
 70
192
 0
VERTEX
 8
GRASS_20
 10
-0.0458
 20
0.0257
 30
0.1752
 70
192
 0
VERTEX
 8
GRASS_20
 10
-0.0509
 20
0.03
 30
0.1743
 70
192
 0
VERTEX
 8
GRASS_20
 10
0.0079
 20
-0.028
 30
0.0324
 70
192
 0
VERTEX
 8
GRASS_20
 10
0.0096
 20
-0.0297
 30
-0.0018
 70
192
 0
VERTEX
 8
GRASS_20
 10
0.006
 20
-0.0261
 30
0.0536
 70
192
 0
VERTEX
 8
GRASS_20
 10
-0.0008
 20
-0.0194
 30
0.0826
 70
192
 0
VERTEX
 8
GRASS_20
 10
-0.0087
 20
-0.0116
 30
0.1131
 70
192
 0
VERTEX
 8
GRASS_20
 10
-0.0162
 20
-0.0042
 30
0.1426
 70
192
 0
VERTEX
 8
GRASS_20
 10
-0.0239
 20
0.0034
 30
0.158
 70
192
 0
VERTEX
 8
GRASS_20
 10
-0.0462
 20
0.0253
 30
0.1752
 70
192
 0
VERTEX
 8
GRASS_20
 10
0.0058
 20
-0.0322
 30
0.0327
 70
192
 0
VERTEX
 8
GRASS_20
 10
0.0121
 20
-0.0258
 30
0.0327
 70
192
 0
VERTEX
 8
GRASS_20
 10
0.0124
 20
-0.0268
 30
-0.0018
 70
192
 0
VERTEX
 8
GRASS_20
 10
0.0069
 20
-0.0325
 30
-0.0018
 70
192
 0
VERTEX
 8
GRASS_20
 10
0.0044
 20
-0.0313
 30
0.0541
 70
192
 0
VERTEX
 8
GRASS_20
 10
0.0112
 20
-0.0244
 30
0.0541
 70
192
 0
VERTEX
 8
GRASS_20
 10
-0.0016
 20
-0.0256
 30
0.0834
 70
192
 0
VERTEX
 8
GRASS_20
 10
0.0055
 20
-0.0184
 30
0.0834
 70
192
 0
VERTEX
 8
GRASS_20
 10
-0.0097
 20
-0.0177
 30
0.1146
 70
192
 0
VERTEX
 8
GRASS_20
 10
-0.0026
 20
-0.0105
 30
0.1146
 70
192
 0
VERTEX
 8
GRASS_20
 10
-0.0176
 20
-0.009
 30
0.1436
 70
192
 0
VERTEX
 8
GRASS_20
 10
-0.0114
 20
-0.0027
 30
0.1436
 70
192
 0
VERTEX
 8
GRASS_20
 10
-0.0255
 20
0.0007
 30
0.1593
 70
192
 0
VERTEX
 8
GRASS_20
 10
-0.0212
 20
0.0051
 30
0.1593
 70
192
 0
VERTEX
 8
GRASS_20
 10
-0.0465
 20
0.025
 30
0.1752
 70
192
 0
VERTEX
 8
GRASS_20
 10
-0.0458
 20
0.0257
 30
0.1752
 70
192
 0
VERTEX
 8
GRASS_20
 10
-0.0509
 20
0.03
 30
0.1743
 70
192
 0
VERTEX
 8
GRASS_20
 10
0.0079
 20
-0.028
 30
0.0324
 70
192
 0
VERTEX
 8
GRASS_20
 10
0.0096
 20
-0.0297
 30
-0.0018
 70
192
 0
VERTEX
 8
GRASS_20
 10
0.006
 20
-0.0261
 30
0.0536
 70
192
 0
VERTEX
 8
GRASS_20
 10
-0.0008
 20
-0.0194
 30
0.0826
 70
192
 0
VERTEX
 8
GRASS_20
 10
-0.0087
 20
-0.0116
 30
0.1131
 70
192
 0
VERTEX
 8
GRASS_20
 10
-0.0162
 20
-0.0042
 30
0.1426
 70
192
 0
VERTEX
 8
GRASS_20
 10
-0.0239
 20
0.0034
 30
0.158
 70
192
 0
VERTEX
 8
GRASS_20
 10
-0.0462
 20
0.0253
 30
0.1752
 70
192
 0
VERTEX
 8
GRASS_20
 10
-0.0122
 20
-0.0773
 30
0.0556
 70
192
 0
VERTEX
 8
GRASS_20
 10
-0.0196
 20
-0.065
 30
0.0561
 70
192
 0
VERTEX
 8
GRASS_20
 10
-0.0149
 20
-0.0608
 30
-0.0018
 70
192
 0
VERTEX
 8
GRASS_20
 10
-0.0083
 20
-0.0717
 30
-0.0018
 70
192
 0
VERTEX
 8
GRASS_20
 10
-0.0147
 20
-0.081
 30
0.0903
 70
192
 0
VERTEX
 8
GRASS_20
 10
-0.0227
 20
-0.0677
 30
0.0908
 70
192
 0
VERTEX
 8
GRASS_20
 10
-0.0222
 20
-0.0874
 30
0.1248
 70
192
 0
VERTEX
 8
GRASS_20
 10
-0.0305
 20
-0.0735
 30
0.1254
 70
192
 0
VERTEX
 8
GRASS_20
 10
-0.0418
 20
-0.1012
 30
0.1697
 70
192
 0
VERTEX
 8
GRASS_20
 10
-0.0502
 20
-0.0873
 30
0.1703
 70
192
 0
VERTEX
 8
GRASS_20
 10
-0.0658
 20
-0.1155
 30
0.1928
 70
192
 0
VERTEX
 8
GRASS_20
 10
-0.0732
 20
-0.1033
 30
0.1933
 70
192
 0
VERTEX
 8
GRASS_20
 10
-0.0818
 20
-0.1227
 30
0.1982
 70
192
 0
VERTEX
 8
GRASS_20
 10
-0.0868
 20
-0.1143
 30
0.1986
 70
192
 0
VERTEX
 8
GRASS_20
 10
-0.113
 20
-0.1363
 30
0.1871
 70
192
 0
VERTEX
 8
GRASS_20
 10
-0.1138
 20
-0.1349
 30
0.1872
 70
192
 0
VERTEX
 8
GRASS_20
 10
-0.1197
 20
-0.139
 30
0.1783
 70
192
 0
VERTEX
 8
GRASS_20
 10
-0.0171
 20
-0.0719
 30
0.0557
 70
192
 0
VERTEX
 8
GRASS_20
 10
-0.0116
 20
-0.0663
 30
-0.0018
 70
192
 0
VERTEX
 8
GRASS_20
 10
-0.0208
 20
-0.0756
 30
0.0903
 70
192
 0
VERTEX
 8
GRASS_20
 10
-0.0288
 20
-0.0818
 30
0.1217
 70
192
 0
VERTEX
 8
GRASS_20
 10
-0.0478
 20
-0.0952
 30
0.1653
 70
192
 0
VERTEX
 8
GRASS_20
 10
-0.0697
 20
-0.1093
 30
0.189
 70
192
 0
VERTEX
 8
GRASS_20
 10
-0.0839
 20
-0.1182
 30
0.1961
 70
192
 0
VERTEX
 8
GRASS_20
 10
-0.1134
 20
-0.1356
 30
0.1871
 70
192
 0
VERTEX
 8
GRASS_20
 10
-0.0122
 20
-0.0773
 30
0.0556
 70
192
 0
VERTEX
 8
GRASS_20
 10
-0.0196
 20
-0.065
 30
0.0561
 70
192
 0
VERTEX
 8
GRASS_20
 10
-0.0149
 20
-0.0608
 30
-0.0018
 70
192
 0
VERTEX
 8
GRASS_20
 10
-0.0083
 20
-0.0717
 30
-0.0018
 70
192
 0
VERTEX
 8
GRASS_20
 10
-0.0147
 20
-0.081
 30
0.0903
 70
192
 0
VERTEX
 8
GRASS_20
 10
-0.0227
 20
-0.0677
 30
0.0908
 70
192
 0
VERTEX
 8
GRASS_20
 10
-0.0222
 20
-0.0874
 30
0.1248
 70
192
 0
VERTEX
 8
GRASS_20
 10
-0.0305
 20
-0.0735
 30
0.1254
 70
192
 0
VERTEX
 8
GRASS_20
 10
-0.0418
 20
-0.1012
 30
0.1697
 70
192
 0
VERTEX
 8
GRASS_20
 10
-0.0502
 20
-0.0873
 30
0.1703
 70
192
 0
VERTEX
 8
GRASS_20
 10
-0.0658
 20
-0.1155
 30
0.1928
 70
192
 0
VERTEX
 8
GRASS_20
 10
-0.0732
 20
-0.1033
 30
0.1933
 70
192
 0
VERTEX
 8
GRASS_20
 10
-0.0818
 20
-0.1227
 30
0.1982
 70
192
 0
VERTEX
 8
GRASS_20
 10
-0.0868
 20
-0.1143
 30
0.1986
 70
192
 0
VERTEX
 8
GRASS_20
 10
-0.113
 20
-0.1363
 30
0.1871
 70
192
 0
VERTEX
 8
GRASS_20
 10
-0.1138
 20
-0.1349
 30
0.1872
 70
192
 0
VERTEX
 8
GRASS_20
 10
-0.1197
 20
-0.139
 30
0.1783
 70
192
 0
VERTEX
 8
GRASS_20
 10
-0.0171
 20
-0.0719
 30
0.0557
 70
192
 0
VERTEX
 8
GRASS_20
 10
-0.0116
 20
-0.0663
 30
-0.0018
 70
192
 0
VERTEX
 8
GRASS_20
 10
-0.0208
 20
-0.0756
 30
0.0903
 70
192
 0
VERTEX
 8
GRASS_20
 10
-0.0288
 20
-0.0818
 30
0.1217
 70
192
 0
VERTEX
 8
GRASS_20
 10
-0.0478
 20
-0.0952
 30
0.1653
 70
192
 0
VERTEX
 8
GRASS_20
 10
-0.0697
 20
-0.1093
 30
0.189
 70
192
 0
VERTEX
 8
GRASS_20
 10
-0.0839
 20
-0.1182
 30
0.1961
 70
192
 0
VERTEX
 8
GRASS_20
 10
-0.1134
 20
-0.1356
 30
0.1871
 70
192
 0
VERTEX
 8
GRASS_20
 10
0
 20
0
 30
0
 70
128
 71
19
 72
3
 73
2
 74
18
 0
VERTEX
 8
GRASS_20
 10
0
 20
0
 30
0
 70
128
 71
18
 72
20
 73
5
 74
1
 0
VERTEX
 8
GRASS_20
 10
0
 20
0
 30
0
 70
128
 71
20
 72
6
 73
8
 74
21
 0
VERTEX
 8
GRASS_20
 10
0
 20
0
 30
0
 70
128
 71
21
 72
8
 73
10
 74
22
 0
VERTEX
 8
GRASS_20
 10
0
 20
0
 30
0
 70
128
 71
22
 72
10
 73
12
 74
23
 0
VERTEX
 8
GRASS_20
 10
0
 20
0
 30
0
 70
128
 71
23
 72
12
 73
14
 74
24
 0
VERTEX
 8
GRASS_20
 10
0
 20
0
 30
0
 70
128
 71
24
 72
14
 73
16
 74
25
 0
VERTEX
 8
GRASS_20
 10
0
 20
0
 30
0
 70
128
 71
17
 72
15
 73
25
 74
25
 0
VERTEX
 8
GRASS_20
 10
0
 20
0
 30
0
 70
128
 71
18
 72
1
 73
4
 74
19
 0
VERTEX
 8
GRASS_20
 10
0
 20
0
 30
0
 70
128
 71
18
 72
2
 73
6
 74
20
 0
VERTEX
 8
GRASS_20
 10
0
 20
0
 30
0
 70
128
 71
21
 72
7
 73
5
 74
20
 0
VERTEX
 8
GRASS_20
 10
0
 20
0
 30
0
 70
128
 71
22
 72
9
 73
7
 74
21
 0
VERTEX
 8
GRASS_20
 10
0
 20
0
 30
0
 70
128
 71
23
 72
11
 73
9
 74
22
 0
VERTEX
 8
GRASS_20
 10
0
 20
0
 30
0
 70
128
 71
24
 72
13
 73
11
 74
23
 0
VERTEX
 8
GRASS_20
 10
0
 20
0
 30
0
 70
128
 71
25
 72
15
 73
13
 74
24
 0
VERTEX
 8
GRASS_20
 10
0
 20
0
 30
0
 70
128
 71
25
 72
16
 73
17
 74
17
 0
VERTEX
 8
GRASS_20
 10
0
 20
0
 30
0
 70
128
 71
43
 72
27
 73
28
 74
44
 0
VERTEX
 8
GRASS_20
 10
0
 20
0
 30
0
 70
128
 71
26
 72
30
 73
45
 74
43
 0
VERTEX
 8
GRASS_20
 10
0
 20
0
 30
0
 70
128
 71
46
 72
33
 73
31
 74
45
 0
VERTEX
 8
GRASS_20
 10
0
 20
0
 30
0
 70
128
 71
47
 72
35
 73
33
 74
46
 0
VERTEX
 8
GRASS_20
 10
0
 20
0
 30
0
 70
128
 71
48
 72
37
 73
35
 74
47
 0
VERTEX
 8
GRASS_20
 10
0
 20
0
 30
0
 70
128
 71
49
 72
39
 73
37
 74
48
 0
VERTEX
 8
GRASS_20
 10
0
 20
0
 30
0
 70
128
 71
50
 72
41
 73
39
 74
49
 0
VERTEX
 8
GRASS_20
 10
0
 20
0
 30
0
 70
128
 71
50
 72
40
 73
42
 74
42
 0
VERTEX
 8
GRASS_20
 10
0
 20
0
 30
0
 70
128
 71
44
 72
29
 73
26
 74
43
 0
VERTEX
 8
GRASS_20
 10
0
 20
0
 30
0
 70
128
 71
45
 72
31
 73
27
 74
43
 0
VERTEX
 8
GRASS_20
 10
0
 20
0
 30
0
 70
128
 71
45
 72
30
 73
32
 74
46
 0
VERTEX
 8
GRASS_20
 10
0
 20
0
 30
0
 70
128
 71
46
 72
32
 73
34
 74
47
 0
VERTEX
 8
GRASS_20
 10
0
 20
0
 30
0
 70
128
 71
47
 72
34
 73
36
 74
48
 0
VERTEX
 8
GRASS_20
 10
0
 20
0
 30
0
 70
128
 71
48
 72
36
 73
38
 74
49
 0
VERTEX
 8
GRASS_20
 10
0
 20
0
 30
0
 70
128
 71
49
 72
38
 73
40
 74
50
 0
VERTEX
 8
GRASS_20
 10
0
 20
0
 30
0
 70
128
 71
42
 72
41
 73
50
 74
50
 0
VERTEX
 8
GRASS_20
 10
0
 20
0
 30
0
 70
128
 71
69
 72
53
 73
52
 74
68
 0
VERTEX
 8
GRASS_20
 10
0
 20
0
 30
0
 70
128
 71
68
 72
70
 73
55
 74
51
 0
VERTEX
 8
GRASS_20
 10
0
 20
0
 30
0
 70
128
 71
70
 72
56
 73
58
 74
71
 0
VERTEX
 8
GRASS_20
 10
0
 20
0
 30
0
 70
128
 71
71
 72
58
 73
60
 74
72
 0
VERTEX
 8
GRASS_20
 10
0
 20
0
 30
0
 70
128
 71
72
 72
60
 73
62
 74
73
 0
VERTEX
 8
GRASS_20
 10
0
 20
0
 30
0
 70
128
 71
73
 72
62
 73
64
 74
74
 0
VERTEX
 8
GRASS_20
 10
0
 20
0
 30
0
 70
128
 71
74
 72
64
 73
66
 74
75
 0
VERTEX
 8
GRASS_20
 10
0
 20
0
 30
0
 70
128
 71
67
 72
65
 73
75
 74
75
 0
VERTEX
 8
GRASS_20
 10
0
 20
0
 30
0
 70
128
 71
68
 72
51
 73
54
 74
69
 0
VERTEX
 8
GRASS_20
 10
0
 20
0
 30
0
 70
128
 71
68
 72
52
 73
56
 74
70
 0
VERTEX
 8
GRASS_20
 10
0
 20
0
 30
0
 70
128
 71
71
 72
57
 73
55
 74
70
 0
VERTEX
 8
GRASS_20
 10
0
 20
0
 30
0
 70
128
 71
72
 72
59
 73
57
 74
71
 0
VERTEX
 8
GRASS_20
 10
0
 20
0
 30
0
 70
128
 71
73
 72
61
 73
59
 74
72
 0
VERTEX
 8
GRASS_20
 10
0
 20
0
 30
0
 70
128
 71
74
 72
63
 73
61
 74
73
 0
VERTEX
 8
GRASS_20
 10
0
 20
0
 30
0
 70
128
 71
75
 72
65
 73
63
 74
74
 0
VERTEX
 8
GRASS_20
 10
0
 20
0
 30
0
 70
128
 71
75
 72
66
 73
67
 74
67
 0
VERTEX
 8
GRASS_20
 10
0
 20
0
 30
0
 70
128
 71
93
 72
77
 73
78
 74
94
 0
VERTEX
 8
GRASS_20
 10
0
 20
0
 30
0
 70
128
 71
76
 72
80
 73
95
 74
93
 0
VERTEX
 8
GRASS_20
 10
0
 20
0
 30
0
 70
128
 71
96
 72
83
 73
81
 74
95
 0
VERTEX
 8
GRASS_20
 10
0
 20
0
 30
0
 70
128
 71
97
 72
85
 73
83
 74
96
 0
VERTEX
 8
GRASS_20
 10
0
 20
0
 30
0
 70
128
 71
98
 72
87
 73
85
 74
97
 0
VERTEX
 8
GRASS_20
 10
0
 20
0
 30
0
 70
128
 71
99
 72
89
 73
87
 74
98
 0
VERTEX
 8
GRASS_20
 10
0
 20
0
 30
0
 70
128
 71
100
 72
91
 73
89
 74
99
 0
VERTEX
 8
GRASS_20
 10
0
 20
0
 30
0
 70
128
 71
100
 72
90
 73
92
 74
92
 0
VERTEX
 8
GRASS_20
 10
0
 20
0
 30
0
 70
128
 71
94
 72
79
 73
76
 74
93
 0
VERTEX
 8
GRASS_20
 10
0
 20
0
 30
0
 70
128
 71
95
 72
81
 73
77
 74
93
 0
VERTEX
 8
GRASS_20
 10
0
 20
0
 30
0
 70
128
 71
95
 72
80
 73
82
 74
96
 0
VERTEX
 8
GRASS_20
 10
0
 20
0
 30
0
 70
128
 71
96
 72
82
 73
84
 74
97
 0
VERTEX
 8
GRASS_20
 10
0
 20
0
 30
0
 70
128
 71
97
 72
84
 73
86
 74
98
 0
VERTEX
 8
GRASS_20
 10
0
 20
0
 30
0
 70
128
 71
98
 72
86
 73
88
 74
99
 0
VERTEX
 8
GRASS_20
 10
0
 20
0
 30
0
 70
128
 71
99
 72
88
 73
90
 74
100
 0
VERTEX
 8
GRASS_20
 10
0
 20
0
 30
0
 70
128
 71
92
 72
91
 73
100
 74
100
 0
VERTEX
 8
GRASS_20
 10
0
 20
0
 30
0
 70
128
 71
147
 72
134
 73
136
 74
148
 0
VERTEX
 8
GRASS_20
 10
0
 20
0
 30
0
 70
128
 71
142
 72
141
 73
150
 74
150
 0
VERTEX
 8
GRASS_20
 10
0
 20
0
 30
0
 70
128
 71
120
 72
106
 73
108
 74
121
 0
VERTEX
 8
GRASS_20
 10
0
 20
0
 30
0
 70
128
 71
121
 72
108
 73
110
 74
122
 0
VERTEX
 8
GRASS_20
 10
0
 20
0
 30
0
 70
128
 71
122
 72
110
 73
112
 74
123
 0
VERTEX
 8
GRASS_20
 10
0
 20
0
 30
0
 70
128
 71
123
 72
112
 73
114
 74
124
 0
VERTEX
 8
GRASS_20
 10
0
 20
0
 30
0
 70
128
 71
124
 72
114
 73
116
 74
125
 0
VERTEX
 8
GRASS_20
 10
0
 20
0
 30
0
 70
128
 71
117
 72
115
 73
125
 74
125
 0
VERTEX
 8
GRASS_20
 10
0
 20
0
 30
0
 70
128
 71
148
 72
136
 73
138
 74
149
 0
VERTEX
 8
GRASS_20
 10
0
 20
0
 30
0
 70
128
 71
146
 72
132
 73
134
 74
147
 0
VERTEX
 8
GRASS_20
 10
0
 20
0
 30
0
 70
128
 71
121
 72
107
 73
105
 74
120
 0
VERTEX
 8
GRASS_20
 10
0
 20
0
 30
0
 70
128
 71
122
 72
109
 73
107
 74
121
 0
VERTEX
 8
GRASS_20
 10
0
 20
0
 30
0
 70
128
 71
123
 72
111
 73
109
 74
122
 0
VERTEX
 8
GRASS_20
 10
0
 20
0
 30
0
 70
128
 71
124
 72
113
 73
111
 74
123
 0
VERTEX
 8
GRASS_20
 10
0
 20
0
 30
0
 70
128
 71
125
 72
115
 73
113
 74
124
 0
VERTEX
 8
GRASS_20
 10
0
 20
0
 30
0
 70
128
 71
125
 72
116
 73
117
 74
117
 0
VERTEX
 8
GRASS_20
 10
0
 20
0
 30
0
 70
128
 71
149
 72
138
 73
140
 74
150
 0
VERTEX
 8
GRASS_20
 10
0
 20
0
 30
0
 70
128
 71
145
 72
130
 73
132
 74
146
 0
VERTEX
 8
GRASS_20
 10
0
 20
0
 30
0
 70
128
 71
146
 72
133
 73
131
 74
145
 0
VERTEX
 8
GRASS_20
 10
0
 20
0
 30
0
 70
128
 71
147
 72
135
 73
133
 74
146
 0
VERTEX
 8
GRASS_20
 10
0
 20
0
 30
0
 70
128
 71
148
 72
137
 73
135
 74
147
 0
VERTEX
 8
GRASS_20
 10
0
 20
0
 30
0
 70
128
 71
149
 72
139
 73
137
 74
148
 0
VERTEX
 8
GRASS_20
 10
0
 20
0
 30
0
 70
128
 71
150
 72
141
 73
139
 74
149
 0
VERTEX
 8
GRASS_20
 10
0
 20
0
 30
0
 70
128
 71
150
 72
140
 73
142
 74
142
 0
VERTEX
 8
GRASS_20
 10
0
 20
0
 30
0
 70
128
 71
168
 72
152
 73
153
 74
169
 0
VERTEX
 8
GRASS_20
 10
0
 20
0
 30
0
 70
128
 71
151
 72
155
 73
170
 74
168
 0
VERTEX
 8
GRASS_20
 10
0
 20
0
 30
0
 70
128
 71
171
 72
158
 73
156
 74
170
 0
VERTEX
 8
GRASS_20
 10
0
 20
0
 30
0
 70
128
 71
172
 72
160
 73
158
 74
171
 0
VERTEX
 8
GRASS_20
 10
0
 20
0
 30
0
 70
128
 71
173
 72
162
 73
160
 74
172
 0
VERTEX
 8
GRASS_20
 10
0
 20
0
 30
0
 70
128
 71
174
 72
164
 73
162
 74
173
 0
VERTEX
 8
GRASS_20
 10
0
 20
0
 30
0
 70
128
 71
175
 72
166
 73
164
 74
174
 0
VERTEX
 8
GRASS_20
 10
0
 20
0
 30
0
 70
128
 71
175
 72
165
 73
167
 74
167
 0
VERTEX
 8
GRASS_20
 10
0
 20
0
 30
0
 70
128
 71
169
 72
154
 73
151
 74
168
 0
VERTEX
 8
GRASS_20
 10
0
 20
0
 30
0
 70
128
 71
170
 72
156
 73
152
 74
168
 0
VERTEX
 8
GRASS_20
 10
0
 20
0
 30
0
 70
128
 71
170
 72
155
 73
157
 74
171
 0
VERTEX
 8
GRASS_20
 10
0
 20
0
 30
0
 70
128
 71
171
 72
157
 73
159
 74
172
 0
VERTEX
 8
GRASS_20
 10
0
 20
0
 30
0
 70
128
 71
172
 72
159
 73
161
 74
173
 0
VERTEX
 8
GRASS_20
 10
0
 20
0
 30
0
 70
128
 71
173
 72
161
 73
163
 74
174
 0
VERTEX
 8
GRASS_20
 10
0
 20
0
 30
0
 70
128
 71
174
 72
163
 73
165
 74
175
 0
VERTEX
 8
GRASS_20
 10
0
 20
0
 30
0
 70
128
 71
167
 72
166
 73
175
 74
175
 0
VERTEX
 8
GRASS_20
 10
0
 20
0
 30
0
 70
128
 71
194
 72
178
 73
177
 74
193
 0
VERTEX
 8
GRASS_20
 10
0
 20
0
 30
0
 70
128
 71
193
 72
195
 73
180
 74
176
 0
VERTEX
 8
GRASS_20
 10
0
 20
0
 30
0
 70
128
 71
195
 72
181
 73
183
 74
196
 0
VERTEX
 8
GRASS_20
 10
0
 20
0
 30
0
 70
128
 71
196
 72
183
 73
185
 74
197
 0
VERTEX
 8
GRASS_20
 10
0
 20
0
 30
0
 70
128
 71
197
 72
185
 73
187
 74
198
 0
VERTEX
 8
GRASS_20
 10
0
 20
0
 30
0
 70
128
 71
198
 72
187
 73
189
 74
199
 0
VERTEX
 8
GRASS_20
 10
0
 20
0
 30
0
 70
128
 71
199
 72
189
 73
191
 74
200
 0
VERTEX
 8
GRASS_20
 10
0
 20
0
 30
0
 70
128
 71
192
 72
190
 73
200
 74
200
 0
VERTEX
 8
GRASS_20
 10
0
 20
0
 30
0
 70
128
 71
193
 72
176
 73
179
 74
194
 0
VERTEX
 8
GRASS_20
 10
0
 20
0
 30
0
 70
128
 71
193
 72
177
 73
181
 74
195
 0
VERTEX
 8
GRASS_20
 10
0
 20
0
 30
0
 70
128
 71
196
 72
182
 73
180
 74
195
 0
VERTEX
 8
GRASS_20
 10
0
 20
0
 30
0
 70
128
 71
197
 72
184
 73
182
 74
196
 0
VERTEX
 8
GRASS_20
 10
0
 20
0
 30
0
 70
128
 71
198
 72
186
 73
184
 74
197
 0
VERTEX
 8
GRASS_20
 10
0
 20
0
 30
0
 70
128
 71
199
 72
188
 73
186
 74
198
 0
VERTEX
 8
GRASS_20
 10
0
 20
0
 30
0
 70
128
 71
200
 72
190
 73
188
 74
199
 0
VERTEX
 8
GRASS_20
 10
0
 20
0
 30
0
 70
128
 71
200
 72
191
 73
192
 74
192
 0
VERTEX
 8
GRASS_20
 10
0
 20
0
 30
0
 70
128
 71
219
 72
203
 73
202
 74
218
 0
VERTEX
 8
GRASS_20
 10
0
 20
0
 30
0
 70
128
 71
218
 72
220
 73
205
 74
201
 0
VERTEX
 8
GRASS_20
 10
0
 20
0
 30
0
 70
128
 71
220
 72
206
 73
208
 74
221
 0
VERTEX
 8
GRASS_20
 10
0
 20
0
 30
0
 70
128
 71
221
 72
208
 73
210
 74
222
 0
VERTEX
 8
GRASS_20
 10
0
 20
0
 30
0
 70
128
 71
222
 72
210
 73
212
 74
223
 0
VERTEX
 8
GRASS_20
 10
0
 20
0
 30
0
 70
128
 71
223
 72
212
 73
214
 74
224
 0
VERTEX
 8
GRASS_20
 10
0
 20
0
 30
0
 70
128
 71
224
 72
214
 73
216
 74
225
 0
VERTEX
 8
GRASS_20
 10
0
 20
0
 30
0
 70
128
 71
217
 72
215
 73
225
 74
225
 0
VERTEX
 8
GRASS_20
 10
0
 20
0
 30
0
 70
128
 71
218
 72
201
 73
204
 74
219
 0
VERTEX
 8
GRASS_20
 10
0
 20
0
 30
0
 70
128
 71
218
 72
202
 73
206
 74
220
 0
VERTEX
 8
GRASS_20
 10
0
 20
0
 30
0
 70
128
 71
221
 72
207
 73
205
 74
220
 0
VERTEX
 8
GRASS_20
 10
0
 20
0
 30
0
 70
128
 71
222
 72
209
 73
207
 74
221
 0
VERTEX
 8
GRASS_20
 10
0
 20
0
 30
0
 70
128
 71
223
 72
211
 73
209
 74
222
 0
VERTEX
 8
GRASS_20
 10
0
 20
0
 30
0
 70
128
 71
224
 72
213
 73
211
 74
223
 0
VERTEX
 8
GRASS_20
 10
0
 20
0
 30
0
 70
128
 71
225
 72
215
 73
213
 74
224
 0
VERTEX
 8
GRASS_20
 10
0
 20
0
 30
0
 70
128
 71
225
 72
216
 73
217
 74
217
 0
VERTEX
 8
GRASS_20
 10
0
 20
0
 30
0
 70
128
 71
243
 72
227
 73
228
 74
244
 0
VERTEX
 8
GRASS_20
 10
0
 20
0
 30
0
 70
128
 71
226
 72
230
 73
245
 74
243
 0
VERTEX
 8
GRASS_20
 10
0
 20
0
 30
0
 70
128
 71
246
 72
233
 73
231
 74
245
 0
VERTEX
 8
GRASS_20
 10
0
 20
0
 30
0
 70
128
 71
247
 72
235
 73
233
 74
246
 0
VERTEX
 8
GRASS_20
 10
0
 20
0
 30
0
 70
128
 71
248
 72
237
 73
235
 74
247
 0
VERTEX
 8
GRASS_20
 10
0
 20
0
 30
0
 70
128
 71
249
 72
239
 73
237
 74
248
 0
VERTEX
 8
GRASS_20
 10
0
 20
0
 30
0
 70
128
 71
250
 72
241
 73
239
 74
249
 0
VERTEX
 8
GRASS_20
 10
0
 20
0
 30
0
 70
128
 71
250
 72
240
 73
242
 74
242
 0
VERTEX
 8
GRASS_20
 10
0
 20
0
 30
0
 70
128
 71
244
 72
229
 73
226
 74
243
 0
VERTEX
 8
GRASS_20
 10
0
 20
0
 30
0
 70
128
 71
245
 72
231
 73
227
 74
243
 0
VERTEX
 8
GRASS_20
 10
0
 20
0
 30
0
 70
128
 71
245
 72
230
 73
232
 74
246
 0
VERTEX
 8
GRASS_20
 10
0
 20
0
 30
0
 70
128
 71
246
 72
232
 73
234
 74
247
 0
VERTEX
 8
GRASS_20
 10
0
 20
0
 30
0
 70
128
 71
247
 72
234
 73
236
 74
248
 0
VERTEX
 8
GRASS_20
 10
0
 20
0
 30
0
 70
128
 71
248
 72
236
 73
238
 74
249
 0
VERTEX
 8
GRASS_20
 10
0
 20
0
 30
0
 70
128
 71
249
 72
238
 73
240
 74
250
 0
VERTEX
 8
GRASS_20
 10
0
 20
0
 30
0
 70
128
 71
242
 72
241
 73
250
 74
250
 0
VERTEX
 8
GRASS_20
 10
0
 20
0
 30
0
 70
128
 71
269
 72
253
 73
252
 74
268
 0
VERTEX
 8
GRASS_20
 10
0
 20
0
 30
0
 70
128
 71
268
 72
270
 73
255
 74
251
 0
VERTEX
 8
GRASS_20
 10
0
 20
0
 30
0
 70
128
 71
270
 72
256
 73
258
 74
271
 0
VERTEX
 8
GRASS_20
 10
0
 20
0
 30
0
 70
128
 71
271
 72
258
 73
260
 74
272
 0
VERTEX
 8
GRASS_20
 10
0
 20
0
 30
0
 70
128
 71
272
 72
260
 73
262
 74
273
 0
VERTEX
 8
GRASS_20
 10
0
 20
0
 30
0
 70
128
 71
273
 72
262
 73
264
 74
274
 0
VERTEX
 8
GRASS_20
 10
0
 20
0
 30
0
 70
128
 71
274
 72
264
 73
266
 74
275
 0
VERTEX
 8
GRASS_20
 10
0
 20
0
 30
0
 70
128
 71
267
 72
265
 73
275
 74
275
 0
VERTEX
 8
GRASS_20
 10
0
 20
0
 30
0
 70
128
 71
268
 72
251
 73
254
 74
269
 0
VERTEX
 8
GRASS_20
 10
0
 20
0
 30
0
 70
128
 71
268
 72
252
 73
256
 74
270
 0
VERTEX
 8
GRASS_20
 10
0
 20
0
 30
0
 70
128
 71
271
 72
257
 73
255
 74
270
 0
VERTEX
 8
GRASS_20
 10
0
 20
0
 30
0
 70
128
 71
272
 72
259
 73
257
 74
271
 0
VERTEX
 8
GRASS_20
 10
0
 20
0
 30
0
 70
128
 71
273
 72
261
 73
259
 74
272
 0
VERTEX
 8
GRASS_20
 10
0
 20
0
 30
0
 70
128
 71
274
 72
263
 73
261
 74
273
 0
VERTEX
 8
GRASS_20
 10
0
 20
0
 30
0
 70
128
 71
275
 72
265
 73
263
 74
274
 0
VERTEX
 8
GRASS_20
 10
0
 20
0
 30
0
 70
128
 71
275
 72
266
 73
267
 74
267
 0
VERTEX
 8
GRASS_20
 10
0
 20
0
 30
0
 70
128
 71
293
 72
277
 73
278
 74
294
 0
VERTEX
 8
GRASS_20
 10
0
 20
0
 30
0
 70
128
 71
276
 72
280
 73
295
 74
293
 0
VERTEX
 8
GRASS_20
 10
0
 20
0
 30
0
 70
128
 71
296
 72
283
 73
281
 74
295
 0
VERTEX
 8
GRASS_20
 10
0
 20
0
 30
0
 70
128
 71
297
 72
285
 73
283
 74
296
 0
VERTEX
 8
GRASS_20
 10
0
 20
0
 30
0
 70
128
 71
298
 72
287
 73
285
 74
297
 0
VERTEX
 8
GRASS_20
 10
0
 20
0
 30
0
 70
128
 71
299
 72
289
 73
287
 74
298
 0
VERTEX
 8
GRASS_20
 10
0
 20
0
 30
0
 70
128
 71
300
 72
291
 73
289
 74
299
 0
VERTEX
 8
GRASS_20
 10
0
 20
0
 30
0
 70
128
 71
300
 72
290
 73
292
 74
292
 0
VERTEX
 8
GRASS_20
 10
0
 20
0
 30
0
 70
128
 71
294
 72
279
 73
276
 74
293
 0
VERTEX
 8
GRASS_20
 10
0
 20
0
 30
0
 70
128
 71
295
 72
281
 73
277
 74
293
 0
VERTEX
 8
GRASS_20
 10
0
 20
0
 30
0
 70
128
 71
295
 72
280
 73
282
 74
296
 0
VERTEX
 8
GRASS_20
 10
0
 20
0
 30
0
 70
128
 71
296
 72
282
 73
284
 74
297
 0
VERTEX
 8
GRASS_20
 10
0
 20
0
 30
0
 70
128
 71
297
 72
284
 73
286
 74
298
 0
VERTEX
 8
GRASS_20
 10
0
 20
0
 30
0
 70
128
 71
298
 72
286
 73
288
 74
299
 0
VERTEX
 8
GRASS_20
 10
0
 20
0
 30
0
 70
128
 71
299
 72
288
 73
290
 74
300
 0
VERTEX
 8
GRASS_20
 10
0
 20
0
 30
0
 70
128
 71
292
 72
291
 73
300
 74
300
 0
VERTEX
 8
GRASS_20
 10
0
 20
0
 30
0
 70
128
 71
347
 72
334
 73
336
 74
348
 0
VERTEX
 8
GRASS_20
 10
0
 20
0
 30
0
 70
128
 71
342
 72
341
 73
350
 74
350
 0
VERTEX
 8
GRASS_20
 10
0
 20
0
 30
0
 70
128
 71
320
 72
306
 73
308
 74
321
 0
VERTEX
 8
GRASS_20
 10
0
 20
0
 30
0
 70
128
 71
321
 72
308
 73
310
 74
322
 0
VERTEX
 8
GRASS_20
 10
0
 20
0
 30
0
 70
128
 71
322
 72
310
 73
312
 74
323
 0
VERTEX
 8
GRASS_20
 10
0
 20
0
 30
0
 70
128
 71
323
 72
312
 73
314
 74
324
 0
VERTEX
 8
GRASS_20
 10
0
 20
0
 30
0
 70
128
 71
324
 72
314
 73
316
 74
325
 0
VERTEX
 8
GRASS_20
 10
0
 20
0
 30
0
 70
128
 71
317
 72
315
 73
325
 74
325
 0
VERTEX
 8
GRASS_20
 10
0
 20
0
 30
0
 70
128
 71
348
 72
336
 73
338
 74
349
 0
VERTEX
 8
GRASS_20
 10
0
 20
0
 30
0
 70
128
 71
346
 72
332
 73
334
 74
347
 0
VERTEX
 8
GRASS_20
 10
0
 20
0
 30
0
 70
128
 71
321
 72
307
 73
305
 74
320
 0
VERTEX
 8
GRASS_20
 10
0
 20
0
 30
0
 70
128
 71
322
 72
309
 73
307
 74
321
 0
VERTEX
 8
GRASS_20
 10
0
 20
0
 30
0
 70
128
 71
323
 72
311
 73
309
 74
322
 0
VERTEX
 8
GRASS_20
 10
0
 20
0
 30
0
 70
128
 71
324
 72
313
 73
311
 74
323
 0
VERTEX
 8
GRASS_20
 10
0
 20
0
 30
0
 70
128
 71
325
 72
315
 73
313
 74
324
 0
VERTEX
 8
GRASS_20
 10
0
 20
0
 30
0
 70
128
 71
325
 72
316
 73
317
 74
317
 0
VERTEX
 8
GRASS_20
 10
0
 20
0
 30
0
 70
128
 71
349
 72
338
 73
340
 74
350
 0
VERTEX
 8
GRASS_20
 10
0
 20
0
 30
0
 70
128
 71
345
 72
330
 73
332
 74
346
 0
VERTEX
 8
GRASS_20
 10
0
 20
0
 30
0
 70
128
 71
346
 72
333
 73
331
 74
345
 0
VERTEX
 8
GRASS_20
 10
0
 20
0
 30
0
 70
128
 71
347
 72
335
 73
333
 74
346
 0
VERTEX
 8
GRASS_20
 10
0
 20
0
 30
0
 70
128
 71
348
 72
337
 73
335
 74
347
 0
VERTEX
 8
GRASS_20
 10
0
 20
0
 30
0
 70
128
 71
349
 72
339
 73
337
 74
348
 0
VERTEX
 8
GRASS_20
 10
0
 20
0
 30
0
 70
128
 71
350
 72
341
 73
339
 74
349
 0
VERTEX
 8
GRASS_20
 10
0
 20
0
 30
0
 70
128
 71
350
 72
340
 73
342
 74
342
 0
VERTEX
 8
GRASS_20
 10
0
 20
0
 30
0
 70
128
 71
368
 72
352
 73
353
 74
369
 0
VERTEX
 8
GRASS_20
 10
0
 20
0
 30
0
 70
128
 71
351
 72
355
 73
370
 74
368
 0
VERTEX
 8
GRASS_20
 10
0
 20
0
 30
0
 70
128
 71
371
 72
358
 73
356
 74
370
 0
VERTEX
 8
GRASS_20
 10
0
 20
0
 30
0
 70
128
 71
372
 72
360
 73
358
 74
371
 0
VERTEX
 8
GRASS_20
 10
0
 20
0
 30
0
 70
128
 71
373
 72
362
 73
360
 74
372
 0
VERTEX
 8
GRASS_20
 10
0
 20
0
 30
0
 70
128
 71
374
 72
364
 73
362
 74
373
 0
VERTEX
 8
GRASS_20
 10
0
 20
0
 30
0
 70
128
 71
375
 72
366
 73
364
 74
374
 0
VERTEX
 8
GRASS_20
 10
0
 20
0
 30
0
 70
128
 71
375
 72
365
 73
367
 74
367
 0
VERTEX
 8
GRASS_20
 10
0
 20
0
 30
0
 70
128
 71
369
 72
354
 73
351
 74
368
 0
VERTEX
 8
GRASS_20
 10
0
 20
0
 30
0
 70
128
 71
370
 72
356
 73
352
 74
368
 0
VERTEX
 8
GRASS_20
 10
0
 20
0
 30
0
 70
128
 71
370
 72
355
 73
357
 74
371
 0
VERTEX
 8
GRASS_20
 10
0
 20
0
 30
0
 70
128
 71
371
 72
357
 73
359
 74
372
 0
VERTEX
 8
GRASS_20
 10
0
 20
0
 30
0
 70
128
 71
372
 72
359
 73
361
 74
373
 0
VERTEX
 8
GRASS_20
 10
0
 20
0
 30
0
 70
128
 71
373
 72
361
 73
363
 74
374
 0
VERTEX
 8
GRASS_20
 10
0
 20
0
 30
0
 70
128
 71
374
 72
363
 73
365
 74
375
 0
VERTEX
 8
GRASS_20
 10
0
 20
0
 30
0
 70
128
 71
367
 72
366
 73
375
 74
375
 0
VERTEX
 8
GRASS_20
 10
0
 20
0
 30
0
 70
128
 71
394
 72
378
 73
377
 74
393
 0
VERTEX
 8
GRASS_20
 10
0
 20
0
 30
0
 70
128
 71
393
 72
395
 73
380
 74
376
 0
VERTEX
 8
GRASS_20
 10
0
 20
0
 30
0
 70
128
 71
395
 72
381
 73
383
 74
396
 0
VERTEX
 8
GRASS_20
 10
0
 20
0
 30
0
 70
128
 71
396
 72
383
 73
385
 74
397
 0
VERTEX
 8
GRASS_20
 10
0
 20
0
 30
0
 70
128
 71
397
 72
385
 73
387
 74
398
 0
VERTEX
 8
GRASS_20
 10
0
 20
0
 30
0
 70
128
 71
398
 72
387
 73
389
 74
399
 0
VERTEX
 8
GRASS_20
 10
0
 20
0
 30
0
 70
128
 71
399
 72
389
 73
391
 74
400
 0
VERTEX
 8
GRASS_20
 10
0
 20
0
 30
0
 70
128
 71
392
 72
390
 73
400
 74
400
 0
VERTEX
 8
GRASS_20
 10
0
 20
0
 30
0
 70
128
 71
393
 72
376
 73
379
 74
394
 0
VERTEX
 8
GRASS_20
 10
0
 20
0
 30
0
 70
128
 71
393
 72
377
 73
381
 74
395
 0
VERTEX
 8
GRASS_20
 10
0
 20
0
 30
0
 70
128
 71
396
 72
382
 73
380
 74
395
 0
VERTEX
 8
GRASS_20
 10
0
 20
0
 30
0
 70
128
 71
397
 72
384
 73
382
 74
396
 0
VERTEX
 8
GRASS_20
 10
0
 20
0
 30
0
 70
128
 71
398
 72
386
 73
384
 74
397
 0
VERTEX
 8
GRASS_20
 10
0
 20
0
 30
0
 70
128
 71
399
 72
388
 73
386
 74
398
 0
VERTEX
 8
GRASS_20
 10
0
 20
0
 30
0
 70
128
 71
400
 72
390
 73
388
 74
399
 0
VERTEX
 8
GRASS_20
 10
0
 20
0
 30
0
 70
128
 71
400
 72
391
 73
392
 74
392
 0
VERTEX
 8
GRASS_20
 10
0
 20
0
 30
0
 70
128
 71
419
 72
403
 73
402
 74
418
 0
VERTEX
 8
GRASS_20
 10
0
 20
0
 30
0
 70
128
 71
418
 72
420
 73
405
 74
401
 0
VERTEX
 8
GRASS_20
 10
0
 20
0
 30
0
 70
128
 71
420
 72
406
 73
408
 74
421
 0
VERTEX
 8
GRASS_20
 10
0
 20
0
 30
0
 70
128
 71
421
 72
408
 73
410
 74
422
 0
VERTEX
 8
GRASS_20
 10
0
 20
0
 30
0
 70
128
 71
422
 72
410
 73
412
 74
423
 0
VERTEX
 8
GRASS_20
 10
0
 20
0
 30
0
 70
128
 71
423
 72
412
 73
414
 74
424
 0
VERTEX
 8
GRASS_20
 10
0
 20
0
 30
0
 70
128
 71
424
 72
414
 73
416
 74
425
 0
VERTEX
 8
GRASS_20
 10
0
 20
0
 30
0
 70
128
 71
417
 72
415
 73
425
 74
425
 0
VERTEX
 8
GRASS_20
 10
0
 20
0
 30
0
 70
128
 71
418
 72
401
 73
404
 74
419
 0
VERTEX
 8
GRASS_20
 10
0
 20
0
 30
0
 70
128
 71
418
 72
402
 73
406
 74
420
 0
VERTEX
 8
GRASS_20
 10
0
 20
0
 30
0
 70
128
 71
421
 72
407
 73
405
 74
420
 0
VERTEX
 8
GRASS_20
 10
0
 20
0
 30
0
 70
128
 71
422
 72
409
 73
407
 74
421
 0
VERTEX
 8
GRASS_20
 10
0
 20
0
 30
0
 70
128
 71
423
 72
411
 73
409
 74
422
 0
VERTEX
 8
GRASS_20
 10
0
 20
0
 30
0
 70
128
 71
424
 72
413
 73
411
 74
423
 0
VERTEX
 8
GRASS_20
 10
0
 20
0
 30
0
 70
128
 71
425
 72
415
 73
413
 74
424
 0
VERTEX
 8
GRASS_20
 10
0
 20
0
 30
0
 70
128
 71
425
 72
416
 73
417
 74
417
 0
VERTEX
 8
GRASS_20
 10
0
 20
0
 30
0
 70
128
 71
443
 72
427
 73
428
 74
444
 0
VERTEX
 8
GRASS_20
 10
0
 20
0
 30
0
 70
128
 71
426
 72
430
 73
445
 74
443
 0
VERTEX
 8
GRASS_20
 10
0
 20
0
 30
0
 70
128
 71
446
 72
433
 73
431
 74
445
 0
VERTEX
 8
GRASS_20
 10
0
 20
0
 30
0
 70
128
 71
447
 72
435
 73
433
 74
446
 0
VERTEX
 8
GRASS_20
 10
0
 20
0
 30
0
 70
128
 71
448
 72
437
 73
435
 74
447
 0
VERTEX
 8
GRASS_20
 10
0
 20
0
 30
0
 70
128
 71
449
 72
439
 73
437
 74
448
 0
VERTEX
 8
GRASS_20
 10
0
 20
0
 30
0
 70
128
 71
450
 72
441
 73
439
 74
449
 0
VERTEX
 8
GRASS_20
 10
0
 20
0
 30
0
 70
128
 71
450
 72
440
 73
442
 74
442
 0
VERTEX
 8
GRASS_20
 10
0
 20
0
 30
0
 70
128
 71
444
 72
429
 73
426
 74
443
 0
VERTEX
 8
GRASS_20
 10
0
 20
0
 30
0
 70
128
 71
445
 72
431
 73
427
 74
443
 0
VERTEX
 8
GRASS_20
 10
0
 20
0
 30
0
 70
128
 71
445
 72
430
 73
432
 74
446
 0
VERTEX
 8
GRASS_20
 10
0
 20
0
 30
0
 70
128
 71
446
 72
432
 73
434
 74
447
 0
VERTEX
 8
GRASS_20
 10
0
 20
0
 30
0
 70
128
 71
447
 72
434
 73
436
 74
448
 0
VERTEX
 8
GRASS_20
 10
0
 20
0
 30
0
 70
128
 71
448
 72
436
 73
438
 74
449
 0
VERTEX
 8
GRASS_20
 10
0
 20
0
 30
0
 70
128
 71
449
 72
438
 73
440
 74
450
 0
VERTEX
 8
GRASS_20
 10
0
 20
0
 30
0
 70
128
 71
442
 72
441
 73
450
 74
450
 0
VERTEX
 8
GRASS_20
 10
0
 20
0
 30
0
 70
128
 71
469
 72
453
 73
452
 74
468
 0
VERTEX
 8
GRASS_20
 10
0
 20
0
 30
0
 70
128
 71
468
 72
470
 73
455
 74
451
 0
VERTEX
 8
GRASS_20
 10
0
 20
0
 30
0
 70
128
 71
470
 72
456
 73
458
 74
471
 0
VERTEX
 8
GRASS_20
 10
0
 20
0
 30
0
 70
128
 71
471
 72
458
 73
460
 74
472
 0
VERTEX
 8
GRASS_20
 10
0
 20
0
 30
0
 70
128
 71
472
 72
460
 73
462
 74
473
 0
VERTEX
 8
GRASS_20
 10
0
 20
0
 30
0
 70
128
 71
473
 72
462
 73
464
 74
474
 0
VERTEX
 8
GRASS_20
 10
0
 20
0
 30
0
 70
128
 71
474
 72
464
 73
466
 74
475
 0
VERTEX
 8
GRASS_20
 10
0
 20
0
 30
0
 70
128
 71
467
 72
465
 73
475
 74
475
 0
VERTEX
 8
GRASS_20
 10
0
 20
0
 30
0
 70
128
 71
468
 72
451
 73
454
 74
469
 0
VERTEX
 8
GRASS_20
 10
0
 20
0
 30
0
 70
128
 71
468
 72
452
 73
456
 74
470
 0
VERTEX
 8
GRASS_20
 10
0
 20
0
 30
0
 70
128
 71
471
 72
457
 73
455
 74
470
 0
VERTEX
 8
GRASS_20
 10
0
 20
0
 30
0
 70
128
 71
472
 72
459
 73
457
 74
471
 0
VERTEX
 8
GRASS_20
 10
0
 20
0
 30
0
 70
128
 71
473
 72
461
 73
459
 74
472
 0
VERTEX
 8
GRASS_20
 10
0
 20
0
 30
0
 70
128
 71
474
 72
463
 73
461
 74
473
 0
VERTEX
 8
GRASS_20
 10
0
 20
0
 30
0
 70
128
 71
475
 72
465
 73
463
 74
474
 0
VERTEX
 8
GRASS_20
 10
0
 20
0
 30
0
 70
128
 71
475
 72
466
 73
467
 74
467
 0
VERTEX
 8
GRASS_20
 10
0
 20
0
 30
0
 70
128
 71
493
 72
477
 73
478
 74
494
 0
VERTEX
 8
GRASS_20
 10
0
 20
0
 30
0
 70
128
 71
476
 72
480
 73
495
 74
493
 0
VERTEX
 8
GRASS_20
 10
0
 20
0
 30
0
 70
128
 71
496
 72
483
 73
481
 74
495
 0
VERTEX
 8
GRASS_20
 10
0
 20
0
 30
0
 70
128
 71
497
 72
485
 73
483
 74
496
 0
VERTEX
 8
GRASS_20
 10
0
 20
0
 30
0
 70
128
 71
498
 72
487
 73
485
 74
497
 0
VERTEX
 8
GRASS_20
 10
0
 20
0
 30
0
 70
128
 71
499
 72
489
 73
487
 74
498
 0
VERTEX
 8
GRASS_20
 10
0
 20
0
 30
0
 70
128
 71
500
 72
491
 73
489
 74
499
 0
VERTEX
 8
GRASS_20
 10
0
 20
0
 30
0
 70
128
 71
500
 72
490
 73
492
 74
492
 0
VERTEX
 8
GRASS_20
 10
0
 20
0
 30
0
 70
128
 71
494
 72
479
 73
476
 74
493
 0
VERTEX
 8
GRASS_20
 10
0
 20
0
 30
0
 70
128
 71
495
 72
481
 73
477
 74
493
 0
VERTEX
 8
GRASS_20
 10
0
 20
0
 30
0
 70
128
 71
495
 72
480
 73
482
 74
496
 0
VERTEX
 8
GRASS_20
 10
0
 20
0
 30
0
 70
128
 71
496
 72
482
 73
484
 74
497
 0
VERTEX
 8
GRASS_20
 10
0
 20
0
 30
0
 70
128
 71
497
 72
484
 73
486
 74
498
 0
VERTEX
 8
GRASS_20
 10
0
 20
0
 30
0
 70
128
 71
498
 72
486
 73
488
 74
499
 0
VERTEX
 8
GRASS_20
 10
0
 20
0
 30
0
 70
128
 71
499
 72
488
 73
490
 74
500
 0
VERTEX
 8
GRASS_20
 10
0
 20
0
 30
0
 70
128
 71
492
 72
491
 73
500
 74
500
 0
VERTEX
 8
GRASS_20
 10
0
 20
0
 30
0
 70
128
 71
547
 72
534
 73
536
 74
548
 0
VERTEX
 8
GRASS_20
 10
0
 20
0
 30
0
 70
128
 71
518
 72
520
 73
505
 74
501
 0
VERTEX
 8
GRASS_20
 10
0
 20
0
 30
0
 70
128
 71
520
 72
506
 73
508
 74
521
 0
VERTEX
 8
GRASS_20
 10
0
 20
0
 30
0
 70
128
 71
521
 72
508
 73
510
 74
522
 0
VERTEX
 8
GRASS_20
 10
0
 20
0
 30
0
 70
128
 71
522
 72
510
 73
512
 74
523
 0
VERTEX
 8
GRASS_20
 10
0
 20
0
 30
0
 70
128
 71
523
 72
512
 73
514
 74
524
 0
VERTEX
 8
GRASS_20
 10
0
 20
0
 30
0
 70
128
 71
524
 72
514
 73
516
 74
525
 0
VERTEX
 8
GRASS_20
 10
0
 20
0
 30
0
 70
128
 71
517
 72
515
 73
525
 74
525
 0
VERTEX
 8
GRASS_20
 10
0
 20
0
 30
0
 70
128
 71
548
 72
536
 73
538
 74
549
 0
VERTEX
 8
GRASS_20
 10
0
 20
0
 30
0
 70
128
 71
518
 72
502
 73
506
 74
520
 0
VERTEX
 8
GRASS_20
 10
0
 20
0
 30
0
 70
128
 71
521
 72
507
 73
505
 74
520
 0
VERTEX
 8
GRASS_20
 10
0
 20
0
 30
0
 70
128
 71
522
 72
509
 73
507
 74
521
 0
VERTEX
 8
GRASS_20
 10
0
 20
0
 30
0
 70
128
 71
523
 72
511
 73
509
 74
522
 0
VERTEX
 8
GRASS_20
 10
0
 20
0
 30
0
 70
128
 71
524
 72
513
 73
511
 74
523
 0
VERTEX
 8
GRASS_20
 10
0
 20
0
 30
0
 70
128
 71
525
 72
515
 73
513
 74
524
 0
VERTEX
 8
GRASS_20
 10
0
 20
0
 30
0
 70
128
 71
525
 72
516
 73
517
 74
517
 0
VERTEX
 8
GRASS_20
 10
0
 20
0
 30
0
 70
128
 71
549
 72
538
 73
540
 74
550
 0
VERTEX
 8
GRASS_20
 10
0
 20
0
 30
0
 70
128
 71
526
 72
530
 73
545
 74
543
 0
VERTEX
 8
GRASS_20
 10
0
 20
0
 30
0
 70
128
 71
546
 72
533
 73
531
 74
545
 0
VERTEX
 8
GRASS_20
 10
0
 20
0
 30
0
 70
128
 71
547
 72
535
 73
533
 74
546
 0
VERTEX
 8
GRASS_20
 10
0
 20
0
 30
0
 70
128
 71
548
 72
537
 73
535
 74
547
 0
VERTEX
 8
GRASS_20
 10
0
 20
0
 30
0
 70
128
 71
549
 72
539
 73
537
 74
548
 0
VERTEX
 8
GRASS_20
 10
0
 20
0
 30
0
 70
128
 71
550
 72
541
 73
539
 74
549
 0
VERTEX
 8
GRASS_20
 10
0
 20
0
 30
0
 70
128
 71
550
 72
540
 73
542
 74
542
 0
VERTEX
 8
GRASS_20
 10
0
 20
0
 30
0
 70
128
 71
542
 72
541
 73
550
 74
550
 0
VERTEX
 8
GRASS_20
 10
0
 20
0
 30
0
 70
128
 71
545
 72
531
 73
527
 74
543
 0
VERTEX
 8
GRASS_20
 10
0
 20
0
 30
0
 70
128
 71
545
 72
530
 73
532
 74
546
 0
VERTEX
 8
GRASS_20
 10
0
 20
0
 30
0
 70
128
 71
546
 72
532
 73
534
 74
547
 0
VERTEX
 8
GRASS_20
 10
0
 20
0
 30
0
 70
128
 71
573
 72
561
 73
559
 74
572
 0
VERTEX
 8
GRASS_20
 10
0
 20
0
 30
0
 70
128
 71
574
 72
563
 73
561
 74
573
 0
VERTEX
 8
GRASS_20
 10
0
 20
0
 30
0
 70
128
 71
599
 72
588
 73
590
 74
600
 0
VERTEX
 8
GRASS_20
 10
0
 20
0
 30
0
 70
128
 71
571
 72
558
 73
560
 74
572
 0
VERTEX
 8
GRASS_20
 10
0
 20
0
 30
0
 70
128
 71
572
 72
560
 73
562
 74
573
 0
VERTEX
 8
GRASS_20
 10
0
 20
0
 30
0
 70
128
 71
573
 72
562
 73
564
 74
574
 0
VERTEX
 8
GRASS_20
 10
0
 20
0
 30
0
 70
128
 71
574
 72
564
 73
566
 74
575
 0
VERTEX
 8
GRASS_20
 10
0
 20
0
 30
0
 70
128
 71
567
 72
565
 73
575
 74
575
 0
VERTEX
 8
GRASS_20
 10
0
 20
0
 30
0
 70
128
 71
575
 72
565
 73
563
 74
574
 0
VERTEX
 8
GRASS_20
 10
0
 20
0
 30
0
 70
128
 71
575
 72
566
 73
567
 74
567
 0
VERTEX
 8
GRASS_20
 10
0
 20
0
 30
0
 70
128
 71
592
 72
591
 73
600
 74
600
 0
VERTEX
 8
GRASS_20
 10
0
 20
0
 30
0
 70
128
 71
572
 72
559
 73
557
 74
571
 0
VERTEX
 8
GRASS_20
 10
0
 20
0
 30
0
 70
128
 71
597
 72
584
 73
586
 74
598
 0
VERTEX
 8
GRASS_20
 10
0
 20
0
 30
0
 70
128
 71
598
 72
586
 73
588
 74
599
 0
VERTEX
 8
GRASS_20
 10
0
 20
0
 30
0
 70
128
 71
596
 72
582
 73
584
 74
597
 0
VERTEX
 8
GRASS_20
 10
0
 20
0
 30
0
 70
128
 71
597
 72
585
 73
583
 74
596
 0
VERTEX
 8
GRASS_20
 10
0
 20
0
 30
0
 70
128
 71
598
 72
587
 73
585
 74
597
 0
VERTEX
 8
GRASS_20
 10
0
 20
0
 30
0
 70
128
 71
599
 72
589
 73
587
 74
598
 0
VERTEX
 8
GRASS_20
 10
0
 20
0
 30
0
 70
128
 71
600
 72
591
 73
589
 74
599
 0
VERTEX
 8
GRASS_20
 10
0
 20
0
 30
0
 70
128
 71
600
 72
590
 73
592
 74
592
 0
VERTEX
 8
GRASS_20
 10
0
 20
0
 30
0
 70
128
 71
623
 72
611
 73
609
 74
622
 0
VERTEX
 8
GRASS_20
 10
0
 20
0
 30
0
 70
128
 71
624
 72
613
 73
611
 74
623
 0
VERTEX
 8
GRASS_20
 10
0
 20
0
 30
0
 70
128
 71
620
 72
606
 73
608
 74
621
 0
VERTEX
 8
GRASS_20
 10
0
 20
0
 30
0
 70
128
 71
621
 72
608
 73
610
 74
622
 0
VERTEX
 8
GRASS_20
 10
0
 20
0
 30
0
 70
128
 71
622
 72
610
 73
612
 74
623
 0
VERTEX
 8
GRASS_20
 10
0
 20
0
 30
0
 70
128
 71
623
 72
612
 73
614
 74
624
 0
VERTEX
 8
GRASS_20
 10
0
 20
0
 30
0
 70
128
 71
624
 72
614
 73
616
 74
625
 0
VERTEX
 8
GRASS_20
 10
0
 20
0
 30
0
 70
128
 71
617
 72
615
 73
625
 74
625
 0
VERTEX
 8
GRASS_20
 10
0
 20
0
 30
0
 70
128
 71
625
 72
615
 73
613
 74
624
 0
VERTEX
 8
GRASS_20
 10
0
 20
0
 30
0
 70
128
 71
625
 72
616
 73
617
 74
617
 0
VERTEX
 8
GRASS_20
 10
0
 20
0
 30
0
 70
128
 71
621
 72
607
 73
605
 74
620
 0
VERTEX
 8
GRASS_20
 10
0
 20
0
 30
0
 70
128
 71
622
 72
609
 73
607
 74
621
 0
VERTEX
 8
GRASS_20
 10
0
 20
0
 30
0
 70
128
 71
647
 72
634
 73
636
 74
648
 0
VERTEX
 8
GRASS_20
 10
0
 20
0
 30
0
 70
128
 71
648
 72
636
 73
638
 74
649
 0
VERTEX
 8
GRASS_20
 10
0
 20
0
 30
0
 70
128
 71
646
 72
633
 73
631
 74
645
 0
VERTEX
 8
GRASS_20
 10
0
 20
0
 30
0
 70
128
 71
647
 72
635
 73
633
 74
646
 0
VERTEX
 8
GRASS_20
 10
0
 20
0
 30
0
 70
128
 71
648
 72
637
 73
635
 74
647
 0
VERTEX
 8
GRASS_20
 10
0
 20
0
 30
0
 70
128
 71
649
 72
639
 73
637
 74
648
 0
VERTEX
 8
GRASS_20
 10
0
 20
0
 30
0
 70
128
 71
650
 72
641
 73
639
 74
649
 0
VERTEX
 8
GRASS_20
 10
0
 20
0
 30
0
 70
128
 71
650
 72
640
 73
642
 74
642
 0
VERTEX
 8
GRASS_20
 10
0
 20
0
 30
0
 70
128
 71
649
 72
638
 73
640
 74
650
 0
VERTEX
 8
GRASS_20
 10
0
 20
0
 30
0
 70
128
 71
642
 72
641
 73
650
 74
650
 0
VERTEX
 8
GRASS_20
 10
0
 20
0
 30
0
 70
128
 71
645
 72
630
 73
632
 74
646
 0
VERTEX
 8
GRASS_20
 10
0
 20
0
 30
0
 70
128
 71
646
 72
632
 73
634
 74
647
 0
VERTEX
 8
GRASS_20
 10
0
 20
0
 30
0
 70
128
 71
697
 72
684
 73
686
 74
698
 0
VERTEX
 8
GRASS_20
 10
0
 20
0
 30
0
 70
128
 71
668
 72
670
 73
655
 74
651
 0
VERTEX
 8
GRASS_20
 10
0
 20
0
 30
0
 70
128
 71
670
 72
656
 73
658
 74
671
 0
VERTEX
 8
GRASS_20
 10
0
 20
0
 30
0
 70
128
 71
671
 72
658
 73
660
 74
672
 0
VERTEX
 8
GRASS_20
 10
0
 20
0
 30
0
 70
128
 71
672
 72
660
 73
662
 74
673
 0
VERTEX
 8
GRASS_20
 10
0
 20
0
 30
0
 70
128
 71
673
 72
662
 73
664
 74
674
 0
VERTEX
 8
GRASS_20
 10
0
 20
0
 30
0
 70
128
 71
674
 72
664
 73
666
 74
675
 0
VERTEX
 8
GRASS_20
 10
0
 20
0
 30
0
 70
128
 71
667
 72
665
 73
675
 74
675
 0
VERTEX
 8
GRASS_20
 10
0
 20
0
 30
0
 70
128
 71
698
 72
686
 73
688
 74
699
 0
VERTEX
 8
GRASS_20
 10
0
 20
0
 30
0
 70
128
 71
668
 72
652
 73
656
 74
670
 0
VERTEX
 8
GRASS_20
 10
0
 20
0
 30
0
 70
128
 71
671
 72
657
 73
655
 74
670
 0
VERTEX
 8
GRASS_20
 10
0
 20
0
 30
0
 70
128
 71
672
 72
659
 73
657
 74
671
 0
VERTEX
 8
GRASS_20
 10
0
 20
0
 30
0
 70
128
 71
673
 72
661
 73
659
 74
672
 0
VERTEX
 8
GRASS_20
 10
0
 20
0
 30
0
 70
128
 71
674
 72
663
 73
661
 74
673
 0
VERTEX
 8
GRASS_20
 10
0
 20
0
 30
0
 70
128
 71
675
 72
665
 73
663
 74
674
 0
VERTEX
 8
GRASS_20
 10
0
 20
0
 30
0
 70
128
 71
675
 72
666
 73
667
 74
667
 0
VERTEX
 8
GRASS_20
 10
0
 20
0
 30
0
 70
128
 71
699
 72
688
 73
690
 74
700
 0
VERTEX
 8
GRASS_20
 10
0
 20
0
 30
0
 70
128
 71
676
 72
680
 73
695
 74
693
 0
VERTEX
 8
GRASS_20
 10
0
 20
0
 30
0
 70
128
 71
696
 72
683
 73
681
 74
695
 0
VERTEX
 8
GRASS_20
 10
0
 20
0
 30
0
 70
128
 71
697
 72
685
 73
683
 74
696
 0
VERTEX
 8
GRASS_20
 10
0
 20
0
 30
0
 70
128
 71
698
 72
687
 73
685
 74
697
 0
VERTEX
 8
GRASS_20
 10
0
 20
0
 30
0
 70
128
 71
699
 72
689
 73
687
 74
698
 0
VERTEX
 8
GRASS_20
 10
0
 20
0
 30
0
 70
128
 71
700
 72
691
 73
689
 74
699
 0
VERTEX
 8
GRASS_20
 10
0
 20
0
 30
0
 70
128
 71
700
 72
690
 73
692
 74
692
 0
VERTEX
 8
GRASS_20
 10
0
 20
0
 30
0
 70
128
 71
692
 72
691
 73
700
 74
700
 0
VERTEX
 8
GRASS_20
 10
0
 20
0
 30
0
 70
128
 71
695
 72
681
 73
677
 74
693
 0
VERTEX
 8
GRASS_20
 10
0
 20
0
 30
0
 70
128
 71
695
 72
680
 73
682
 74
696
 0
VERTEX
 8
GRASS_20
 10
0
 20
0
 30
0
 70
128
 71
696
 72
682
 73
684
 74
697
 0
VERTEX
 8
GRASS_20
 10
0
 20
0
 30
0
 70
128
 71
719
 72
703
 73
702
 74
718
 0
VERTEX
 8
GRASS_20
 10
0
 20
0
 30
0
 70
128
 71
718
 72
720
 73
705
 74
701
 0
VERTEX
 8
GRASS_20
 10
0
 20
0
 30
0
 70
128
 71
720
 72
706
 73
708
 74
721
 0
VERTEX
 8
GRASS_20
 10
0
 20
0
 30
0
 70
128
 71
721
 72
708
 73
710
 74
722
 0
VERTEX
 8
GRASS_20
 10
0
 20
0
 30
0
 70
128
 71
722
 72
710
 73
712
 74
723
 0
VERTEX
 8
GRASS_20
 10
0
 20
0
 30
0
 70
128
 71
723
 72
712
 73
714
 74
724
 0
VERTEX
 8
GRASS_20
 10
0
 20
0
 30
0
 70
128
 71
724
 72
714
 73
716
 74
725
 0
VERTEX
 8
GRASS_20
 10
0
 20
0
 30
0
 70
128
 71
717
 72
715
 73
725
 74
725
 0
VERTEX
 8
GRASS_20
 10
0
 20
0
 30
0
 70
128
 71
718
 72
701
 73
704
 74
719
 0
VERTEX
 8
GRASS_20
 10
0
 20
0
 30
0
 70
128
 71
718
 72
702
 73
706
 74
720
 0
VERTEX
 8
GRASS_20
 10
0
 20
0
 30
0
 70
128
 71
721
 72
707
 73
705
 74
720
 0
VERTEX
 8
GRASS_20
 10
0
 20
0
 30
0
 70
128
 71
722
 72
709
 73
707
 74
721
 0
VERTEX
 8
GRASS_20
 10
0
 20
0
 30
0
 70
128
 71
723
 72
711
 73
709
 74
722
 0
VERTEX
 8
GRASS_20
 10
0
 20
0
 30
0
 70
128
 71
724
 72
713
 73
711
 74
723
 0
VERTEX
 8
GRASS_20
 10
0
 20
0
 30
0
 70
128
 71
725
 72
715
 73
713
 74
724
 0
VERTEX
 8
GRASS_20
 10
0
 20
0
 30
0
 70
128
 71
725
 72
716
 73
717
 74
717
 0
VERTEX
 8
GRASS_20
 10
0
 20
0
 30
0
 70
128
 71
743
 72
727
 73
728
 74
744
 0
VERTEX
 8
GRASS_20
 10
0
 20
0
 30
0
 70
128
 71
726
 72
730
 73
745
 74
743
 0
VERTEX
 8
GRASS_20
 10
0
 20
0
 30
0
 70
128
 71
746
 72
733
 73
731
 74
745
 0
VERTEX
 8
GRASS_20
 10
0
 20
0
 30
0
 70
128
 71
747
 72
735
 73
733
 74
746
 0
VERTEX
 8
GRASS_20
 10
0
 20
0
 30
0
 70
128
 71
748
 72
737
 73
735
 74
747
 0
VERTEX
 8
GRASS_20
 10
0
 20
0
 30
0
 70
128
 71
749
 72
739
 73
737
 74
748
 0
VERTEX
 8
GRASS_20
 10
0
 20
0
 30
0
 70
128
 71
750
 72
741
 73
739
 74
749
 0
VERTEX
 8
GRASS_20
 10
0
 20
0
 30
0
 70
128
 71
750
 72
740
 73
742
 74
742
 0
VERTEX
 8
GRASS_20
 10
0
 20
0
 30
0
 70
128
 71
744
 72
729
 73
726
 74
743
 0
VERTEX
 8
GRASS_20
 10
0
 20
0
 30
0
 70
128
 71
745
 72
731
 73
727
 74
743
 0
VERTEX
 8
GRASS_20
 10
0
 20
0
 30
0
 70
128
 71
745
 72
730
 73
732
 74
746
 0
VERTEX
 8
GRASS_20
 10
0
 20
0
 30
0
 70
128
 71
746
 72
732
 73
734
 74
747
 0
VERTEX
 8
GRASS_20
 10
0
 20
0
 30
0
 70
128
 71
747
 72
734
 73
736
 74
748
 0
VERTEX
 8
GRASS_20
 10
0
 20
0
 30
0
 70
128
 71
748
 72
736
 73
738
 74
749
 0
VERTEX
 8
GRASS_20
 10
0
 20
0
 30
0
 70
128
 71
749
 72
738
 73
740
 74
750
 0
VERTEX
 8
GRASS_20
 10
0
 20
0
 30
0
 70
128
 71
742
 72
741
 73
750
 74
750
 0
VERTEX
 8
GRASS_20
 10
0
 20
0
 30
0
 70
128
 71
768
 72
752
 73
753
 74
769
 0
VERTEX
 8
GRASS_20
 10
0
 20
0
 30
0
 70
128
 71
751
 72
755
 73
770
 74
768
 0
VERTEX
 8
GRASS_20
 10
0
 20
0
 30
0
 70
128
 71
771
 72
758
 73
756
 74
770
 0
VERTEX
 8
GRASS_20
 10
0
 20
0
 30
0
 70
128
 71
772
 72
760
 73
758
 74
771
 0
VERTEX
 8
GRASS_20
 10
0
 20
0
 30
0
 70
128
 71
773
 72
762
 73
760
 74
772
 0
VERTEX
 8
GRASS_20
 10
0
 20
0
 30
0
 70
128
 71
774
 72
764
 73
762
 74
773
 0
VERTEX
 8
GRASS_20
 10
0
 20
0
 30
0
 70
128
 71
775
 72
766
 73
764
 74
774
 0
VERTEX
 8
GRASS_20
 10
0
 20
0
 30
0
 70
128
 71
775
 72
765
 73
767
 74
767
 0
VERTEX
 8
GRASS_20
 10
0
 20
0
 30
0
 70
128
 71
769
 72
754
 73
751
 74
768
 0
VERTEX
 8
GRASS_20
 10
0
 20
0
 30
0
 70
128
 71
770
 72
756
 73
752
 74
768
 0
VERTEX
 8
GRASS_20
 10
0
 20
0
 30
0
 70
128
 71
770
 72
755
 73
757
 74
771
 0
VERTEX
 8
GRASS_20
 10
0
 20
0
 30
0
 70
128
 71
771
 72
757
 73
759
 74
772
 0
VERTEX
 8
GRASS_20
 10
0
 20
0
 30
0
 70
128
 71
772
 72
759
 73
761
 74
773
 0
VERTEX
 8
GRASS_20
 10
0
 20
0
 30
0
 70
128
 71
773
 72
761
 73
763
 74
774
 0
VERTEX
 8
GRASS_20
 10
0
 20
0
 30
0
 70
128
 71
774
 72
763
 73
765
 74
775
 0
VERTEX
 8
GRASS_20
 10
0
 20
0
 30
0
 70
128
 71
767
 72
766
 73
775
 74
775
 0
VERTEX
 8
GRASS_20
 10
0
 20
0
 30
0
 70
128
 71
794
 72
778
 73
777
 74
793
 0
VERTEX
 8
GRASS_20
 10
0
 20
0
 30
0
 70
128
 71
793
 72
795
 73
780
 74
776
 0
VERTEX
 8
GRASS_20
 10
0
 20
0
 30
0
 70
128
 71
795
 72
781
 73
783
 74
796
 0
VERTEX
 8
GRASS_20
 10
0
 20
0
 30
0
 70
128
 71
796
 72
783
 73
785
 74
797
 0
VERTEX
 8
GRASS_20
 10
0
 20
0
 30
0
 70
128
 71
797
 72
785
 73
787
 74
798
 0
VERTEX
 8
GRASS_20
 10
0
 20
0
 30
0
 70
128
 71
798
 72
787
 73
789
 74
799
 0
VERTEX
 8
GRASS_20
 10
0
 20
0
 30
0
 70
128
 71
799
 72
789
 73
791
 74
800
 0
VERTEX
 8
GRASS_20
 10
0
 20
0
 30
0
 70
128
 71
792
 72
790
 73
800
 74
800
 0
VERTEX
 8
GRASS_20
 10
0
 20
0
 30
0
 70
128
 71
793
 72
776
 73
779
 74
794
 0
VERTEX
 8
GRASS_20
 10
0
 20
0
 30
0
 70
128
 71
793
 72
777
 73
781
 74
795
 0
VERTEX
 8
GRASS_20
 10
0
 20
0
 30
0
 70
128
 71
796
 72
782
 73
780
 74
795
 0
VERTEX
 8
GRASS_20
 10
0
 20
0
 30
0
 70
128
 71
797
 72
784
 73
782
 74
796
 0
VERTEX
 8
GRASS_20
 10
0
 20
0
 30
0
 70
128
 71
798
 72
786
 73
784
 74
797
 0
VERTEX
 8
GRASS_20
 10
0
 20
0
 30
0
 70
128
 71
799
 72
788
 73
786
 74
798
 0
VERTEX
 8
GRASS_20
 10
0
 20
0
 30
0
 70
128
 71
800
 72
790
 73
788
 74
799
 0
VERTEX
 8
GRASS_20
 10
0
 20
0
 30
0
 70
128
 71
800
 72
791
 73
792
 74
792
 0
VERTEX
 8
GRASS_20
 10
0
 20
0
 30
0
 70
128
 71
819
 72
803
 73
802
 74
818
 0
VERTEX
 8
GRASS_20
 10
0
 20
0
 30
0
 70
128
 71
818
 72
820
 73
805
 74
801
 0
VERTEX
 8
GRASS_20
 10
0
 20
0
 30
0
 70
128
 71
820
 72
806
 73
808
 74
821
 0
VERTEX
 8
GRASS_20
 10
0
 20
0
 30
0
 70
128
 71
821
 72
808
 73
810
 74
822
 0
VERTEX
 8
GRASS_20
 10
0
 20
0
 30
0
 70
128
 71
822
 72
810
 73
812
 74
823
 0
VERTEX
 8
GRASS_20
 10
0
 20
0
 30
0
 70
128
 71
823
 72
812
 73
814
 74
824
 0
VERTEX
 8
GRASS_20
 10
0
 20
0
 30
0
 70
128
 71
824
 72
814
 73
816
 74
825
 0
VERTEX
 8
GRASS_20
 10
0
 20
0
 30
0
 70
128
 71
817
 72
815
 73
825
 74
825
 0
VERTEX
 8
GRASS_20
 10
0
 20
0
 30
0
 70
128
 71
818
 72
801
 73
804
 74
819
 0
VERTEX
 8
GRASS_20
 10
0
 20
0
 30
0
 70
128
 71
818
 72
802
 73
806
 74
820
 0
VERTEX
 8
GRASS_20
 10
0
 20
0
 30
0
 70
128
 71
821
 72
807
 73
805
 74
820
 0
VERTEX
 8
GRASS_20
 10
0
 20
0
 30
0
 70
128
 71
822
 72
809
 73
807
 74
821
 0
VERTEX
 8
GRASS_20
 10
0
 20
0
 30
0
 70
128
 71
823
 72
811
 73
809
 74
822
 0
VERTEX
 8
GRASS_20
 10
0
 20
0
 30
0
 70
128
 71
824
 72
813
 73
811
 74
823
 0
VERTEX
 8
GRASS_20
 10
0
 20
0
 30
0
 70
128
 71
825
 72
815
 73
813
 74
824
 0
VERTEX
 8
GRASS_20
 10
0
 20
0
 30
0
 70
128
 71
825
 72
816
 73
817
 74
817
 0
VERTEX
 8
GRASS_20
 10
0
 20
0
 30
0
 70
128
 71
843
 72
827
 73
828
 74
844
 0
VERTEX
 8
GRASS_20
 10
0
 20
0
 30
0
 70
128
 71
826
 72
830
 73
845
 74
843
 0
VERTEX
 8
GRASS_20
 10
0
 20
0
 30
0
 70
128
 71
846
 72
833
 73
831
 74
845
 0
VERTEX
 8
GRASS_20
 10
0
 20
0
 30
0
 70
128
 71
847
 72
835
 73
833
 74
846
 0
VERTEX
 8
GRASS_20
 10
0
 20
0
 30
0
 70
128
 71
848
 72
837
 73
835
 74
847
 0
VERTEX
 8
GRASS_20
 10
0
 20
0
 30
0
 70
128
 71
849
 72
839
 73
837
 74
848
 0
VERTEX
 8
GRASS_20
 10
0
 20
0
 30
0
 70
128
 71
850
 72
841
 73
839
 74
849
 0
VERTEX
 8
GRASS_20
 10
0
 20
0
 30
0
 70
128
 71
850
 72
840
 73
842
 74
842
 0
VERTEX
 8
GRASS_20
 10
0
 20
0
 30
0
 70
128
 71
844
 72
829
 73
826
 74
843
 0
VERTEX
 8
GRASS_20
 10
0
 20
0
 30
0
 70
128
 71
845
 72
831
 73
827
 74
843
 0
VERTEX
 8
GRASS_20
 10
0
 20
0
 30
0
 70
128
 71
845
 72
830
 73
832
 74
846
 0
VERTEX
 8
GRASS_20
 10
0
 20
0
 30
0
 70
128
 71
846
 72
832
 73
834
 74
847
 0
VERTEX
 8
GRASS_20
 10
0
 20
0
 30
0
 70
128
 71
847
 72
834
 73
836
 74
848
 0
VERTEX
 8
GRASS_20
 10
0
 20
0
 30
0
 70
128
 71
848
 72
836
 73
838
 74
849
 0
VERTEX
 8
GRASS_20
 10
0
 20
0
 30
0
 70
128
 71
849
 72
838
 73
840
 74
850
 0
VERTEX
 8
GRASS_20
 10
0
 20
0
 30
0
 70
128
 71
842
 72
841
 73
850
 74
850
 0
VERTEX
 8
GRASS_20
 10
0
 20
0
 30
0
 70
128
 71
869
 72
853
 73
852
 74
868
 0
VERTEX
 8
GRASS_20
 10
0
 20
0
 30
0
 70
128
 71
868
 72
870
 73
855
 74
851
 0
VERTEX
 8
GRASS_20
 10
0
 20
0
 30
0
 70
128
 71
870
 72
856
 73
858
 74
871
 0
VERTEX
 8
GRASS_20
 10
0
 20
0
 30
0
 70
128
 71
871
 72
858
 73
860
 74
872
 0
VERTEX
 8
GRASS_20
 10
0
 20
0
 30
0
 70
128
 71
872
 72
860
 73
862
 74
873
 0
VERTEX
 8
GRASS_20
 10
0
 20
0
 30
0
 70
128
 71
873
 72
862
 73
864
 74
874
 0
VERTEX
 8
GRASS_20
 10
0
 20
0
 30
0
 70
128
 71
874
 72
864
 73
866
 74
875
 0
VERTEX
 8
GRASS_20
 10
0
 20
0
 30
0
 70
128
 71
867
 72
865
 73
875
 74
875
 0
VERTEX
 8
GRASS_20
 10
0
 20
0
 30
0
 70
128
 71
868
 72
851
 73
854
 74
869
 0
VERTEX
 8
GRASS_20
 10
0
 20
0
 30
0
 70
128
 71
868
 72
852
 73
856
 74
870
 0
VERTEX
 8
GRASS_20
 10
0
 20
0
 30
0
 70
128
 71
871
 72
857
 73
855
 74
870
 0
VERTEX
 8
GRASS_20
 10
0
 20
0
 30
0
 70
128
 71
872
 72
859
 73
857
 74
871
 0
VERTEX
 8
GRASS_20
 10
0
 20
0
 30
0
 70
128
 71
873
 72
861
 73
859
 74
872
 0
VERTEX
 8
GRASS_20
 10
0
 20
0
 30
0
 70
128
 71
874
 72
863
 73
861
 74
873
 0
VERTEX
 8
GRASS_20
 10
0
 20
0
 30
0
 70
128
 71
875
 72
865
 73
863
 74
874
 0
VERTEX
 8
GRASS_20
 10
0
 20
0
 30
0
 70
128
 71
875
 72
866
 73
867
 74
867
 0
VERTEX
 8
GRASS_20
 10
0
 20
0
 30
0
 70
128
 71
893
 72
877
 73
878
 74
894
 0
VERTEX
 8
GRASS_20
 10
0
 20
0
 30
0
 70
128
 71
876
 72
880
 73
895
 74
893
 0
VERTEX
 8
GRASS_20
 10
0
 20
0
 30
0
 70
128
 71
896
 72
883
 73
881
 74
895
 0
VERTEX
 8
GRASS_20
 10
0
 20
0
 30
0
 70
128
 71
897
 72
885
 73
883
 74
896
 0
VERTEX
 8
GRASS_20
 10
0
 20
0
 30
0
 70
128
 71
898
 72
887
 73
885
 74
897
 0
VERTEX
 8
GRASS_20
 10
0
 20
0
 30
0
 70
128
 71
899
 72
889
 73
887
 74
898
 0
VERTEX
 8
GRASS_20
 10
0
 20
0
 30
0
 70
128
 71
900
 72
891
 73
889
 74
899
 0
VERTEX
 8
GRASS_20
 10
0
 20
0
 30
0
 70
128
 71
900
 72
890
 73
892
 74
892
 0
VERTEX
 8
GRASS_20
 10
0
 20
0
 30
0
 70
128
 71
894
 72
879
 73
876
 74
893
 0
VERTEX
 8
GRASS_20
 10
0
 20
0
 30
0
 70
128
 71
895
 72
881
 73
877
 74
893
 0
VERTEX
 8
GRASS_20
 10
0
 20
0
 30
0
 70
128
 71
895
 72
880
 73
882
 74
896
 0
VERTEX
 8
GRASS_20
 10
0
 20
0
 30
0
 70
128
 71
896
 72
882
 73
884
 74
897
 0
VERTEX
 8
GRASS_20
 10
0
 20
0
 30
0
 70
128
 71
897
 72
884
 73
886
 74
898
 0
VERTEX
 8
GRASS_20
 10
0
 20
0
 30
0
 70
128
 71
898
 72
886
 73
888
 74
899
 0
VERTEX
 8
GRASS_20
 10
0
 20
0
 30
0
 70
128
 71
899
 72
888
 73
890
 74
900
 0
VERTEX
 8
GRASS_20
 10
0
 20
0
 30
0
 70
128
 71
892
 72
891
 73
900
 74
900
 0
VERTEX
 8
GRASS_20
 10
0
 20
0
 30
0
 70
128
 71
918
 72
902
 73
903
 74
919
 0
VERTEX
 8
GRASS_20
 10
0
 20
0
 30
0
 70
128
 71
901
 72
905
 73
920
 74
918
 0
VERTEX
 8
GRASS_20
 10
0
 20
0
 30
0
 70
128
 71
921
 72
908
 73
906
 74
920
 0
VERTEX
 8
GRASS_20
 10
0
 20
0
 30
0
 70
128
 71
922
 72
910
 73
908
 74
921
 0
VERTEX
 8
GRASS_20
 10
0
 20
0
 30
0
 70
128
 71
923
 72
912
 73
910
 74
922
 0
VERTEX
 8
GRASS_20
 10
0
 20
0
 30
0
 70
128
 71
924
 72
914
 73
912
 74
923
 0
VERTEX
 8
GRASS_20
 10
0
 20
0
 30
0
 70
128
 71
925
 72
916
 73
914
 74
924
 0
VERTEX
 8
GRASS_20
 10
0
 20
0
 30
0
 70
128
 71
925
 72
915
 73
917
 74
917
 0
VERTEX
 8
GRASS_20
 10
0
 20
0
 30
0
 70
128
 71
919
 72
904
 73
901
 74
918
 0
VERTEX
 8
GRASS_20
 10
0
 20
0
 30
0
 70
128
 71
920
 72
906
 73
902
 74
918
 0
VERTEX
 8
GRASS_20
 10
0
 20
0
 30
0
 70
128
 71
920
 72
905
 73
907
 74
921
 0
VERTEX
 8
GRASS_20
 10
0
 20
0
 30
0
 70
128
 71
921
 72
907
 73
909
 74
922
 0
VERTEX
 8
GRASS_20
 10
0
 20
0
 30
0
 70
128
 71
922
 72
909
 73
911
 74
923
 0
VERTEX
 8
GRASS_20
 10
0
 20
0
 30
0
 70
128
 71
923
 72
911
 73
913
 74
924
 0
VERTEX
 8
GRASS_20
 10
0
 20
0
 30
0
 70
128
 71
924
 72
913
 73
915
 74
925
 0
VERTEX
 8
GRASS_20
 10
0
 20
0
 30
0
 70
128
 71
917
 72
916
 73
925
 74
925
 0
VERTEX
 8
GRASS_20
 10
0
 20
0
 30
0
 70
128
 71
944
 72
928
 73
927
 74
943
 0
VERTEX
 8
GRASS_20
 10
0
 20
0
 30
0
 70
128
 71
943
 72
945
 73
930
 74
926
 0
VERTEX
 8
GRASS_20
 10
0
 20
0
 30
0
 70
128
 71
945
 72
931
 73
933
 74
946
 0
VERTEX
 8
GRASS_20
 10
0
 20
0
 30
0
 70
128
 71
946
 72
933
 73
935
 74
947
 0
VERTEX
 8
GRASS_20
 10
0
 20
0
 30
0
 70
128
 71
947
 72
935
 73
937
 74
948
 0
VERTEX
 8
GRASS_20
 10
0
 20
0
 30
0
 70
128
 71
948
 72
937
 73
939
 74
949
 0
VERTEX
 8
GRASS_20
 10
0
 20
0
 30
0
 70
128
 71
949
 72
939
 73
941
 74
950
 0
VERTEX
 8
GRASS_20
 10
0
 20
0
 30
0
 70
128
 71
942
 72
940
 73
950
 74
950
 0
VERTEX
 8
GRASS_20
 10
0
 20
0
 30
0
 70
128
 71
943
 72
926
 73
929
 74
944
 0
VERTEX
 8
GRASS_20
 10
0
 20
0
 30
0
 70
128
 71
943
 72
927
 73
931
 74
945
 0
VERTEX
 8
GRASS_20
 10
0
 20
0
 30
0
 70
128
 71
946
 72
932
 73
930
 74
945
 0
VERTEX
 8
GRASS_20
 10
0
 20
0
 30
0
 70
128
 71
947
 72
934
 73
932
 74
946
 0
VERTEX
 8
GRASS_20
 10
0
 20
0
 30
0
 70
128
 71
948
 72
936
 73
934
 74
947
 0
VERTEX
 8
GRASS_20
 10
0
 20
0
 30
0
 70
128
 71
949
 72
938
 73
936
 74
948
 0
VERTEX
 8
GRASS_20
 10
0
 20
0
 30
0
 70
128
 71
950
 72
940
 73
938
 74
949
 0
VERTEX
 8
GRASS_20
 10
0
 20
0
 30
0
 70
128
 71
950
 72
941
 73
942
 74
942
 0
VERTEX
 8
GRASS_20
 10
0
 20
0
 30
0
 70
128
 71
969
 72
953
 73
952
 74
968
 0
VERTEX
 8
GRASS_20
 10
0
 20
0
 30
0
 70
128
 71
968
 72
970
 73
955
 74
951
 0
VERTEX
 8
GRASS_20
 10
0
 20
0
 30
0
 70
128
 71
970
 72
956
 73
958
 74
971
 0
VERTEX
 8
GRASS_20
 10
0
 20
0
 30
0
 70
128
 71
971
 72
958
 73
960
 74
972
 0
VERTEX
 8
GRASS_20
 10
0
 20
0
 30
0
 70
128
 71
972
 72
960
 73
962
 74
973
 0
VERTEX
 8
GRASS_20
 10
0
 20
0
 30
0
 70
128
 71
973
 72
962
 73
964
 74
974
 0
VERTEX
 8
GRASS_20
 10
0
 20
0
 30
0
 70
128
 71
974
 72
964
 73
966
 74
975
 0
VERTEX
 8
GRASS_20
 10
0
 20
0
 30
0
 70
128
 71
967
 72
965
 73
975
 74
975
 0
VERTEX
 8
GRASS_20
 10
0
 20
0
 30
0
 70
128
 71
968
 72
951
 73
954
 74
969
 0
VERTEX
 8
GRASS_20
 10
0
 20
0
 30
0
 70
128
 71
968
 72
952
 73
956
 74
970
 0
VERTEX
 8
GRASS_20
 10
0
 20
0
 30
0
 70
128
 71
971
 72
957
 73
955
 74
970
 0
VERTEX
 8
GRASS_20
 10
0
 20
0
 30
0
 70
128
 71
972
 72
959
 73
957
 74
971
 0
VERTEX
 8
GRASS_20
 10
0
 20
0
 30
0
 70
128
 71
973
 72
961
 73
959
 74
972
 0
VERTEX
 8
GRASS_20
 10
0
 20
0
 30
0
 70
128
 71
974
 72
963
 73
961
 74
973
 0
VERTEX
 8
GRASS_20
 10
0
 20
0
 30
0
 70
128
 71
975
 72
965
 73
963
 74
974
 0
VERTEX
 8
GRASS_20
 10
0
 20
0
 30
0
 70
128
 71
975
 72
966
 73
967
 74
967
 0
VERTEX
 8
GRASS_20
 10
0
 20
0
 30
0
 70
128
 71
993
 72
977
 73
978
 74
994
 0
VERTEX
 8
GRASS_20
 10
0
 20
0
 30
0
 70
128
 71
976
 72
980
 73
995
 74
993
 0
VERTEX
 8
GRASS_20
 10
0
 20
0
 30
0
 70
128
 71
996
 72
983
 73
981
 74
995
 0
VERTEX
 8
GRASS_20
 10
0
 20
0
 30
0
 70
128
 71
997
 72
985
 73
983
 74
996
 0
VERTEX
 8
GRASS_20
 10
0
 20
0
 30
0
 70
128
 71
998
 72
987
 73
985
 74
997
 0
VERTEX
 8
GRASS_20
 10
0
 20
0
 30
0
 70
128
 71
999
 72
989
 73
987
 74
998
 0
VERTEX
 8
GRASS_20
 10
0
 20
0
 30
0
 70
128
 71
1000
 72
991
 73
989
 74
999
 0
VERTEX
 8
GRASS_20
 10
0
 20
0
 30
0
 70
128
 71
1000
 72
990
 73
992
 74
992
 0
VERTEX
 8
GRASS_20
 10
0
 20
0
 30
0
 70
128
 71
994
 72
979
 73
976
 74
993
 0
VERTEX
 8
GRASS_20
 10
0
 20
0
 30
0
 70
128
 71
995
 72
981
 73
977
 74
993
 0
VERTEX
 8
GRASS_20
 10
0
 20
0
 30
0
 70
128
 71
995
 72
980
 73
982
 74
996
 0
VERTEX
 8
GRASS_20
 10
0
 20
0
 30
0
 70
128
 71
996
 72
982
 73
984
 74
997
 0
VERTEX
 8
GRASS_20
 10
0
 20
0
 30
0
 70
128
 71
997
 72
984
 73
986
 74
998
 0
VERTEX
 8
GRASS_20
 10
0
 20
0
 30
0
 70
128
 71
998
 72
986
 73
988
 74
999
 0
VERTEX
 8
GRASS_20
 10
0
 20
0
 30
0
 70
128
 71
999
 72
988
 73
990
 74
1000
 0
VERTEX
 8
GRASS_20
 10
0
 20
0
 30
0
 70
128
 71
992
 72
991
 73
1000
 74
1000
 0
SEQEND
 0
ENDSEC
 0
EOF
